<svg width="137" height="41" viewBox="0 0 137 41" fill="none" xmlns="http://www.w3.org/2000/svg">
<g clip-path="url(#clip0_557_446)">
<path d="M51.086 23.0896L58.2589 0.6859H49.8661L45.6279 13.9583L45.5768 13.459L45.5559 12.9644L45.4769 12.5002L45.4211 12.0009L45.3189 11.532L45.2143 11.0607L45.0889 10.5941L44.9564 10.1229L44.7984 9.65159L44.6474 9.21065L44.436 8.74405L44.2547 8.30079L44.0177 7.87851L43.79 7.43758L43.5228 6.99198L43.2672 6.57204L42.7212 5.81615L42.124 5.11625L41.5013 4.46535L40.8019 3.83544L40.1002 3.25919L39.3497 2.73893L38.5387 2.27233L37.7092 1.83606L36.8518 1.43946L35.9689 1.09884L35.0627 0.804882L34.1309 0.552919L33.1411 0.368613L32.1536 0.186639L31.1405 0.0816547L30.1274 0.0349949L29.0609 0L27.9967 0.0349949L26.9279 0.104985L25.8404 0.233299L24.7507 0.396609L23.6609 0.606578L22.5433 0.86554L21.4535 1.17583L20.3382 1.53977L19.2206 1.92705L18.1262 2.40298L17.0155 2.89991L15.9165 3.44583L14.8313 4.05007L13.7625 4.67532L12.7006 5.37288L11.6597 6.10311L10.6722 6.859L9.71717 7.64055L8.80168 8.45476L7.91873 9.28531L7.08921 10.1508L6.28758 11.0327L5.5603 11.9473L4.85394 12.8618L4.18243 13.7763L3.58527 14.7375L3.01599 15.6824L2.49319 16.6436L2.02615 17.6304L1.58235 18.6056L1.2222 19.5901L0.88528 20.5537L0.594834 21.5475L0.388036 22.5367L0.213768 23.5026L0.0813249 24.4918L0.0255593 25.4599L0 26.3955L0.0255593 27.3403L0.132443 28.2735L0.285799 29.1857L0.464714 30.1026L0.720307 30.9845L1.06652 31.8197L1.429 32.6806L1.86583 33.4971L2.36307 34.2786L2.88355 35.0065L3.45515 35.6831L4.04998 36.3317L4.70058 36.9313L5.37906 37.4818L6.07614 38.0091L6.8313 38.4734L7.60737 38.9166L8.41829 39.3062L9.24548 39.6445L10.1261 39.9595L11.0114 40.2208L11.9176 40.4214L12.854 40.6127L13.7904 40.7667L14.7802 40.8484L15.7631 40.902H16.7506L17.7637 40.8717L18.807 40.7947L19.841 40.6897L20.8842 40.5054L21.9159 40.3281L22.9871 40.0668L24.0489 39.7752L25.0899 39.4369L26.1564 39.0729L27.2229 38.6273L28.2569 38.1887L29.2956 37.6638L30.3365 37.1179L31.3752 36.5183V34.8502L30.4945 35.3215L29.6302 35.7344L28.7495 36.1264L27.8642 36.4903L26.9557 36.8029L26.0797 37.0876L25.1945 37.3535L24.3115 37.5635L23.4239 37.7431L22.5433 37.8761L21.6859 38.0091L20.8029 38.0581L19.9455 38.1071H19.1137L18.2563 38.0838L17.45 38.0091L16.6251 37.8971L15.8421 37.7711L15.0637 37.6102L14.3085 37.4072L13.558 37.1436L12.8331 36.8869L12.1314 36.5673L11.4575 36.2314L10.8023 35.8441L10.1819 35.4498L9.55684 35.0065L8.98524 34.5073L8.44153 33.9894L7.94661 33.4388L7.45169 32.8695L7.01021 32.2419L6.57106 31.5584L6.20393 30.8352L5.87166 30.1026L5.58354 29.342L5.34886 28.5652L5.16994 27.7766L5.03518 26.9717L4.96082 26.1598L4.90738 25.327V24.4918L4.96082 23.6612L5.05841 22.7933L5.22106 21.9675L5.39765 21.0996L5.63466 20.2387L5.89722 19.3778L6.23414 18.5473L6.57106 17.6887L6.98697 16.8489L7.43078 16.0183L7.89317 15.1831L8.44153 14.3689L8.98524 13.5663L9.58473 12.7825L10.233 12.0009L10.9115 11.2404L11.6364 10.4845L12.3893 9.75191L13.163 9.05434L13.9972 8.37777L14.8523 7.72454L15.7399 7.09929L16.6461 6.49738L17.5825 5.94913L18.5212 5.42654L19.4831 4.95761L20.4126 4.54234L21.3675 4.14806L22.3365 3.81678L23.2961 3.49482L24.2581 3.24053L25.2224 2.99789L26.1564 2.84392L27.1137 2.69227L28.0525 2.58729L28.9865 2.53363H29.8951L30.7989 2.55696L31.6888 2.61062L32.5741 2.71794L33.4292 2.87191L34.2564 3.05389L35.0882 3.29185L35.8666 3.55081L36.6497 3.86577L37.3979 4.20172L38.1251 4.60066L38.8036 5.00893L39.4519 5.4802L40.1002 6.00279L40.6694 6.54871L41.2457 7.11796L41.7638 7.7502L42.2262 8.4291L42.6166 9.02868L42.9558 9.62826L43.244 10.2278L43.4996 10.8787L43.711 11.5063L43.8876 12.1572L44.0177 12.8408L44.1455 13.515L44.2292 14.2173L44.2547 14.9265L44.2849 15.6544L44.2547 16.3823L44.2036 17.1405L44.1246 17.894L44.0177 18.6476L43.8876 19.4292L43.711 20.2714L43.474 21.0996L43.2161 21.9115L42.9326 22.6907L42.6166 23.4536L42.2518 24.2048L41.8661 24.935L41.4455 25.6699L40.9831 26.3698L40.4882 27.0767L39.9747 27.7509L39.4008 28.4298L38.7734 29.0784L38.1251 29.7363L37.4513 30.3662L36.7217 30.9845L37.0609 31.0685L37.3979 31.1174L37.7371 31.1664L38.0996 31.2224L38.4923 31.2761L38.878 31.3274H39.2707H39.6564H40.2326L40.774 31.3041L41.3456 31.2481L41.8893 31.1408L42.282 31.0685L42.7002 30.9845L43.0883 30.8865L43.474 30.7512L43.8388 30.6252L44.2292 30.4642L44.5893 30.3126L44.9564 30.1283L45.3189 29.944L45.6558 29.7596L45.9904 29.552L46.3343 29.321L46.6712 29.1134L46.9803 28.8684L47.2939 28.6141L47.6053 28.3552L47.8888 28.0916L48.1769 27.8069L48.4627 27.52L48.7253 27.2307L48.9809 26.9181L49.2457 26.6078L49.4734 26.2905L49.6802 25.9569L49.9173 25.6163L50.1008 25.271L50.3076 24.935L50.4912 24.5734L50.6469 24.2048L50.8002 23.8455L50.9559 23.4536L51.086 23.0896Z" fill="#D92728"/>
<path d="M86.978 31.3279H87.0547H87.0802H87.1639H87.7843L88.4023 31.2766L89.0018 31.1996L89.6013 31.0689L90.1985 30.9359L90.7677 30.782L91.344 30.565L91.9086 30.3667L92.457 30.1031L92.9798 29.8418L93.4979 29.5292L94.0137 29.2189L94.4854 28.8689L94.9525 28.5166L95.4218 28.12L95.8354 27.7024L94.8735 30.7516H103.18L110.379 8.53223H101.937L98.0707 20.6078L98.0196 20.7641L97.8616 21.289L97.7013 21.674L97.5247 22.0449L97.3132 22.3855L97.0762 22.7192L96.823 23.0388L96.5348 23.3211L96.249 23.6104L95.9377 23.846L95.6054 24.084L95.2336 24.2893L94.8735 24.4409L94.4854 24.6042L94.0928 24.7279L93.7024 24.8328L93.2888 24.8888L92.8473 24.9355L92.6638 24.9075L92.4848 24.8585L92.3013 24.8048L92.1224 24.7279L91.9667 24.6555L91.8087 24.5482L91.6809 24.4409L91.5461 24.3149L91.4207 24.1516L91.3184 24.0233L91.2394 23.846L91.1651 23.685L91.0861 23.503L91.0605 23.2954L91.0303 23.1088L91.0024 22.9058L91.0605 22.5675L91.1325 22.2222L95.4962 8.53223H87.1035L82.0962 24.1329L82.0125 24.3896L81.9684 24.6555L81.9126 24.8888L81.8847 25.1455L81.808 25.4604L81.7592 25.773L81.7104 26.06V26.3703L81.7337 26.8672L81.808 27.3408L81.9126 27.8074L82.0683 28.253L82.2542 28.6636L82.4865 29.0789L82.7677 29.4498L83.0535 29.7904L83.3927 30.1031L83.7575 30.3877L84.1456 30.649L84.5661 30.859L85.0029 31.0176L85.4467 31.1413L85.9091 31.2486L86.4041 31.2766L86.6109 31.3279H86.8757H86.9245H86.978Z" fill="#241A16"/>
<path d="M76.0713 8.53211H76.0225H75.9621L75.3185 8.55777L74.6911 8.6091L74.094 8.68842L73.4759 8.79573L72.8764 8.92638L72.3025 9.10602L71.7332 9.28566L71.1639 9.51896L70.6156 9.78026L70.0928 10.0462L69.577 10.3565L69.082 10.6715L68.5871 11.0354L68.148 11.404L67.7065 11.8193L67.2882 12.2369L70.906 0.62793H62.5133L52.8008 31.3278H61.1865L64.9786 19.2732L65.0321 19.2009V19.1449L65.2156 18.5686L65.3713 18.214L65.5781 17.8454L65.7826 17.5048L66.0172 17.1665L66.2543 16.8492L66.5331 16.5646L66.8468 16.301L67.1604 16.0467L67.4741 15.8087L67.8366 15.6011L68.1968 15.4471L68.5662 15.2885L68.9519 15.1555L69.3678 15.0505L69.7861 14.9782L70.2043 14.9548L70.4111 14.9782L70.59 15.0225L70.7713 15.0785L70.9525 15.1555L71.1105 15.2581L71.2639 15.3654L71.4242 15.4658L71.5473 15.6011L71.6775 15.755L71.7843 15.888L71.8866 16.07L71.9679 16.2263L72.0167 16.406L72.0701 16.5949L72.1003 16.7769V16.9565L72.0701 17.3228L71.9935 17.6634L67.5833 31.3278H76.0225L81.0019 15.755L81.081 15.5217L81.1623 15.2885L81.2111 15.0225L81.239 14.7635L81.3133 14.4742L81.3667 14.1616L81.39 13.828L81.4202 13.5154L81.39 13.0208L81.3133 12.5215L81.2111 12.0829L81.0577 11.6373L80.8486 11.2197L80.6162 10.8324L80.3235 10.4358L80.0168 10.1022L79.7054 9.78026L79.3406 9.5003L78.9549 9.26233L78.539 9.02903L78.0952 8.87272L77.6537 8.74441L77.1866 8.63709L76.694 8.5811H76.4617L76.2549 8.53211H76.1527H76.0713Z" fill="#241A16"/>
<path d="M84.6154 38.835V37.8761H87.004V40.951H86.1187V40.6127L85.7841 40.7667L85.4193 40.902L85.2334 40.951L85.0266 40.979L84.8454 41H84.6618L84.218 40.979L83.8323 40.923L83.6488 40.874L83.4698 40.797L83.3142 40.7201L83.1608 40.6407L83.0005 40.5404L82.8448 40.4238L82.7124 40.3281L82.5846 40.1951L82.4823 40.0318L82.3754 39.9082L82.2755 39.7472L82.1965 39.5722L82.0385 39.2293L81.9316 38.8327L81.8805 38.4711L81.8596 38.0581L81.8805 37.6382L81.9618 37.2276L82.0641 36.852L82.2244 36.4903L82.3243 36.334L82.4242 36.1801L82.5334 36.0284L82.6659 35.8954L82.7937 35.7601L82.954 35.6295L83.1097 35.5245L83.2886 35.4475L83.5442 35.3192L83.8602 35.2095L84.218 35.1582H84.8454L85.0777 35.1909L85.2892 35.2095L85.4937 35.2609L85.7005 35.3168L85.8794 35.3845L86.0374 35.4965L86.1931 35.6015L86.3232 35.7041L86.451 35.8418L86.5602 35.9631L86.6647 36.1241L86.7414 36.2804L86.8204 36.432L86.8715 36.6163L86.9203 36.8263L85.9839 37.0083L85.9026 36.7983L85.8004 36.614L85.6726 36.4647L85.5169 36.327L85.3124 36.2244L85.1033 36.1474L84.8709 36.0961H84.4039L84.2506 36.1194L84.067 36.1707L83.909 36.222L83.7556 36.299L83.6255 36.376L83.4954 36.481L83.3885 36.5907L83.2584 36.7493L83.1794 36.8986L83.1074 37.0596L83.0493 37.2369L83.0005 37.4469L82.9749 37.6288L82.954 37.8365V38.2797L82.9749 38.4897L83.0005 38.6694L83.0493 38.877L83.1074 39.0613L83.1794 39.2199L83.2863 39.3809L83.3885 39.5349L83.4954 39.6329L83.6255 39.7379L83.7556 39.8149L83.909 39.8988L84.067 39.9502L84.2506 39.9968L84.4039 40.0202H84.5805L84.8709 39.9968L85.1033 39.9758L85.3124 39.9502L85.5169 39.8988L85.6726 39.8149L85.8236 39.7379L85.9607 39.6329L86.1117 39.5349V38.8233H84.6084L84.6154 38.835ZM75.3954 38.1094V37.9298L75.421 37.7152L75.4744 37.5332L75.4953 37.3232L75.6487 36.9079L75.8346 36.5207L75.9368 36.3364L76.046 36.1591L76.1738 36.0027L76.3272 35.8488L76.4875 35.7111L76.6432 35.5828L76.8221 35.4755L76.9731 35.3752L77.2659 35.2935L77.5471 35.2142L77.8329 35.1629H78.4858L78.7669 35.2142L79.0551 35.2935L79.3176 35.3915L79.5476 35.5035L79.7823 35.6575L79.9961 35.8091L80.1959 36.0307L80.3562 36.2337L80.5143 36.4367L80.6397 36.6676L80.7722 36.9336L80.8512 37.2299L80.9 37.5122L80.9581 37.7922V38.3987L80.9 38.6834L80.8512 38.968L80.7722 39.2316L80.6397 39.4906L80.5143 39.7309L80.3795 39.9618L80.1959 40.1695L80.0147 40.3491L79.7823 40.5054L79.5779 40.6664L79.3176 40.7947L79.0551 40.8717L78.7669 40.9487L78.4858 40.9977H77.8863L77.5982 40.9487L77.3124 40.8717L77.0545 40.7947L76.7919 40.6664L76.5642 40.5381L76.3574 40.3468L76.1715 40.1671L75.9926 39.9595L75.8346 39.7449L75.7021 39.5139L75.5976 39.2549L75.5209 38.9913L75.4442 38.7113L75.4187 38.4174L75.3931 38.1048L75.3954 38.1094ZM76.5363 38.0861L76.5642 38.4547L76.6409 38.7883L76.6897 38.968L76.7663 39.129L76.843 39.2876L76.9476 39.4112L77.0545 39.5489L77.1846 39.6772L77.3124 39.7799L77.4704 39.8638L77.6284 39.9362L77.7817 39.9898L77.9885 40.0108L78.1721 40.0342L78.3812 40.0108L78.5601 39.9898L78.7437 39.9362L78.8994 39.8638L79.0527 39.7799L79.1852 39.6772L79.2874 39.5489L79.4198 39.4112L79.4965 39.2596L79.5755 39.1056L79.6476 38.9446L79.701 38.7883L79.78 38.4221L79.8102 38.0604L79.78 37.6918L79.701 37.3559L79.6476 37.1762L79.5755 37.0153L79.4965 36.8893L79.4198 36.7283L79.3153 36.6L79.1852 36.4903L79.0527 36.3854L78.8994 36.3084L78.7437 36.2314L78.5601 36.1801L78.3812 36.1567L78.1721 36.1287L77.9676 36.1567L77.7817 36.1801L77.5982 36.2314L77.4448 36.3084L77.3124 36.3854L77.1567 36.4903L77.0545 36.621L76.9476 36.7586L76.843 36.8893L76.7663 37.0433L76.6897 37.1926L76.6409 37.3559L76.5642 37.7152L76.5363 38.0861ZM59.3396 40.9254V35.2422H60.3038L62.9016 39.0496V35.2422H63.9426V40.9254H62.9272L60.3782 37.2322V40.9254H59.3396ZM53.2634 40.9254V35.2422H54.388V37.4842H56.9021V35.2422H57.9919V40.9254H56.9021V38.4547H54.388V40.9254H53.2634ZM42.1753 40.9254V35.2422H46.2532V36.2057H43.293V37.4585H46.0464V38.4221H43.293V39.9618H46.3601V40.923H42.1753V40.9254ZM89.2881 40.9254V38.5294L87.2875 35.2422H88.5887L89.862 37.4842L91.133 35.2422H92.4086L90.4057 38.555V40.9254H89.2927H89.2881ZM71.4686 40.9254V35.2958H72.5932V39.9642H75.0794V40.9254H71.4686ZM65.03 38.1118V37.9321L65.0532 37.7175L65.0811 37.5355L65.1322 37.3256L65.2623 36.9103L65.4459 36.523L65.5737 36.3387L65.6783 36.1614L65.8061 36.0051L65.9641 35.8511L66.0919 35.7135L66.2731 35.5851L66.4311 35.4778L66.6123 35.3775L66.8726 35.2958L67.156 35.2165L67.4697 35.1652H68.118L68.4061 35.2165L68.6873 35.2958L68.9498 35.3938L69.1845 35.5058L69.4169 35.6598L69.626 35.8114L69.8351 36.0331L69.9885 36.236L70.1395 36.439L70.272 36.67L70.3742 36.9359L70.4811 37.2322L70.5322 37.5145L70.5833 37.7945V38.4011L70.5322 38.6857L70.4811 38.9703L70.3742 39.2339L70.272 39.4929L70.1395 39.7332L69.9885 39.9642L69.8351 40.1718L69.626 40.3514L69.4169 40.5078L69.1845 40.6687L68.9498 40.797L68.6873 40.874L68.4061 40.951L68.118 41H67.5232L67.2072 40.951L66.9539 40.874L66.689 40.797L66.4311 40.6687L66.1941 40.5404L65.9919 40.3491L65.8061 40.1695L65.6202 39.9618L65.4715 39.7472L65.339 39.5162L65.2414 39.2573L65.1345 38.9936L65.0834 38.7137L65.0323 38.4197V38.1071L65.03 38.1118ZM66.1709 38.0884L66.1918 38.4571L66.2708 38.7907L66.3242 38.9703L66.4032 39.1313L66.4776 39.2899L66.5891 39.4136L66.6867 39.5512L66.8168 39.6795L66.9539 39.7822L67.077 39.8662L67.2606 39.9385L67.4163 39.9922L67.6231 40.0132L67.8067 40.0365L68.0111 40.0132L68.19 39.9922L68.3759 39.9385L68.527 39.8662L68.6826 39.7822L68.8174 39.6795L68.922 39.5512L69.0265 39.4136L69.1311 39.2619L69.2101 39.108L69.2844 38.947L69.3332 38.7907L69.4146 38.4244L69.4378 38.0628L69.4146 37.6942L69.3332 37.3582L69.2844 37.1786L69.2101 37.0176L69.1311 36.8916L69.0591 36.7306L68.9243 36.6023L68.8197 36.4927L68.685 36.3877L68.5293 36.3107L68.3782 36.2337L68.1924 36.1824L68.0134 36.1591L67.809 36.1311L67.5975 36.1591L67.4186 36.1824L67.235 36.2337L67.0794 36.3107L66.926 36.3877L66.7936 36.4927L66.689 36.6233L66.5612 36.761L66.4822 36.8916L66.4079 37.0456L66.3289 37.1949L66.2754 37.3582L66.1964 37.7175L66.1755 38.0884H66.1709ZM51.0258 38.8397L52.1713 39.1826L52.1179 39.4136L52.0226 39.6329L51.939 39.8102L51.8321 39.9945L51.6997 40.1765L51.5742 40.3025L51.4417 40.4308L51.2837 40.5707L51.1304 40.6757L50.9515 40.776L50.7702 40.8577L50.5867 40.909L50.3799 40.958L50.1754 40.986L49.9709 41.007H49.4202L49.16 40.986L48.9021 40.9067L48.6395 40.8274L48.4072 40.7247L48.1748 40.5917L47.9657 40.4284L47.7868 40.2558L47.6055 40.0388L47.4522 39.8102L47.3197 39.5512L47.1873 39.2899L47.1106 38.9983L47.0618 38.6857L47.0107 38.4011V38.0884L47.0339 37.7945L47.0618 37.4865L47.1106 37.1949L47.2175 36.9103L47.3221 36.6537L47.4545 36.39L47.6079 36.1591L47.7891 35.9514L47.9982 35.7648L48.205 35.6108L48.435 35.4778L48.6628 35.3472L48.9323 35.2702L49.2158 35.2189L49.5016 35.1675H50.0685L50.3055 35.2002L50.5634 35.2469L50.7726 35.3285L51.0049 35.3962L51.1838 35.5082L51.3976 35.6365L51.551 35.7671L51.7578 35.9724L51.9134 36.2104L52.0436 36.495L52.1737 36.8076L50.977 37.0946L50.9282 36.8939L50.8237 36.7073L50.6959 36.523L50.5356 36.39L50.3566 36.2874L50.1754 36.208L49.9709 36.1591L49.7316 36.1311L49.5782 36.1591H49.4226L49.2669 36.208L49.1391 36.2594L49.0066 36.3107L48.8765 36.3877L48.772 36.4717L48.6604 36.6L48.5373 36.7586L48.4327 36.9079L48.3537 37.0923L48.277 37.3069L48.2259 37.4865L48.1748 37.6942L48.1516 37.8995V38.3147L48.1748 38.5294L48.2259 38.7184L48.277 38.919L48.3537 39.1056L48.4327 39.2596L48.5373 39.4392L48.6604 39.5746L48.772 39.6772L48.8765 39.7799L49.0066 39.8638L49.1391 39.9105L49.2669 39.9618L49.3993 40.0085L49.555 40.0318H49.706L49.9407 40.0085L50.1498 39.9618L50.359 39.8825L50.5379 39.7495L50.6982 39.5746L50.826 39.3646L50.9306 39.1313L51.0305 38.8397H51.0258ZM38.3322 40.9277V36.2104H36.7173V35.2469H41.0809V36.2104H39.4475V40.9277H38.3322Z" fill="#241A16"/>
<path d="M27.6832 20.4202L27.2231 20.5812L26.7258 20.7072L26.2565 20.8635L25.7616 20.9965L25.2643 21.0991L24.781 21.2391L24.2861 21.3651L23.7935 21.4724L23.4821 21.5471L23.2173 21.6241L22.1531 21.9343L21.2678 22.2236L20.9076 22.3846L20.5707 22.5153L20.2849 22.6692L20.0526 22.7952L19.8458 22.9562L19.6622 23.1102L19.4879 23.2968L19.3044 23.4811L19.1719 23.6864L19.0418 23.8707L18.9094 24.0854L18.835 24.2907L18.756 24.5496L18.7049 24.7829V24.9976L18.7304 25.2239L18.7839 25.4292L18.8629 25.6181L18.9651 25.7955L19.0674 25.9588L19.2532 26.1361L19.4066 26.2924L19.5902 26.3974L19.7946 26.479L20.0247 26.5303L20.2872 26.5817L20.5986 26.6097H20.91L21.4815 26.556L22.081 26.451L22.3622 26.3974L22.648 26.3227L22.9361 26.2434L23.2196 26.1361L23.4845 26.0311L23.7447 25.9028L24.0816 25.7161L24.4185 25.5412L24.7322 25.3592L24.9901 25.1445L25.2481 24.9089L25.5083 24.7036L25.7174 24.4703L25.9242 24.2393L26.1287 24.0037L26.3378 23.7168L26.5144 23.4275L26.7003 23.1125L26.856 22.7976L27.0116 22.4663L27.165 22.1233L27.2974 21.7617L27.6832 20.4272V20.4202ZM23.2173 17.763L24.0235 17.6066L24.7299 17.455L25.2992 17.2917L25.7407 17.189L26.5144 17.0094L27.2974 16.8064L28.1014 16.5661L28.9054 16.2838L29.0053 16.0482L29.1191 15.8126L29.1935 15.5793L29.2446 15.3133L29.2678 15.0544L29.2934 14.7954L29.2678 14.5318L29.2446 14.2658L28.9844 14.1375L28.6916 14.0115L28.4128 13.8809L28.1246 13.7759L27.8365 13.6686L27.5763 13.6172L27.316 13.5426L27.0558 13.5146L26.6166 13.4866H26.1542L25.7104 13.5426L25.2969 13.6172L24.8763 13.7269L24.4627 13.8459L24.077 14.0092L23.7401 14.1865L23.4798 14.3661L23.2149 14.5271L22.8803 14.8141L22.5132 15.1547L22.174 15.5746L21.8394 16.0435L13.8904 15.1803L14.2041 14.6834L14.5155 14.2168L14.8268 13.7945L15.1336 13.4096L15.4519 13.0387L15.7354 12.705L16.0444 12.3877L16.3836 12.1055L16.6973 11.7928L17.0621 11.5035L17.399 11.2166L17.7592 10.9553L18.1542 10.6963L18.5422 10.4327L18.9303 10.2017L19.3462 9.9871L19.7644 9.74913L20.2036 9.57182L20.6451 9.39452L21.0889 9.23587L21.5606 9.0749L22.0415 8.92325L22.5411 8.81827L23.0383 8.71562L23.5844 8.60597L24.1258 8.55231L24.6741 8.47765L25.2225 8.42866L25.7894 8.39366L26.3378 8.375H28.2292L28.9867 8.39366L29.714 8.42866L30.411 8.47765L31.0895 8.52898L31.7424 8.60597L32.3349 8.68529L32.8577 8.76694L33.4038 8.86959L33.9219 9.00024L34.4192 9.17755L34.8862 9.39452L35.3254 9.64648L35.739 9.96143L36.1363 10.2787L36.4965 10.666L36.8357 11.0556L37.1169 11.4732L37.3794 11.9421L37.5839 12.4157L37.7674 12.9033L37.8697 13.4306L37.951 13.9788L37.9719 14.5224V14.8094L37.951 15.2503L37.9208 15.514L37.8697 15.7729L37.8209 16.0109L37.7442 16.2745L37.4584 17.2124L37.0983 18.3042L36.7079 19.5547L36.2385 20.9895L35.7274 22.6086L35.1232 24.461L34.4726 26.521L33.75 28.8423L33.6733 29.1036L33.6478 29.3696L33.6222 29.6262L33.6478 29.8852L33.6733 30.1185L33.7221 30.3588L33.7709 30.5571L33.8476 30.7437H25.7476V30.6971L25.6431 30.5104L25.5641 30.3261L25.4897 30.1465L25.4363 29.9622L25.3596 29.5422V28.8587L25.3875 28.63L25.4363 28.3944L25.5129 28.1401L24.9413 28.6044L24.3674 28.9963L23.8028 29.3346L23.2266 29.6472L22.8408 29.8549L22.4714 30.0368L22.1368 30.1978L21.772 30.3261L21.1725 30.5571L20.5289 30.7717L19.8504 30.949L19.1742 31.0797L18.4702 31.2127L17.7476 31.2943L17.0459 31.3176H15.7702L15.2497 31.2943L14.7571 31.2383L14.3133 31.1893L13.9299 31.11L13.5396 31.0284L13.2003 30.9257L12.889 30.7951L12.6009 30.6714L12.3151 30.5081L12.085 30.3564L11.848 30.1651L11.6157 29.9855L11.4112 29.7802L11.2276 29.5726L11.0464 29.3696L10.8861 29.1246L10.7327 28.9193L10.6026 28.6907L10.4748 28.4457L10.3679 28.1914L10.2912 27.9255L10.2122 27.6642L10.1332 27.4005L10.0868 27.1159L10.0589 26.8313L10.0356 26.542V26.2574L10.0589 25.9448L10.11 25.6275L10.1634 25.3149L10.2424 24.9836L10.347 24.6453L10.4492 24.3023L10.5817 24.0084L10.7072 23.7004L10.8675 23.4111L10.9976 23.1522L11.1742 22.8909L11.3345 22.6272L11.7202 22.1606L12.1408 21.7174L12.5823 21.2998L13.047 20.8822L13.5954 20.4926L14.2181 20.1543L14.8942 19.8113L15.6169 19.4987L16.4278 19.2094L17.3061 18.9481L18.2425 18.7148L19.2556 18.5072L19.8248 18.4022L20.3964 18.2995L20.9146 18.1992L21.4328 18.1176L21.9254 18.0126L22.397 17.9309L22.813 17.8563L23.2266 17.749L23.2173 17.763Z" fill="#241A16"/>
<path d="M126.716 20.4208L126.246 20.5818L125.754 20.7078L125.254 20.8641L124.79 20.9971L124.292 21.0997L123.804 21.2397L123.312 21.3657L122.817 21.473L122.508 21.5477L122.248 21.6247L121.158 21.9349L120.298 22.2242L119.908 22.3852L119.592 22.5159L119.311 22.6698L119.078 22.7958L118.874 22.9568L118.665 23.1108L118.488 23.2974L118.325 23.4817L118.17 23.687L118.04 23.8713L117.937 24.086L117.858 24.2913L117.779 24.5502L117.735 24.7835V24.9982L117.756 25.2245L117.807 25.4298L117.884 25.6187L117.988 25.796L118.095 25.9594L118.251 26.1367L118.437 26.293L118.616 26.426L118.82 26.5006L119.057 26.5823L119.315 26.6359H119.933L120.507 26.5823L121.049 26.4773L121.599 26.349L122.094 26.195L122.615 25.9804L123.084 25.7447L123.526 25.4601L123.965 25.1708L124.35 24.8349L124.741 24.4686L125.078 24.0836L125.389 23.6614L125.673 23.2111L125.94 22.7468L126.144 22.2546L126.328 21.7576L126.716 20.4232V20.4208ZM122.25 17.7636L123.052 17.6072L123.73 17.4556L124.295 17.2923L124.769 17.1896L125.542 17.01L126.325 16.807L127.104 16.5667L127.933 16.2844L128.038 16.0488L128.14 15.8132L128.217 15.5799L128.268 15.3139L128.3 15.055V14.5114L128.268 14.2501L128.01 14.1148L127.722 13.9888L127.441 13.8838L127.15 13.7788L126.579 13.6202L126.084 13.5175L125.617 13.4895H125.18L124.734 13.5455L124.29 13.6202L123.881 13.7298L123.486 13.8488L123.1 14.0121L122.74 14.1894L122.475 14.3691L122.245 14.53L121.876 14.817L121.541 15.1576L121.207 15.5775L120.846 16.0465L112.918 15.1833L113.234 14.6863L113.543 14.2197L113.834 13.7975L114.141 13.4125L114.447 13.0416L114.761 12.68L115.077 12.3697L115.388 12.0827L115.725 11.7654L116.088 11.4808L116.427 11.1962L116.787 10.9302L117.182 10.6713L117.568 10.4356L117.956 10.2047L118.377 9.9667L118.79 9.75206L119.201 9.57475L119.671 9.39745L120.112 9.2388L120.582 9.07783L121.072 8.95185L121.539 8.8212L122.062 8.71855L122.608 8.6089L123.149 8.53191L123.691 8.48058L124.239 8.43159L124.815 8.39659L125.357 8.37793H127.253L128.005 8.39659L128.73 8.43159L129.432 8.48058L130.115 8.53191L130.736 8.6089L131.33 8.68822L131.881 8.76987L132.422 8.87252L132.915 9.00317L133.408 9.18048L133.898 9.39745L134.339 9.64941L134.755 9.96436L135.141 10.2817L135.508 10.6689L135.85 11.0585L136.133 11.4761L136.393 11.9451L136.598 12.4187L136.756 12.9063L136.886 13.4335L136.965 13.9818L136.993 14.5254L136.965 14.8123L136.94 15.2533L136.835 15.7758L136.707 16.2774L136.393 17.2153L136.059 18.3071L135.666 19.5576L135.227 20.9924L134.707 22.6115L134.13 24.4639L133.487 26.5239L132.732 28.8453L132.678 29.0716L132.655 29.3165L132.627 29.5778V29.8391L132.678 30.1004L132.706 30.3314L132.787 30.5623L132.859 30.749H124.759V30.7023L124.652 30.5157L124.578 30.3314L124.494 30.1517L124.446 29.9674L124.369 29.5475L124.341 29.1299L124.369 28.8639L124.39 28.6353L124.446 28.3997L124.525 28.1454L123.953 28.6096L123.381 29.0016L122.784 29.3399L122.238 29.6525L121.85 29.8601L121.483 30.0421L121.149 30.2031L120.781 30.3314L120.159 30.5623L119.51 30.777L118.864 30.9543L118.158 31.0849L117.456 31.2179L116.752 31.2996L116.025 31.3229H114.754L114.259 31.2996L113.767 31.2436L113.323 31.1946L112.909 31.1153L112.544 31.0336L112.207 30.931L111.898 30.8003L111.58 30.6767L111.329 30.5134L111.064 30.3617L110.83 30.1704L110.627 29.9908L110.411 29.7855L110.235 29.5778L110.026 29.3749L109.87 29.1299L109.742 28.9246L109.614 28.696L109.484 28.451L109.38 28.1967L109.273 27.9307L109.196 27.6694L109.147 27.4058L109.094 27.1212L109.068 26.8366L109.038 26.5473V26.2626L109.068 25.95L109.094 25.6327L109.168 25.3201L109.219 24.9888L109.326 24.6505L109.454 24.3076L109.589 24.0136L109.719 23.7057L109.844 23.4164L110.002 23.1574L110.156 22.8961L110.335 22.6325L110.73 22.1659L111.12 21.7226L111.559 21.305L112.054 20.8874L112.605 20.4978L113.19 20.1595L113.869 19.8166L114.622 19.504L115.428 19.2147L116.288 18.9534L117.245 18.7201L118.26 18.5124L118.83 18.4075L119.371 18.3048L119.917 18.2045L120.44 18.1228L120.909 18.0179L121.381 17.9362L121.82 17.8615L122.236 17.7542L122.25 17.7636Z" fill="#241A16"/>
</g>
<defs>
<clipPath id="clip0_557_446">
<rect width="137" height="41" fill="white"/>
</clipPath>
</defs>
</svg>
