<svg width="94" height="56" viewBox="0 0 94 56" fill="none" xmlns="http://www.w3.org/2000/svg">
<g clip-path="url(#clip0_557_281)">
<path fill-rule="evenodd" clip-rule="evenodd" d="M60.1667 11.3871H75.2032C73.5777 17.486 71.9608 23.5849 70.3735 29.6966C69.5799 32.7525 68.8032 35.8084 67.8908 38.83C67.0038 41.7658 65.9173 44.8988 64.3301 47.569C62.6749 50.3505 60.5317 52.5235 57.5652 53.9164C56.3811 54.4736 55.1631 54.8551 53.8899 55.1251C52.0819 55.5108 50.2655 55.6694 48.4279 55.7765C43.8783 56.0337 34.2233 55.9951 29.6695 55.9951L32.4578 45.5546C34.5713 45.5546 36.6805 45.5632 38.7898 45.5032C40.8269 45.4474 43.0677 45.336 45.0751 44.856C47.2735 44.3331 48.9287 43.4288 50.3801 41.6244C51.7042 39.9786 52.5912 37.9299 53.3212 35.9927C54.6538 32.4568 56.0161 27.3994 56.9752 23.7606C58.0617 19.6418 59.1057 15.5102 60.1582 11.3828L60.1667 11.3871ZM40.1054 41.4487C38.0301 41.6201 35.9548 41.663 33.8752 41.6972C29.0923 41.7744 20.4133 41.7658 15.6304 41.7444C13.9115 41.7358 12.1927 41.7272 10.4782 41.693C9.23468 41.6715 7.98695 41.6372 6.74346 41.5601C5.91164 41.5087 5.0883 41.4358 4.26922 41.2858C3.71325 41.1829 3.17427 41.0458 2.65226 40.8143C0.929201 40.0557 0.0549404 38.5385 -0.000231435 36.6913C-0.0299393 35.6326 0.152552 34.6255 0.360507 33.6011C0.657586 32.1525 1.03106 30.721 1.39604 29.2938C2.0963 26.5593 3.38222 21.5148 4.37956 18.8618C5.1647 16.7788 6.20023 14.7087 8.16519 13.3929C9.26439 12.6558 10.4187 12.2657 11.6919 12.0043C12.6384 11.8114 13.5848 11.7129 14.5439 11.64C16.1481 11.52 17.7524 11.4814 19.3608 11.4514C21.6441 11.4128 23.9273 11.4043 26.2106 11.3957C30.009 11.3871 33.8073 11.3871 37.6015 11.3871C36.9267 13.9158 36.2476 16.4488 35.5728 18.9818C32.1861 18.9818 28.8037 18.9732 25.417 18.9904C24.4281 18.9947 23.4435 18.9904 22.4547 19.0547C22.1024 19.0761 21.7629 19.1018 21.4234 19.2218C20.9778 19.3761 20.7571 19.659 20.5619 20.0661C20.2733 20.6619 20.112 21.2876 19.9253 21.9134C19.6452 22.8734 19.3863 23.8335 19.1316 24.7978C18.7327 26.285 18.3338 27.768 17.9561 29.2595C17.816 29.8124 17.6802 30.3652 17.5614 30.9224C17.4765 31.3124 17.4043 31.7024 17.3661 32.101C17.3237 32.5382 17.3152 33.0611 17.5741 33.464C17.8415 33.8754 18.2871 33.9697 18.7072 34.0297C19.1826 34.0983 19.6537 34.1154 20.129 34.1283C20.9099 34.154 21.6865 34.154 22.4674 34.1583C24.5979 34.1669 26.7326 34.1711 28.8631 34.1583C29.8477 34.154 30.8281 34.1454 31.8084 34.1069C32.4832 34.0811 33.1538 34.0554 33.8201 33.8926C34.3251 33.7683 34.7198 33.5754 35.0636 33.1554C35.297 32.8725 35.4455 32.5596 35.5856 32.2253C35.9293 31.3981 36.1712 30.5452 36.4216 29.6881C37.3808 26.4093 38.2465 23.1049 39.1335 19.8047C40.9033 13.2044 42.6518 6.59974 44.4046 -0.00488281H59.441C57.8665 5.92256 56.292 11.8543 54.7005 17.7775C53.5886 21.9048 52.4851 26.0322 51.2798 30.1338C50.7536 31.921 50.2273 33.704 49.5398 35.4398C48.9881 36.8327 48.3684 38.0756 47.2226 39.1171C46.3695 39.8972 45.4359 40.3772 44.3494 40.7243C42.9531 41.1701 41.5399 41.3329 40.0969 41.4487H40.1054ZM78.9633 11.3871H93.9998L85.8853 41.7615H70.8488L78.9633 11.3871Z" fill="#212B27"/>
</g>
<defs>
<clipPath id="clip0_557_281">
<rect width="94" height="56" fill="white"/>
</clipPath>
</defs>
</svg>
