<svg width="161" height="33" viewBox="0 0 161 33" fill="none" xmlns="http://www.w3.org/2000/svg">
<g clip-path="url(#clip0_557_305)">
<path d="M37.2436 19.2418V27.4593C37.2436 30.5331 37.5966 31.946 40.7054 31.946V32.2373H28.71V31.946C32.2708 31.946 31.8497 28.1286 31.8497 25.0548V16.2857C31.8497 13.2119 32.4876 7.1263 28.9205 7.1263V6.82884H40.4143V7.1263C37.4542 7.1263 37.2436 8.92968 37.2436 11.9973V18.4424L37.7576 18.4733C42.5632 13.6829 43.102 12.8339 43.4302 12.301C45.833 8.39053 43.5664 7.23165 42.235 7.23165V6.79785H52.0196V7.23165C50.3475 7.23165 47.2016 9.83447 45.3438 11.3466L38.1354 18.5973C47.9757 19.0621 47.7652 24.1995 48.8613 28.0232C49.4806 30.1798 49.8831 31.5246 52.2425 31.9832V32.2373C52.2425 32.2373 43.4736 32.2497 43.4736 32.2373C42.1297 24.8007 41.4981 18.6035 37.2374 19.2356L37.2436 19.2418Z" fill="black"/>
<path d="M60.4603 20.2898C60.4603 23.8098 61.0239 24.7951 63.0737 24.7951V25.0492H52.8618V24.7951C54.9487 24.7951 55.1098 22.3782 55.1098 20.2898V11.025C55.1098 8.57708 54.5958 7.24469 52.5088 7.24469V6.80469H60.4603V20.2898Z" fill="black"/>
<path d="M57.7041 0C59.2585 0 60.5466 1.28901 60.5466 2.84451C60.5466 4.4 59.2585 5.68901 57.7041 5.68901C56.1498 5.68901 54.8555 4.4 54.8555 2.84451C54.8555 1.28901 56.1436 0 57.7041 0Z" fill="black"/>
<path d="M71.1238 9.06608C72.9073 6.50045 74.1149 6.43848 76.1647 6.43848C81.0446 6.43848 81.4534 10.1816 81.4534 13.3483L81.4657 20.2954C81.4657 23.71 81.8187 24.8007 83.7137 24.8007V25.0548H73.9972V24.8007C75.7003 24.8007 75.7003 23.3134 75.7003 20.2954V13.2368C75.7003 10.6959 75.9789 7.49819 74.0344 7.49819C71.805 7.49819 71.7245 9.28298 71.1176 10.3055V20.2954C71.1176 23.2824 71.2972 24.8007 73.0002 24.8007V25.0548H63.4571V24.8007C65.3521 24.8007 65.6741 23.2081 65.6741 20.2954V11.0306C65.6741 8.47735 65.2159 7.24411 63.1289 7.24411V6.80411H71.1176V9.05988L71.1238 9.06608Z" fill="black"/>
<path d="M121.633 6.81094H125.38L124.742 8.08756H121.633V19.0442C121.633 24.5597 124.816 24.0949 126.154 22.8988L126.228 23.2459C123.367 25.5512 121.422 25.0616 120.698 25.0616C117.93 25.0616 116.196 23.1095 116.196 20.4881V8.08136H113.105V7.93263C115.521 7.09601 119.478 3.87347 121.317 1.19629H121.639V6.80474L121.633 6.81094Z" fill="black"/>
<path d="M124.252 16.1185C124.252 11.7371 128.178 6.43848 133.009 6.43848C137.412 6.43848 141.623 11.1359 141.623 15.8024C141.623 21.2993 136.885 25.3771 133.009 25.3771C128.283 25.3771 124.252 21.1568 124.252 16.1185ZM136.093 15.6227C136.093 10.0824 135.894 6.81031 133.009 6.81031C129.844 6.81031 130.067 11.0306 130.067 15.6227C130.067 21.163 130.055 25.0362 133.009 25.0362C136.315 25.0362 136.093 21.163 136.093 15.6227Z" fill="black"/>
<path d="M148.403 9.06608C150.187 6.50045 151.395 6.43848 153.444 6.43848C158.324 6.43848 158.739 10.1816 158.739 13.3483L158.752 20.2954C158.752 23.71 159.105 24.8007 161.006 24.8007V25.0548H151.289V24.8007C152.992 24.8007 152.992 23.3134 152.992 20.2954V13.2368C152.992 10.6959 153.271 7.49819 151.326 7.49819C149.097 7.49819 149.016 9.28298 148.41 10.3055V20.2954C148.41 23.2824 148.589 24.8007 150.292 24.8007V25.0548H140.749V24.8007C142.644 24.8007 142.966 23.2081 142.966 20.2954V11.0306C142.966 8.47735 142.508 7.24411 140.421 7.24411V6.80411H148.41V9.05988L148.403 9.06608Z" fill="black"/>
<path d="M93.0655 22.2662C92.5081 22.9975 91.7217 25.3648 88.7801 25.3648C85.3679 25.3648 82.7979 22.2538 82.7979 16.0505C82.7979 11.006 86.0367 6.52539 89.7647 6.52539C92.4091 6.52539 93.4247 8.88652 93.4247 8.88652V6.96539H101.568V7.36201C101.568 7.36201 98.8929 6.82286 98.8929 10.6527V24.7079C98.6328 28.5254 96.9731 31.1468 90.3716 33.006L90.415 32.566C94.205 29.802 93.3937 25.7986 93.0655 22.2724V22.2662ZM93.5361 15.1891C93.5361 11.0617 93.2265 7.04595 90.576 7.04595C88.7243 7.04595 88.2537 10.2871 88.2537 16.162C88.2537 21.095 88.6686 24.3919 90.5388 24.3919C92.1923 24.3919 93.5361 20.655 93.5361 16.6764V15.1891Z" fill="black"/>
<path d="M99.8281 19.2362H102.435C102.088 24.9438 106.058 24.95 107.012 24.95C108.74 24.95 110.306 23.5928 110.306 22.0807C110.306 17.439 100.639 19.4221 100.639 12.3635C100.639 9.15961 103.073 6.48242 106.721 6.48242C112.629 6.48242 113.316 10.0334 113.316 11.2728H111.111C111.322 10.3866 110.957 6.7489 107.198 6.7489C104.126 6.7489 104.25 9.25876 104.25 9.43228C104.25 13.9376 114.709 12.3016 114.709 18.945C114.709 22.2914 111.892 25.0864 108.102 25.2971C101.556 25.6565 99.8281 20.9157 99.8281 19.2362Z" fill="black"/>
<path d="M156.888 5.26773C156.888 4.2328 157.73 3.38379 158.777 3.38379C159.823 3.38379 160.659 4.2328 160.659 5.26773C160.659 6.30266 159.817 7.16407 158.777 7.16407C157.736 7.16407 156.888 6.31506 156.888 5.26773ZM160.362 5.26773C160.362 4.35055 159.693 3.63168 158.777 3.63168C157.86 3.63168 157.179 4.35055 157.179 5.26773C157.179 6.18492 157.854 6.91618 158.777 6.91618C159.699 6.91618 160.362 6.19731 160.362 5.26773ZM159.718 6.32745H159.408L158.807 5.35449H158.337V6.32745H158.077V4.22041H158.999C159.557 4.22041 159.749 4.43111 159.749 4.77816C159.749 5.19337 159.464 5.3483 159.086 5.36069L159.724 6.33365L159.718 6.32745ZM158.727 5.14999C159.024 5.14999 159.464 5.19956 159.464 4.77196C159.464 4.44351 159.191 4.40013 158.938 4.40013H158.337V5.14999H158.733H158.727Z" fill="black"/>
<path d="M53.4805 26.5049H58.0941V27.1804H56.1805V32.1939H55.394V27.1804H53.4805V26.5049Z" fill="black"/>
<path d="M63.9408 32.1939V26.5049H68.0837V27.199H64.6901V28.928H67.8298V29.5849H64.6901V31.5122H68.1395V32.1939H63.9346H63.9408Z" fill="black"/>
<path d="M76.6235 26.3503C77.3418 26.3503 77.8992 26.5362 78.3017 26.9142C78.6981 27.2923 78.921 27.7261 78.9644 28.2094H78.215C78.1283 27.8438 77.9611 27.5525 77.7072 27.3356C77.4533 27.1249 77.1003 27.0134 76.6421 27.0134C76.0785 27.0134 75.6264 27.2117 75.2858 27.6021C74.9452 27.9987 74.7656 28.5999 74.7656 29.4117C74.7656 30.081 74.9205 30.6201 75.2363 31.0354C75.5459 31.4506 76.0104 31.6551 76.6297 31.6551C77.1994 31.6551 77.6329 31.4382 77.924 30.9982C78.0788 30.7689 78.2026 30.4652 78.277 30.0934H79.0263C78.9582 30.6945 78.7352 31.1965 78.3636 31.5993C77.9116 32.0889 77.3047 32.3306 76.5368 32.3306C75.8741 32.3306 75.323 32.1323 74.8709 31.7294C74.2826 31.1965 73.9854 30.3785 73.9854 29.2754C73.9854 28.4387 74.2083 27.7508 74.6542 27.2117C75.1372 26.6292 75.7936 26.3379 76.6421 26.3379L76.6235 26.3503Z" fill="black"/>
<path d="M85.0391 32.1939V26.5049H85.8193V28.8536H88.7733V26.5049H89.5536V32.1939H88.7733V29.5291H85.8193V32.1939H85.0391Z" fill="black"/>
<path d="M99.1406 32.1939V26.5049H100.051L102.924 31.1094V26.5049H103.655V32.1939H102.794L99.8776 27.5894V32.1939H99.1406Z" fill="black"/>
<path d="M111.551 31.0233C111.235 30.5895 111.074 30.0565 111.074 29.4306C111.074 28.6435 111.26 28.0486 111.632 27.6458C112.003 27.243 112.486 27.0385 113.068 27.0385C113.65 27.0385 114.152 27.243 114.499 27.652C114.846 28.061 115.025 28.6002 115.025 29.2695C115.025 29.9016 114.87 30.4655 114.567 30.9489C114.264 31.4323 113.774 31.6802 113.093 31.6802C112.375 31.6802 111.861 31.4633 111.539 31.0357L111.551 31.0233ZM110.851 27.4041C110.467 27.9495 110.275 28.6126 110.275 29.381C110.275 30.23 110.498 30.9365 110.944 31.4942C111.446 32.0706 112.133 32.3619 113.006 32.3619C113.942 32.3619 114.66 32.0334 115.168 31.3703C115.601 30.8064 115.812 30.1061 115.812 29.2509C115.812 28.4638 115.626 27.8193 115.248 27.3173C114.765 26.6728 114.022 26.3506 113.019 26.3506C112.016 26.3506 111.334 26.6976 110.845 27.4041H110.851Z" fill="black"/>
<path d="M122.443 32.1939V26.5049H123.211V31.5122H126.091V32.1939H122.443Z" fill="black"/>
<path d="M133.374 31.0233C133.059 30.5895 132.898 30.0565 132.898 29.4306C132.898 28.6435 133.083 28.0486 133.455 27.6458C133.826 27.243 134.303 27.0385 134.898 27.0385C135.492 27.0385 135.982 27.243 136.334 27.652C136.681 28.061 136.861 28.6002 136.861 29.2695C136.861 29.9016 136.706 30.4655 136.403 30.9489C136.099 31.4323 135.61 31.6802 134.929 31.6802C134.21 31.6802 133.696 31.4633 133.381 31.0357L133.374 31.0233ZM132.675 27.4041C132.291 27.9495 132.099 28.6126 132.099 29.381C132.099 30.23 132.322 30.9365 132.767 31.4942C133.269 32.0706 133.956 32.3619 134.83 32.3619C135.765 32.3619 136.483 32.0334 136.997 31.3703C137.424 30.8064 137.641 30.1061 137.641 29.2509C137.641 28.4638 137.455 27.8193 137.078 27.3173C136.595 26.6728 135.851 26.3506 134.848 26.3506C133.845 26.3506 133.164 26.6976 132.675 27.4041Z" fill="black"/>
<path d="M146.719 26.3564C147.258 26.3564 147.716 26.4618 148.106 26.6663C148.67 26.9638 149.017 27.4843 149.147 28.228H148.385C148.292 27.8128 148.1 27.5091 147.809 27.317C147.518 27.1311 147.153 27.0319 146.707 27.0319C146.18 27.0319 145.741 27.2303 145.375 27.6269C145.016 28.0235 144.837 28.606 144.837 29.3931C144.837 30.0686 144.985 30.6201 145.283 31.0415C145.58 31.4691 146.063 31.6798 146.732 31.6798C147.246 31.6798 147.673 31.5311 148.007 31.2336C148.342 30.9362 148.515 30.4528 148.528 29.7897H146.744V29.1514H149.24V32.1942H148.744L148.558 31.4629C148.298 31.748 148.063 31.9525 147.865 32.0579C147.53 32.25 147.097 32.3491 146.577 32.3491C145.902 32.3491 145.32 32.1322 144.837 31.6922C144.31 31.1469 144.044 30.397 144.044 29.4364C144.044 28.4759 144.304 27.726 144.818 27.1621C145.307 26.6229 145.945 26.3564 146.725 26.3564H146.719Z" fill="black"/>
<path d="M157.687 29.9009L155.538 26.5049H156.436L158.071 29.2378L159.7 26.5049H160.604L158.455 29.9009V32.1939H157.687V29.9009Z" fill="black"/>
<path d="M1.28191 5.14408C1.17044 4.69168 1.02181 3.59478 1.02181 3.59478C0.811255 2.70859 1.25094 2.4669 1.25094 2.4669C1.25094 2.4669 5.24529 0.378445 12.5961 0.198727C14.8131 0.142952 18.6527 0.0747832 22.4922 1.38239C22.7523 1.48774 22.8142 1.69225 22.9133 2.07028C23.0433 2.54746 23.0991 2.96887 23.161 3.39028C23.2973 4.37563 23.3344 4.93957 23.3096 5.49112C23.2911 5.88154 22.8514 6.57563 22.8328 6.76774C22.7709 7.43704 23.0186 10.0584 22.9257 11.3413C22.8328 12.6241 22.3374 16.9187 21.3094 19.7384C20.2256 22.7131 18.3554 22.2235 17.4079 22.2235L21.8915 32.2939L0 32.2753L3.23883 14.7311C3.23883 14.7311 3.28837 14.2849 2.89203 14.0432C2.02504 13.4979 1.32526 12.6365 1.32526 12.6365C1.32526 12.6365 0.885568 12.1407 0.383953 9.25901C0.383953 9.25901 -0.0371567 6.55084 0.427302 5.96211C0.64405 5.68943 1.16424 5.42295 1.31906 5.32999L1.28191 5.14408Z" fill="#231F20"/>
<path d="M18.7892 9.69881L17.402 9.36416C17.402 9.36416 17.049 9.35797 16.9499 9.54388C16.857 9.73599 16.5784 10.8081 16.5784 10.8081C16.5784 10.8081 16.5598 10.8887 16.6341 10.963C16.7084 11.0374 20.0649 13.4667 20.0649 13.4667C20.0649 13.4667 17.2348 13.2002 16.3554 13.4109C15.4761 13.6216 13.7297 14.5512 12.5902 14.7371C11.4507 14.9292 7.26442 15.3754 7.00432 15.4002L5.34466 8.19909C5.34466 8.19909 5.12172 6.4267 3.29485 6.48247C1.92005 6.52585 1.7033 6.88529 1.63518 7.03402C1.49894 7.32529 1.63518 7.58557 1.63518 7.58557L6.17449 15.2825C6.17449 15.2825 3.12764 13.7951 1.91386 12.1839C1.25123 11.2977 0.644335 7.03402 1.08402 6.31515C1.48036 5.67064 3.96367 5.15008 5.01025 5.26163C5.52425 5.36078 5.97632 5.84416 6.27977 6.2036C6.37266 6.31515 6.42839 6.25318 6.50271 6.37092C6.50271 6.37092 6.23023 4.72247 5.17126 4.6543C3.64784 4.54895 2.01913 5.1005 2.01913 5.1005C2.01913 5.1005 1.89528 5.08811 1.84574 4.91459C1.77142 4.67909 1.60422 3.24135 1.60422 3.24135C1.60422 3.24135 1.67234 2.94388 1.90766 2.82614C1.90766 2.82614 6.19307 0.812051 12.6398 0.830643C13.4015 0.830643 19.4518 0.737685 22.3253 1.99571C22.5792 2.19402 22.4182 3.16698 22.2881 3.71233C22.189 4.13374 21.7927 4.2329 21.7927 4.2329C21.353 4.34445 21.1672 4.71008 21.1672 4.71008C21.1672 4.71008 21.7803 10.4549 21.8298 10.6904C21.8794 10.9259 21.6626 10.9692 21.0681 11.0064C20.808 11.025 17.7364 11.0746 17.7364 11.0746C17.7364 11.0746 17.1048 11.0126 17.1295 10.6346C17.1481 10.3557 17.241 9.84135 17.4082 9.84135H17.9965C17.9965 9.84135 19.2413 9.84135 18.7892 9.68642V9.69881Z" fill="#ED1C2E"/>
<path d="M14.2617 14.7615C14.2617 14.7615 17.2033 14.2161 20.2873 15.0217C20.2873 15.0217 20.9499 15.5671 20.8756 16.0195C20.8756 16.0195 16.1319 16.2798 14.2617 14.7615Z" fill="#ED1C2E"/>
<path d="M14.3672 19.8927C14.3672 19.8927 15.197 16.2921 20.7334 16.7941C20.7334 16.7941 21.1173 17.104 20.046 18.1761C18.7703 19.4527 16.4356 20.4194 14.3734 19.8927H14.3672Z" fill="#ED1C2E"/>
<path d="M13.2587 2.63362C13.2587 2.63362 13.8718 2.49729 16.2994 3.06123C17.5627 3.3525 18.2439 3.63757 18.5721 3.74912C18.7145 3.79869 18.7022 4.14574 18.6216 4.17052C18.4544 4.2201 15.3457 3.17278 13.5745 3.20996C13.5745 3.20996 11.4814 4.06517 8.99187 6.22179C8.99187 6.22179 8.4531 6.31475 8.21777 6.22179C8.21777 6.22179 10.4843 3.80489 13.2525 2.63982L13.2587 2.63362Z" fill="#231F20"/>
<path d="M11.1038 6.15963C11.1038 6.15963 13.0979 5.1433 14.0888 4.90161C15.0858 4.66611 15.928 4.55456 16.3801 4.67231C16.8322 4.79006 17.3276 5.99851 17.3524 6.21541C17.3524 6.21541 15.8599 6.93428 14.4356 6.78555C13.2032 6.65541 11.8656 6.50048 11.0977 6.15963H11.1038Z" fill="#231F20"/>
<path d="M22.4422 4.51735C22.7147 4.56073 22.6961 4.58552 22.8695 4.72806C23.0429 4.87059 22.9996 5.23003 22.8819 5.34778C22.7643 5.46552 22.659 5.23623 21.792 5.26102C21.792 5.26102 22.1883 4.47397 22.4422 4.51735Z" fill="#ED1C2E"/>
<path d="M3.97604 14.7861L6.01346 16.1867L9.38853 31.6487H0.811523L3.97604 14.7861Z" fill="#ED1C2E"/>
<path d="M8.92383 22.3721C8.92383 22.3721 13.0916 24.9873 13.7604 25.9293L14.2063 31.6864H11.1718L8.93002 22.3721H8.92383Z" fill="#ED1C2E"/>
<path d="M16.0272 27.6455C16.0272 27.6455 18.461 29.9137 19.1794 31.6861H15.0859L16.0272 27.6455Z" fill="#ED1C2E"/>
<path d="M19.4697 4.99488C19.4697 4.99488 19.736 4.91432 19.7979 5.19939C20.1014 6.59375 20.5039 9.63037 20.5039 9.86587C20.5039 10.3059 20.0395 9.93404 20.0395 9.93404L19.4697 4.99488Z" fill="white"/>
<path d="M10.7015 0.904514C10.7015 0.904514 10.7944 0.873529 10.9678 0.879726C11.0173 0.879726 12.3054 3.07353 12.3054 3.07353C12.2745 3.09832 11.8348 3.3462 11.7605 3.39578L10.6953 0.904514H10.7015Z" fill="white"/>
<path d="M5.34465 8.21165C5.34465 8.21165 4.87399 6.81109 5.82768 6.58799C6.78137 6.37109 8.01993 6.22236 9.48143 6.29672C9.48143 6.29672 7.06624 6.76151 6.33549 7.05278C5.60474 7.34405 5.34465 8.21165 5.34465 8.21165Z" fill="white"/>
</g>
<defs>
<clipPath id="clip0_557_305">
<rect width="161" height="33" fill="white"/>
</clipPath>
</defs>
</svg>
