<svg width="139" height="37" viewBox="0 0 139 37" fill="none" xmlns="http://www.w3.org/2000/svg">
<g clip-path="url(#clip0_557_502)">
<mask id="mask0_557_502" style="mask-type:luminance" maskUnits="userSpaceOnUse" x="0" y="0" width="139" height="37">
<path d="M139 0H0V37H139V0Z" fill="white"/>
</mask>
<g mask="url(#mask0_557_502)">
<path d="M45.0425 7.17578L41.4839 18.8924H48.4512L45.0425 7.17578Z" fill="#007AC2"/>
<path d="M38.9546 27.1562H50.9022L53.7572 36.9139H35.915L38.9546 27.1562Z" fill="#007AC2"/>
<path d="M85.606 0.0742188H51.3174V10.6522H62.1375V36.9136H79.5557C78.4714 36.2826 71.0744 30.5834 71.0744 19.9079C71.0744 11.0624 76.6229 2.35445 85.606 0.0742188Z" fill="#007AC2"/>
<path d="M91.5181 27.4744C95.6362 27.4744 98.869 24.219 98.869 20.0888C98.869 15.9586 95.8179 12.293 91.7027 12.293C87.5875 12.293 84.3374 15.9586 84.3374 20.0888C84.3374 24.219 87.4 27.4744 91.5181 27.4744Z" fill="#007AC2"/>
<path d="M127.621 23.2351C127.644 22.802 127.644 22.3574 127.644 22.0505V0.0742188H138.827V36.9136H120.858L114.303 15.075C114.176 14.5587 113.997 14.0969 113.868 13.8445C113.937 14.7996 113.937 15.4278 113.891 17.5015V36.9136H102.75V0.0742188H120.584L127.277 22.0505C127.277 22.0505 127.497 22.6557 127.621 23.2351Z" fill="#007AC2"/>
<path d="M21.796 36.9136H0.158691V0.0742188H33.164L29.9139 10.6493H13.1416V13.5692H29.0286L25.9487 23.5076H12.9946V26.6081H25.0057L21.796 36.9136Z" fill="#007AC2"/>
</g>
</g>
<defs>
<clipPath id="clip0_557_502">
<rect width="139" height="37" fill="white"/>
</clipPath>
</defs>
</svg>
