<svg width="120" height="58" viewBox="0 0 120 58" fill="none" xmlns="http://www.w3.org/2000/svg">
<g clip-path="url(#clip0_557_530)">
<path fill-rule="evenodd" clip-rule="evenodd" d="M11.9199 49.2902C12.8769 48.338 13.3562 47.066 13.3562 45.4711C13.3562 44.0789 12.9404 42.8669 12.1058 41.8367C11.0762 40.5601 9.49024 39.9219 7.34333 39.9219H0V57.9586H4.7232V51.0353L9.23321 57.9586H15.0979L9.39045 50.5592C10.4639 50.3204 11.306 49.8984 11.9184 49.2902H11.9199ZM7.75306 47.3619C7.31763 47.7749 6.60098 47.9821 5.60464 47.9821H4.7232V43.4902H5.60464C6.59191 43.4902 7.30855 43.6959 7.75306 44.1089C8.22477 44.549 8.46214 45.0896 8.46214 45.7294C8.46214 46.3692 8.22477 46.9158 7.75306 47.3634V47.3619Z" fill="#1E384B"/>
<path d="M22.1436 39.9209H17.4219V57.9577H22.1436V39.9209Z" fill="#1E384B"/>
<path fill-rule="evenodd" clip-rule="evenodd" d="M38.3696 39.9209L33.9533 50.8886L29.5764 39.9209H24.4404L31.4617 57.9592H36.507L43.492 39.9209H38.3696Z" fill="#1E384B"/>
<path fill-rule="evenodd" clip-rule="evenodd" d="M46.836 39.9209L39.8525 57.9592H44.9734L49.3896 46.9914L53.7681 57.9592H58.9026L51.8813 39.9209H46.836Z" fill="#1E384B"/>
<path fill-rule="evenodd" clip-rule="evenodd" d="M81.0401 39.9209L74.0566 57.9592H79.1775L83.5937 46.9914L87.9722 57.9592H93.1067L86.0854 39.9209H81.0401Z" fill="#1E384B"/>
<path fill-rule="evenodd" clip-rule="evenodd" d="M64.8245 45.3111C65.6878 44.6127 66.7038 44.2628 67.871 44.2628C68.7933 44.2628 69.6566 44.5031 70.4594 44.9852C70.8994 45.248 71.3303 45.637 71.7536 46.1521V40.8026C70.2583 40.2229 68.9112 39.9346 67.7123 39.9346C65.5079 39.9346 63.5424 40.6269 61.8189 42.0116C59.6236 43.7822 58.5244 46.0935 58.5244 48.9469C58.5244 51.8004 59.6236 54.0997 61.8189 55.8718C63.5424 57.2565 65.4958 57.9488 67.6745 57.9488C68.9233 57.9488 70.2855 57.659 71.7551 57.0808V51.7298C71.3242 52.2539 70.8933 52.6429 70.4609 52.8967C69.6566 53.3773 68.7948 53.6191 67.8725 53.6191C66.7053 53.6191 65.6893 53.2707 64.826 52.5723C63.7344 51.6893 63.1886 50.4818 63.1886 48.95C63.1886 47.4181 63.7329 46.1986 64.826 45.3156L64.8245 45.3111Z" fill="#1E384B"/>
<path fill-rule="evenodd" clip-rule="evenodd" d="M103.073 47.0646C101.8 46.6921 101.036 46.4308 100.781 46.2776C100.212 45.9487 99.9283 45.5552 99.9283 45.0987C99.9283 44.6421 100.146 44.2622 100.577 43.9828C100.959 43.738 101.393 43.6164 101.877 43.6164C102.879 43.6164 103.874 43.9994 104.86 44.7653L106.665 41.2811C104.869 40.3469 103.034 39.8799 101.16 39.8799C99.2963 39.8799 97.804 40.4971 96.6867 41.7331C95.7297 42.7844 95.2504 44.1075 95.2504 45.7054C95.2504 47.3033 95.7131 48.3786 96.6383 49.1356C96.9619 49.3969 97.352 49.6236 97.8101 49.8174C98.0973 49.9435 98.8034 50.1703 99.9237 50.4992C100.849 50.762 101.507 51.0218 101.898 51.2771C102.424 51.6181 102.686 52.0431 102.686 52.5537C102.686 53.1154 102.449 53.5479 101.972 53.8543C101.566 54.1276 101.07 54.2627 100.483 54.2627C99.1829 54.2627 97.8539 53.653 96.4947 52.432L94.5625 56.0439C96.4191 57.349 98.4315 58.0008 100.601 58.0008C101.635 58.0008 102.601 57.8446 103.499 57.5322C106.074 56.6476 107.364 54.7478 107.364 51.8313C107.364 50.6944 107.07 49.7618 106.485 49.0379C105.805 48.1864 104.67 47.5286 103.073 47.0661V47.0646Z" fill="#1E384B"/>
<path fill-rule="evenodd" clip-rule="evenodd" d="M120 43.8331V39.9209H109.663V57.9592H120V54.0469H114.386V50.8226H119.695V46.9118H114.386V43.8331H120Z" fill="#1E384B"/>
<path fill-rule="evenodd" clip-rule="evenodd" d="M72.0993 8.50456C72.1054 8.49404 72.1054 8.48203 72.0993 8.47001C72.0948 8.458 72.0872 8.45049 72.0751 8.44599C48.3457 -0.707561 40.3009 6.56572 30.4871 24.182C30.4811 24.1925 30.4795 24.2045 30.4841 24.2165C30.4886 24.2285 30.4962 24.2375 30.5068 24.2421C42.345 29.4969 66.4312 19.8117 72.0978 8.50456H72.0993Z" fill="#1E384B"/>
<path fill-rule="evenodd" clip-rule="evenodd" d="M32.7873 34.6435C33.4601 27.995 44.565 31.266 48.7183 34.6435H56.9234C55.8741 32.1535 56.2929 31.5828 58.4232 30.853C63.3853 29.1559 77.5216 24.661 81.3059 25.5651C85.1749 26.4887 85.1552 29.3196 86.2513 34.6435H94.65C93.9651 30.4505 90.4076 21.1407 81.6642 18.4104C81.64 18.4029 81.6219 18.3864 81.6143 18.3624C81.4918 18.005 81.4903 17.1384 81.5765 16.5482C82.0392 13.3328 88.6961 12.7231 88.5509 6.84499C88.5509 6.82096 88.5464 6.80144 88.5388 6.77891C88.4935 6.65276 88.5101 6.5206 88.5857 6.40646C89.6894 4.49615 88.7792 -0.2721 85.8144 0.0132444C80.9128 0.238516 75.8751 3.4554 74.2982 8.15757C70.7649 17.9734 55.5339 26.4887 41.2706 27.6571C37.0131 28.2353 31.4719 27.4423 29.2978 25.6792C29.2812 25.6657 29.257 25.6657 29.2419 25.6807C27.1267 27.6256 25.2399 32.6296 25.3578 34.6435H32.7903H32.7873ZM79.9346 5.07886C79.9346 5.07886 80.9219 3.06343 82.2055 3.09346C83.4845 3.125 83.8988 3.73023 83.793 4.57725C83.6871 5.42427 81.8411 6.03101 80.7767 5.7802C79.5914 5.49786 79.9331 5.08036 79.9331 5.08036L79.9346 5.07886Z" fill="#1E384B"/>
<path fill-rule="evenodd" clip-rule="evenodd" d="M59.1502 32.7915C59.0338 32.8246 58.9506 32.9162 58.9295 33.0348C58.9113 33.155 58.9325 33.3277 59.061 33.3352C65.7285 33.7377 78.9305 32.2989 83.1048 31.2071C83.123 31.2026 83.1366 31.1891 83.1411 31.1696C83.3407 30.3631 82.8297 28.7997 81.921 28.1014C79.1754 25.9793 63.9263 31.485 59.1487 32.79L59.1502 32.7915Z" fill="#1E384B"/>
</g>
<defs>
<clipPath id="clip0_557_530">
<rect width="120" height="58" fill="white"/>
</clipPath>
</defs>
</svg>
