<svg width="153" height="24" viewBox="0 0 153 24" fill="none" xmlns="http://www.w3.org/2000/svg">
<g clip-path="url(#clip0_557_286)">
<path d="M5.81566 6.486C5.71072 6.03807 5.73695 5.55431 5.78943 5.31243C5.9381 4.59574 6.41035 3.79843 7.79211 3.79843C9.06893 3.79843 9.82103 4.61366 9.82103 5.83203V7.2206H15.2781V5.6439C15.2781 0.779396 10.9929 0 7.89706 0C4.01412 0 0.839554 1.31691 0.262361 4.98096C0.104944 5.98432 0.0787082 6.87122 0.306087 8C1.25059 12.5778 9.02521 13.9037 10.1534 16.8063C10.3632 17.3438 10.302 18.0336 10.1971 18.4636C10.0134 19.2161 9.52369 19.9776 8.06322 19.9776C6.69894 19.9776 5.87688 19.1624 5.87688 17.935V15.776H0V17.4871C0 22.495 3.83921 24 7.94953 24C12.0598 24 15.147 22.6204 15.6717 18.8667C15.934 16.9317 15.7416 15.6775 15.6454 15.2027C14.7184 10.4994 6.42784 9.11086 5.80692 6.486H5.81566ZM76.9504 6.53975C76.8542 6.10078 76.8804 5.62598 76.9329 5.3841C77.0903 4.66741 77.5626 3.88802 78.9181 3.88802C80.1774 3.88802 80.9208 4.69429 80.9208 5.9037V7.27436H86.3167V5.71557C86.3167 0.886898 82.0927 0.12542 79.0318 0.12542C75.1751 0.12542 72.0355 1.42441 71.4583 5.06159C71.3096 6.04703 71.2659 6.92497 71.5108 8.04479C72.4465 12.5778 80.1424 13.8858 81.2618 16.7525C81.463 17.299 81.4018 17.9888 81.3056 18.3919C81.1394 19.1355 80.6497 19.888 79.1979 19.888C77.8337 19.888 77.0203 19.0907 77.0203 17.8813V15.7312H71.2134V17.4423C71.2134 22.3964 75.0002 23.8925 79.0755 23.8925C83.1508 23.8925 86.2117 22.5218 86.7277 18.8219C86.9726 16.9048 86.7889 15.6596 86.6927 15.1937C85.7919 10.5442 77.5888 9.1467 76.9679 6.55767L76.9504 6.53975ZM126.615 18.7503L121.464 0.707727H113.349V22.8802H118.718L118.403 4.26428L123.939 22.8802H131.723V0.716685H126.318L126.615 18.7592V18.7503ZM23.4201 0.716685L19.371 23.1221H25.2828L28.335 2.38298L31.3171 23.1221H37.1853L33.1362 0.716685H23.4113H23.4201ZM56.46 0.716685L53.6965 18.2307L50.933 0.716685H42.0127L41.5404 23.1221H47.0063L47.155 2.38298L50.9155 23.1221H56.46L60.2205 2.38298L60.3692 23.1221H65.8525L65.3628 0.716685H56.4513H56.46ZM107.288 0.716685H101.752V17.29C101.752 17.5767 101.752 17.8992 101.7 18.1411C101.586 18.6965 101.123 19.7716 99.6009 19.7716C98.0792 19.7716 97.6244 18.6965 97.5195 18.1411C97.467 17.8992 97.4582 17.5767 97.467 17.29V0.716685H91.9399V16.7794C91.9399 17.1915 91.9662 18.0426 91.9924 18.2576C92.3772 22.4412 95.5955 23.8029 99.6183 23.8029C103.641 23.8029 106.868 22.4412 107.253 18.2576C107.288 18.0336 107.323 17.1915 107.297 16.7794V0.716685H107.288ZM145.269 10.5442V13.8141H147.508V17.0571C147.508 17.3438 147.508 17.6573 147.447 17.9082C147.359 18.5084 146.8 19.5386 145.208 19.5386C143.616 19.5386 143.074 18.5084 142.978 17.9082C142.934 17.6573 142.917 17.3438 142.917 17.0571V6.80851C142.917 6.45017 142.943 6.04703 143.013 5.7514C143.118 5.20493 143.59 4.1299 145.19 4.1299C146.861 4.1299 147.281 5.26764 147.377 5.7514C147.438 6.07391 147.447 6.61142 147.447 6.61142V7.85666H152.956V7.12206C152.956 7.12206 152.983 6.35162 152.913 5.63494C152.502 1.43337 149.117 0.0985442 145.243 0.0985442C141.369 0.0985442 138.045 1.44233 137.564 5.63494C137.521 6.02016 137.451 6.70997 137.451 7.12206V16.5375C137.451 16.9496 137.46 17.2632 137.538 18.0157C137.897 22.1008 141.36 23.5521 145.225 23.5521C149.091 23.5521 152.554 22.1008 152.913 18.0157C152.974 17.2632 152.983 16.9496 152.991 16.5375V10.5353H145.252L145.269 10.5442Z" fill="#005AAA"/>
</g>
<defs>
<clipPath id="clip0_557_286">
<rect width="153" height="24" fill="white"/>
</clipPath>
</defs>
</svg>
