<svg width="165" height="28" viewBox="0 0 165 28" fill="none" xmlns="http://www.w3.org/2000/svg">
<g clip-path="url(#clip0_557_456)">
<path d="M160.335 5.94413V2.29492H161.96C162.288 2.29492 162.538 2.32903 162.709 2.39236C162.88 2.4557 163.013 2.57263 163.115 2.73828C163.218 2.90394 163.267 3.08908 163.267 3.28883C163.267 3.54705 163.184 3.7663 163.013 3.94169C162.841 4.11709 162.582 4.23402 162.229 4.27787C162.362 4.34121 162.455 4.39967 162.523 4.45814C162.665 4.58481 162.797 4.75046 162.924 4.94535L163.566 5.93926H162.954L162.469 5.17921C162.327 4.95996 162.21 4.79431 162.122 4.67738C162.029 4.56045 161.945 4.47763 161.872 4.43378C161.799 4.38506 161.73 4.35582 161.652 4.33633C161.598 4.32659 161.51 4.31685 161.383 4.31685H160.82V5.93926H160.335V5.94413ZM160.82 3.90272H161.862C162.087 3.90272 162.259 3.87836 162.381 3.83451C162.508 3.79066 162.601 3.71271 162.665 3.61526C162.729 3.51295 162.763 3.40576 162.763 3.28883C162.763 3.11831 162.699 2.97214 162.572 2.86496C162.445 2.7529 162.249 2.69931 161.975 2.69931H160.815V3.90759L160.82 3.90272Z" fill="#0C2E82"/>
<path d="M158.548 4.07791C158.548 2.30446 159.992 0.867188 161.774 0.867188C163.556 0.867188 165 2.30446 165 4.07791C165 5.85135 163.556 7.28862 161.774 7.28862C159.992 7.28862 158.548 5.85135 158.548 4.07791ZM159.023 4.07791C159.023 5.58826 160.257 6.81116 161.774 6.81603C163.297 6.81603 164.525 5.58826 164.525 4.07791C164.525 2.56755 163.292 1.33978 161.774 1.33491C160.257 1.33491 159.023 2.56268 159.023 4.07791Z" fill="#0C2E82"/>
<path d="M116.293 27.7562H105.784V20.4578H91.0738V27.7562H80.5688V6.31896C80.5688 4.48705 81.2591 3.04003 82.6493 1.94868C84.0052 0.891433 85.9388 0.370117 88.4598 0.370117H108.456C110.977 0.370117 112.911 0.896305 114.262 1.94868C115.623 3.00106 116.298 4.46269 116.298 6.31896V27.7562H116.293ZM105.784 15.4201V7.48827H91.0738V15.4152H105.784V15.4201Z" fill="#0C2E82"/>
<path d="M153.971 1.73918C152.909 0.901177 151.274 0.452943 149.086 0.379861L149.125 0.370117H148.714C148.626 0.370117 148.543 0.370117 148.45 0.370117H129.736H129.129C126.613 0.370117 124.679 0.891433 123.318 1.95355C121.962 3.00106 121.277 4.42371 121.243 6.18741V6.25075C121.243 6.27998 121.243 6.2946 121.243 6.31896V27.7514H131.748V20.5991H148.739C153.355 20.5991 155.66 18.7623 155.66 15.0595V6.27998C155.66 4.17036 155.092 2.66001 153.967 1.73918H153.971ZM144.969 14.5869H131.606V7.48827H144.969V14.5869Z" fill="#0C2E82"/>
<path d="M67.3617 0.370117H65.7953V16.3019C65.7267 16.4676 65.575 16.5942 65.2568 16.5358C65.2568 16.5358 65.0512 16.4968 64.9044 16.3409C63.1323 13.6125 56.2987 4.2678 54.1155 1.29095C54.1106 1.2812 54.0959 1.27146 54.0861 1.26171H54.091C54.0568 1.22761 54.0225 1.19838 53.9833 1.16914C53.9687 1.14478 53.9491 1.12042 53.9344 1.11555C53.3763 0.613723 52.647 0.370117 51.6777 0.370117H43.1896C42.1225 0.370117 41.3001 0.672188 40.7273 1.26658C40.1497 1.86585 39.8609 2.67462 39.8511 3.67341L39.8364 3.68315V27.7562H49.7637C49.7637 27.7562 49.705 15.04 49.6805 11.2885C49.7246 11.04 49.9008 10.6795 50.6595 10.7769C50.6595 10.7769 50.9533 10.7964 51.0756 11.0157C52.9896 14.0607 65.5407 27.7562 65.5407 27.7562H75.8499V0.370117H67.3617Z" fill="#0C2E82"/>
<path d="M22.5567 21.4129C22.4001 21.3009 22.2435 21.1888 22.0868 21.0767H11.0875V6.62607H25.7337V18.8843C30.1344 20.2485 33.1596 22.0073 35.2155 23.6736C35.5631 22.7966 35.7442 21.7832 35.7442 20.6236V7.27406C35.7442 2.6894 33.0519 0.27771 27.6672 0.0243605V0H26.7861C26.7519 0 26.7225 0 26.6882 0H9.05598C3.02029 0 0 2.42631 0 7.27406V20.6236C0 25.4421 3.02029 27.8538 9.05598 27.8538H26.7176C27.6624 27.849 28.519 27.7808 29.3169 27.659C27.8435 25.5445 25.112 23.2497 22.5567 21.4129Z" fill="#0C2E82"/>
<path d="M19.145 18.0215C22.4395 20.1019 28.4409 24.2334 30.4234 27.9996H37.8983C36.6206 25.734 32.3031 20.2675 19.1401 18.0215H19.145Z" fill="#EE2D28"/>
</g>
<defs>
<clipPath id="clip0_557_456">
<rect width="165" height="28" fill="white"/>
</clipPath>
</defs>
</svg>
