<svg width="153" height="39" viewBox="0 0 153 39" fill="none" xmlns="http://www.w3.org/2000/svg">
<g clip-path="url(#clip0_557_545)">
<path d="M18.8492 38.5353H14.3955V36.5541C13.7056 37.3356 12.8811 37.9275 11.9201 38.3319C10.959 38.7341 9.91953 38.9352 8.80165 38.9352C7.58967 38.9352 6.44939 38.6816 5.38079 38.1743C4.31219 37.667 3.38025 36.97 2.58496 36.088C1.78967 35.2059 1.16016 34.1776 0.69643 33.0053C0.232699 31.8331 0.00195312 30.5694 0.00195312 29.2143C0.00195312 27.8593 0.232699 26.5842 0.69643 25.3868C1.16016 24.1894 1.80535 23.1497 2.63873 22.2676C3.46986 21.3855 4.46229 20.684 5.61377 20.163C6.76526 19.642 8.0422 19.3838 9.4446 19.3838C10.847 19.3838 12.0859 19.6443 13.2396 20.163C14.3911 20.684 15.3835 21.3855 16.2146 22.2676C17.0458 23.1497 17.6932 24.1894 18.1569 25.3868C18.6207 26.5842 18.8514 27.8593 18.8514 29.2143V38.5376L18.8492 38.5353ZM14.1446 29.2121C14.1446 28.4625 14.0192 27.7633 13.7683 27.1098C13.5174 26.4585 13.1791 25.8895 12.749 25.4073C12.3188 24.9252 11.8193 24.5436 11.248 24.2671C10.6745 23.9883 10.0674 23.8512 9.42444 23.8512C8.78149 23.8512 8.17214 23.9837 7.60088 24.2511C7.02961 24.5161 6.5278 24.8909 6.09991 25.3731C5.66978 25.8552 5.3315 26.4242 5.0806 27.0755C4.82969 27.7267 4.70647 28.4397 4.70647 29.2121C4.70647 29.9844 4.83193 30.654 5.0806 31.2938C5.3315 31.9336 5.66978 32.4889 6.09991 32.9596C6.53004 33.4304 7.02961 33.7983 7.60088 34.0656C8.17438 34.3307 8.78149 34.4632 9.42444 34.4632C10.0674 34.4632 10.6767 34.3238 11.248 34.0473C11.8193 33.7709 12.3211 33.3961 12.749 32.9254C13.1769 32.4546 13.5174 31.8993 13.7683 31.2595C14.0192 30.6197 14.1446 29.9364 14.1446 29.2121Z" fill="#2B2728"/>
<path d="M50.2529 38.5357H45.5506V27.5969C45.5506 27.3296 45.5148 26.9982 45.4431 26.5983C45.3714 26.1984 45.2168 25.8054 44.9794 25.4169C44.7419 25.0284 44.3969 24.7017 43.9466 24.4366C43.4941 24.1692 42.878 24.0367 42.0939 24.0367C41.0477 24.0367 40.192 24.3635 39.5289 25.017C38.8635 25.6706 38.5319 26.532 38.5319 27.5969V38.5357H33.8297V27.5969C33.8297 27.3296 33.7938 26.9982 33.7221 26.5983C33.6504 26.1984 33.5026 25.8054 33.2763 25.4169C33.0501 25.0284 32.7118 24.7017 32.2615 24.4366C31.809 24.1692 31.1929 24.0367 30.4088 24.0367C29.3402 24.0367 28.4777 24.3635 27.8258 25.017C27.1716 25.6706 26.8468 26.532 26.8468 27.5969V38.5357H22.1445V27.7043C22.1445 26.5183 22.3394 25.4146 22.7315 24.3978C23.1235 23.3809 23.6746 22.4965 24.3893 21.7447C25.1017 20.9929 25.9686 20.4057 26.9902 19.9829C28.0117 19.5602 29.152 19.3477 30.411 19.3477C31.6701 19.3477 32.7924 19.583 33.7781 20.056C34.7638 20.5291 35.5883 21.178 36.2536 22.0007C36.9414 21.178 37.7859 20.5291 38.7829 20.056C39.7798 19.583 40.8842 19.3477 42.0962 19.3477C43.3776 19.3477 44.5246 19.5533 45.535 19.9646C46.5453 20.376 47.3989 20.9518 48.1 21.6899C48.8012 22.4303 49.3344 23.3078 49.7041 24.3246C50.0715 25.3415 50.2552 26.4681 50.2552 27.7043V38.5357H50.2529Z" fill="#2B2728"/>
<path d="M71.5064 38.5353H67.0528V36.5541C66.3628 37.3356 65.5384 37.9275 64.5773 38.3319C63.6162 38.7341 62.5768 38.9352 61.4589 38.9352C60.2469 38.9352 59.1066 38.6816 58.038 38.1743C56.9694 37.667 56.0375 36.97 55.2422 36.088C54.4469 35.2059 53.8174 34.1776 53.3537 33.0053C52.8899 31.8331 52.6592 30.5694 52.6592 29.2143C52.6592 27.8593 52.8899 26.5842 53.3537 25.3868C53.8174 24.1894 54.4626 23.1497 55.296 22.2676C56.1271 21.3855 57.1195 20.684 58.271 20.163C59.4225 19.642 60.6994 19.3838 62.1018 19.3838C63.5042 19.3838 64.7431 19.6443 65.8968 20.163C67.0483 20.684 68.0407 21.3855 68.8719 22.2676C69.703 23.1497 70.3504 24.1894 70.8142 25.3868C71.2779 26.5842 71.5086 27.8593 71.5086 29.2143V38.5376L71.5064 38.5353ZM66.8019 29.2121C66.8019 28.4625 66.6764 27.7633 66.4255 27.1098C66.1746 26.4585 65.8363 25.8895 65.4062 25.4073C64.9761 24.9252 64.4765 24.5436 63.9052 24.2671C63.3317 23.9883 62.7246 23.8512 62.0817 23.8512C61.4387 23.8512 60.8294 23.9837 60.2581 24.2511C59.6868 24.5161 59.185 24.8909 58.7571 25.3731C58.3292 25.8552 57.9887 26.4242 57.7378 27.0755C57.4869 27.7267 57.3637 28.4397 57.3637 29.2121C57.3637 29.9844 57.4892 30.654 57.7378 31.2938C57.9887 31.9336 58.327 32.4889 58.7571 32.9596C59.1873 33.4304 59.6868 33.7983 60.2581 34.0656C60.8316 34.3307 61.4387 34.4632 62.0817 34.4632C62.7246 34.4632 63.334 34.3238 63.9052 34.0473C64.4765 33.7709 64.9783 33.3961 65.4062 32.9254C65.8341 32.4546 66.1746 31.8993 66.4255 31.2595C66.6764 30.6197 66.8019 29.9364 66.8019 29.2121Z" fill="#2B2728"/>
<path d="M90.0286 38.5357H73.9951V34.3928L83.6864 24.1441H74.3872V19.8184H89.7082V24.1075L80.1939 34.2123H90.0286V38.538V38.5357Z" fill="#2B2728"/>
<path d="M99.9081 19.8549H97.1235C97.1235 19.8549 97.1235 18.6255 97.1235 18.6232C97.1481 17.3184 97.4505 16.3861 98.033 15.8308C98.6155 15.2732 99.4869 15.031 100.652 15.1041V10.815C99.3211 10.6687 98.145 10.7738 97.1235 11.1235C96.1019 11.4754 95.2417 12.0146 94.5405 12.7413C93.8393 13.468 93.3106 14.3592 92.9544 15.4126C92.5982 16.466 92.4189 17.6109 92.4189 18.8471V38.5357H97.1212V24.4708H99.9059V19.8549H99.9081Z" fill="#2B2728"/>
<path d="M119.748 38.7026C118.394 38.8489 117.205 38.7621 116.183 38.449C115.162 38.1336 114.306 37.6264 113.618 36.9225C112.928 36.221 112.406 35.355 112.05 34.3244C111.694 33.2938 111.515 32.1375 111.515 30.8533V15.0586H116.219V19.8185H119.532V24.0711H116.219V30.8876C116.219 32.1946 116.51 33.1178 117.091 33.6503C117.673 34.1827 118.558 34.4135 119.745 34.3404V38.7026H119.748Z" fill="#2B2728"/>
<path d="M108.027 19.8184H103.222V38.5357H108.027V19.8184Z" fill="#2B2728"/>
<path d="M138.904 28.2276C139.043 26.6166 138.223 24.0595 134.677 24.3475C131.216 24.6285 130.768 28.5269 130.768 28.5269C130.232 34.6327 136.283 35.108 136.283 35.108C142.968 35.7753 146.243 30.371 146.243 30.371C150.742 23.3717 146.709 16.3747 146.709 16.3747C144.731 12.8419 140.907 11.087 140.907 11.087L142.413 6.59671C142.413 6.59671 151.887 9.86213 152.859 20.513C152.951 21.5185 154.111 29.1393 147.771 35.172C141.165 41.4607 128.94 39.9708 127.614 30.9149C127.614 30.9149 126.65 25.4443 131.24 22.4554C134.003 20.657 140.356 20.6936 141.55 26.5983C141.794 27.8094 141.599 29.8569 140.589 31.1068C139.07 32.9852 137.135 33.3485 135.578 33.3142C134.787 33.296 134.305 32.7795 134.303 32.0826C134.303 31.4542 134.742 30.8669 135.535 30.8555C135.535 30.8555 138.678 30.8257 138.904 28.2253V28.2276ZM127.562 5.42216C125.304 8.20543 124.114 12.4877 124.114 12.4877L138.889 17.4121L140.275 13.0659L129.813 9.61763C134.101 0.7811 143.315 3.52552 143.315 3.52552L144.149 0.913636C133.512 -2.66942 127.562 5.41988 127.562 5.41988V5.42216Z" fill="url(#paint0_linear_557_545)"/>
</g>
<defs>
<linearGradient id="paint0_linear_557_545" x1="125.904" y1="7.01488" x2="151.138" y2="31.7536" gradientUnits="userSpaceOnUse">
<stop stop-color="#FB181C"/>
<stop offset="0.32" stop-color="#CF246A"/>
<stop offset="0.65" stop-color="#A430B7"/>
<stop offset="0.88" stop-color="#8A38E7"/>
<stop offset="1" stop-color="#803BFA"/>
</linearGradient>
<clipPath id="clip0_557_545">
<rect width="153" height="39" fill="white"/>
</clipPath>
</defs>
</svg>
