<svg width="138" height="52" viewBox="0 0 138 52" fill="none" xmlns="http://www.w3.org/2000/svg">
<g clip-path="url(#clip0_557_516)">
<path fill-rule="evenodd" clip-rule="evenodd" d="M28.5813 33.1185C28.5813 31.4548 28.5932 29.7912 28.5813 28.1276C28.5813 27.7236 28.7001 27.6166 29.0921 27.6285C30.3276 27.6523 31.563 27.6642 32.7984 27.6285C35.6376 27.5691 37.954 26.4521 39.5814 24.0874C40.9238 22.1386 41.292 19.9402 40.9238 17.6111C40.603 15.5792 39.724 13.8561 38.0847 12.5846C36.2315 11.1587 34.1051 10.6834 31.8243 10.9923C29.009 11.3726 26.8351 12.7748 25.4096 15.2464C24.685 16.4941 24.3524 17.8488 24.3405 19.2748C24.3286 20.5106 24.3405 21.7464 24.3405 22.9823C24.3405 23.315 24.2455 23.4219 23.9128 23.4101C20.5629 23.4101 17.2249 23.4101 13.8868 23.4101C13.5542 23.4101 13.4592 23.315 13.4592 22.9704C13.4829 21.3543 13.4236 19.7382 13.4829 18.1221C13.6255 14.676 14.7065 11.5152 16.619 8.66325C19.0543 5.01517 22.3567 2.48409 26.4906 1.04625C29.5317 0.000546048 32.6915 -0.225231 35.9108 0.202557C39.5458 0.68976 42.7769 2.09195 45.5566 4.46855C47.8018 6.3936 49.4649 8.75832 50.534 11.5271C51.4012 13.7373 51.8407 16.0307 51.912 18.4192C52.0902 24.4201 49.9638 29.4466 45.616 33.5344C43.1927 35.804 40.3061 37.2775 37.0868 38.0618C35.4 38.4777 33.6775 38.5609 31.955 38.5728C31.0403 38.5728 30.1137 38.5728 29.1991 38.5728C28.7793 38.5728 28.5695 38.3708 28.5695 37.9667C28.5695 36.3506 28.5695 34.7346 28.5695 33.1185H28.5813Z" fill="#4BCAD5"/>
<path fill-rule="evenodd" clip-rule="evenodd" d="M24.6967 39.6181C24.6967 43.5632 24.6967 47.5203 24.6967 51.4654C24.6967 51.8695 24.6255 52.0121 24.1859 52.0002C21.43 51.9764 18.674 52.0002 15.9062 51.9883C14.3025 51.9883 13.0908 50.7643 13.0908 49.172C13.0908 45.9161 13.0908 42.672 13.0908 39.4161C13.0908 39.0002 13.0077 38.8576 12.5563 38.8576C9.28949 38.8813 6.02273 38.8576 2.75596 38.8576C1.1404 38.8576 -0.0118791 37.598 0.0118791 35.9938C0.0475166 33.225 0.0237583 30.4444 0 27.6757C0 27.2598 0.190066 27.2598 0.487045 27.2598C6.47413 27.2598 12.4731 27.2598 18.4602 27.2598C20.3608 27.2598 22.2615 27.2835 24.1622 27.2598C24.6373 27.2598 24.6967 27.4261 24.6967 27.8301C24.6849 31.7634 24.6967 35.6967 24.6967 39.63V39.6181Z" fill="#4BCAD5"/>
<path fill-rule="evenodd" clip-rule="evenodd" d="M69.3862 35.6614C69.3862 33.0946 69.3862 30.5279 69.3862 27.9612C69.3862 27.7354 69.3981 27.5334 69.5525 27.3433C72.0472 24.0992 77.5947 22.6138 81.3367 25.6796C83.7244 27.6284 84.639 31.122 83.558 34.1879C82.5602 36.9922 79.8399 38.8579 76.7275 38.8698C76.0029 38.8698 75.2664 38.8698 74.5418 38.8698C74.2686 38.8698 74.1498 38.8222 74.1616 38.5133C74.1854 37.8359 74.1854 37.1467 74.1616 36.4694C74.1616 36.1723 74.2329 36.0891 74.5299 36.101C75.3733 36.101 76.2167 36.1604 77.0483 36.0654C79.5191 35.7564 80.9209 33.5699 80.7664 31.229C80.6358 29.4109 79.8161 28.0325 78.0699 27.3314C76.4187 26.6659 74.2448 27.165 73.0213 28.4484C72.7718 28.7098 72.6411 28.995 72.653 29.3752C72.6649 34.2116 72.653 39.048 72.6768 43.8725C72.6768 44.2765 72.6055 44.431 72.166 44.3954C71.572 44.3478 70.9662 44.3954 70.3603 44.3954C69.6951 44.3954 69.4219 44.1102 69.4219 43.4328C69.4219 40.8542 69.4219 38.2637 69.4219 35.6851L69.3862 35.6614Z" fill="black"/>
<path fill-rule="evenodd" clip-rule="evenodd" d="M128.045 17.6466V30.6585C128.782 29.7911 129.435 29.0187 130.088 28.2463C131.134 27.0105 132.179 25.7746 133.225 24.5507C133.32 24.4318 133.403 24.2774 133.593 24.2774C134.793 24.2774 135.981 24.2774 137.287 24.2774C136.171 25.5488 135.137 26.7253 134.092 27.9136C133.225 28.8998 132.369 29.898 131.478 30.8724C131.229 31.1457 131.288 31.2764 131.502 31.5141C133.605 33.8669 135.684 36.2317 137.774 38.5964C137.834 38.6677 137.893 38.739 138.012 38.8697C136.681 38.8697 135.422 38.8697 134.163 38.8697C133.949 38.8697 133.89 38.6796 133.783 38.5488C131.965 36.3505 130.136 34.164 128.318 31.9657C128.259 31.8944 128.2 31.8231 128.081 31.6924C128.081 31.93 128.057 32.0964 128.057 32.2509C128.057 34.3066 128.057 36.3743 128.057 38.43C128.057 38.7984 127.962 38.8816 127.606 38.8697C126.988 38.8459 126.37 38.8697 125.753 38.8697C125.075 38.8697 124.802 38.5964 124.802 37.919C124.802 35.0434 124.802 32.1796 124.802 29.3039C124.802 26.1192 124.802 22.9346 124.802 19.7381C124.802 19.3578 124.921 19.1796 125.254 19.0251C126.18 18.5973 127.083 18.122 128.057 17.6348L128.045 17.6466Z" fill="black"/>
<path fill-rule="evenodd" clip-rule="evenodd" d="M108.088 32.6908C108.088 30.9678 108.088 29.2329 108.088 27.5099C108.088 27.3078 108.1 27.1177 108.243 26.9395C110.44 24.0281 115.691 22.4715 119.279 25.4303C120.953 26.8088 121.726 28.6387 121.761 30.7658C121.797 33.3325 121.761 35.8992 121.785 38.466C121.785 38.8225 121.666 38.8819 121.346 38.87C120.585 38.8462 119.825 38.8343 119.065 38.87C118.613 38.8938 118.566 38.7274 118.566 38.3353C118.578 35.8636 118.578 33.3919 118.566 30.9203C118.566 29.0071 117.461 27.4386 115.774 27.0108C114.171 26.6067 112.769 27.0345 111.581 28.1753C111.379 28.3654 111.32 28.5793 111.32 28.8526C111.32 32.0135 111.32 35.1625 111.343 38.3234C111.343 38.7987 111.201 38.9056 110.761 38.8819C110.191 38.8462 109.621 38.8819 109.051 38.8819C108.373 38.8819 108.1 38.6205 108.1 37.9431C108.1 36.1963 108.1 34.4495 108.1 32.7146L108.088 32.6908Z" fill="black"/>
<path fill-rule="evenodd" clip-rule="evenodd" d="M62.0924 19.833C62.0924 21.1758 62.1161 22.4591 62.0924 23.7425C62.0924 24.1941 62.2112 24.301 62.6388 24.2772C63.7198 24.2416 64.7889 24.2772 65.8699 24.2654C66.1907 24.2654 66.2619 24.3604 66.2619 24.6694C66.2382 25.3705 66.2382 26.0597 66.2619 26.7608C66.2738 27.0935 66.155 27.1529 65.8581 27.1529C64.7533 27.1411 63.6367 27.1529 62.5319 27.1411C62.223 27.1411 62.0924 27.2005 62.0924 27.5451C62.1042 29.7434 62.0924 31.9537 62.1042 34.152C62.1042 35.5423 62.6863 36.1008 64.0881 36.1008C65.0978 36.1008 66.1194 36.1127 67.1291 36.1008C67.4261 36.1008 67.4974 36.1721 67.4974 36.4692C67.4736 37.1703 67.4974 37.8595 67.4974 38.5606C67.4974 38.7151 67.5449 38.8815 67.2836 38.8815C65.6205 38.8339 63.9455 39.0241 62.2943 38.7983C60.0848 38.4893 58.8731 37.0634 58.8612 34.8412C58.8494 30.4921 58.8612 26.1548 58.8612 21.8056C58.8612 21.6511 58.8137 21.4847 59.0038 21.3897C60.0254 20.8906 61.0351 20.3796 62.1161 19.8449L62.0924 19.833Z" fill="black"/>
<path fill-rule="evenodd" clip-rule="evenodd" d="M98.3237 17.6582V18.2048C98.3237 24.8949 98.3237 31.5851 98.3356 38.2752C98.3356 38.7862 98.1931 38.9169 97.7179 38.8694C97.1833 38.8218 96.6369 38.8694 96.1023 38.8694C95.3658 38.8694 95.1045 38.6079 95.1045 37.8712C95.1045 32.4525 95.1045 27.022 95.1045 21.6034C95.1045 20.9379 95.1045 20.2725 95.1045 19.607C95.1045 19.405 95.1164 19.2624 95.3421 19.1555C96.328 18.6801 97.2903 18.1811 98.3356 17.6582H98.3237Z" fill="black"/>
<path fill-rule="evenodd" clip-rule="evenodd" d="M104.821 31.5974C104.821 33.879 104.821 36.1605 104.821 38.442C104.821 38.7629 104.75 38.8817 104.406 38.8698C103.752 38.8461 103.111 38.8698 102.458 38.8698C101.899 38.8698 101.59 38.5846 101.59 38.038C101.59 33.5581 101.59 29.0664 101.59 24.5865C101.59 24.3369 101.673 24.2656 101.911 24.2656C102.754 24.2775 103.586 24.2894 104.429 24.2656C104.75 24.2656 104.821 24.3607 104.821 24.6696C104.81 26.9868 104.821 29.2921 104.821 31.6093V31.5974Z" fill="black"/>
<path fill-rule="evenodd" clip-rule="evenodd" d="M86.3018 29.9102C88.2499 29.9102 90.115 29.9102 91.9919 29.9102C92.2176 29.9102 92.2532 30.0052 92.2532 30.1953C92.2532 31.0985 92.2532 32.0016 92.2532 32.9047C92.2532 33.1186 92.1701 33.1661 91.9681 33.1661C90.6852 33.1661 89.4022 33.1661 88.1193 33.1661C87.9648 33.1661 87.8579 33.1423 87.7867 32.9879C87.3115 31.9897 86.8244 31.0034 86.3018 29.922V29.9102Z" fill="black"/>
<path fill-rule="evenodd" clip-rule="evenodd" d="M103.218 20.8902C102.802 20.8902 102.386 20.8665 101.982 20.8902C101.626 20.9259 101.436 20.7714 101.27 20.4862C100.783 19.6188 101.008 18.478 101.816 17.8244C102.624 17.159 103.895 17.1827 104.667 17.872C105.451 18.5731 105.641 19.7019 105.119 20.5456C104.976 20.7714 104.822 20.914 104.513 20.8902C104.085 20.8546 103.657 20.8902 103.23 20.8902H103.218Z" fill="black"/>
</g>
<defs>
<clipPath id="clip0_557_516">
<rect width="138" height="52" fill="white"/>
</clipPath>
</defs>
</svg>
