<svg width="182" height="166" viewBox="0 0 182 166" fill="none" xmlns="http://www.w3.org/2000/svg">
<path d="M67.1762 76.3275C67.1762 75.6028 66.5535 75.0292 65.7785 75.0292C65.0035 75.0292 64.394 75.6028 64.394 76.3275C64.394 77.0521 65.0101 77.6258 65.7785 77.6258C66.5469 77.6258 67.1762 77.0581 67.1762 76.3275ZM64.5663 76.3275C64.5663 75.6813 65.0896 75.1801 65.7719 75.1801C66.4542 75.1801 66.9974 75.6813 66.9974 76.3275C66.9974 76.9736 66.4674 77.4748 65.7719 77.4748C65.0763 77.4748 64.5663 76.9796 64.5663 76.3275Z" fill="white"/>
<path d="M66.1692 77.0461H66.3613L66.05 76.4966C66.0168 76.4362 65.997 76.4181 65.997 76.4181C66.1559 76.3758 66.3017 76.2369 66.3017 76.0255C66.3017 75.778 66.1162 75.6089 65.8446 75.6089H65.3213V77.04H65.4935V76.4422H65.8314L66.1626 77.04L66.1692 77.0461ZM65.4935 76.3094V75.7538H65.8247C66.0036 75.7538 66.1228 75.8565 66.1228 76.0255C66.1228 76.1946 66.0036 76.3094 65.8247 76.3094H65.4935Z" fill="white"/>
<path d="M35.2605 75.0232H31.8159V90.5846H35.2605V75.0232Z" fill="white"/>
<path d="M36.2876 82.8069L43.773 90.5846H48.0058L40.6265 82.8069L47.9992 75.0232H43.773L36.2876 82.8069Z" fill="white"/>
<path d="M17.2231 75.0232V90.5846H29.4713V87.7223H20.6744V75.0232H17.2231Z" fill="white"/>
<path d="M56.0343 74.8058C51.0462 74.8058 47.2837 78.2538 47.2837 82.825C47.2837 87.3962 51.0462 90.802 56.0343 90.802C61.0223 90.802 64.8312 87.3721 64.8312 82.825C64.8312 78.278 61.0488 74.8058 56.0343 74.8058ZM56.0409 87.7404C52.9673 87.7404 50.6422 85.6269 50.6422 82.819C50.6422 80.011 52.9606 77.8673 56.0409 77.8673C59.1211 77.8673 61.4727 79.999 61.4727 82.819C61.4727 85.639 59.141 87.7404 56.0409 87.7404Z" fill="white"/>
<path d="M11.7846 81.1282H5.10742V84.0086H11.7846V81.1282Z" fill="white"/>
<path d="M14.0036 75.0232H0.0332031V90.5846H14.0036V87.7042H3.38505V77.9036H14.0036V75.0232Z" fill="white"/>
<path d="M120.236 0C109.823 0 99.787 2.34901 90.8774 6.77528C81.9679 2.34901 71.9389 0 61.5256 0C45.2499 0 29.9083 5.74268 18.3292 16.1592C6.75669 26.5758 0.264968 40.4645 0.0397452 55.2711L0 57.8314H64.2614L64.3011 55.3375C64.4999 41.8654 70.4087 29.2327 80.9345 19.7582C83.9817 17.0167 87.3203 14.6254 90.8774 12.6206C94.4346 14.6254 97.7732 17.0167 100.82 19.7582C111.068 28.9852 116.944 41.2072 117.427 54.2807L86.1345 82.807L117.427 111.333C116.944 124.407 111.068 136.629 100.82 145.856C97.7732 148.597 94.4346 150.989 90.8774 152.993C87.3203 150.989 83.9817 148.597 80.9345 145.856C70.4087 136.381 64.4999 123.748 64.3011 110.276L64.2614 107.783H0.0066242L0.0463694 110.343C0.264968 125.149 6.76331 139.044 18.3292 149.455C29.9083 159.877 45.2499 165.614 61.5256 165.614C71.9389 165.614 81.9745 163.265 90.8841 158.839C99.7936 163.265 109.823 165.614 120.243 165.614C154.145 165.614 181.728 140.469 181.728 109.564V56.044C181.722 25.1446 154.139 0 120.236 0ZM77.0395 16.1592C66.1228 25.984 59.7238 38.9065 58.8494 52.7771H5.69682C6.56459 40.2713 12.3674 28.6289 22.2242 19.7582C32.7567 10.2777 46.7139 5.05429 61.5256 5.05429C69.892 5.05429 77.9867 6.72093 85.3462 9.87911C82.4117 11.7269 79.6362 13.8283 77.0461 16.1592H77.0395ZM61.5256 160.566C46.7205 160.566 32.7633 155.342 22.2242 145.862C12.3674 136.991 6.55796 125.349 5.69682 112.843H58.8561C59.7304 126.713 66.1228 139.636 77.0461 149.461C79.6362 151.792 82.4117 153.887 85.3462 155.741C77.9867 158.899 69.892 160.566 61.5256 160.566ZM176.177 109.57C176.177 137.686 151.085 160.566 120.236 160.566C111.87 160.566 103.775 158.899 96.4153 155.741C99.3498 153.893 102.125 151.792 104.715 149.461C116.288 139.05 122.78 125.155 122.998 110.349L123.011 109.28L93.9709 82.807L123.011 56.3339L122.998 55.265C122.78 40.4584 116.281 26.5637 104.715 16.1532C102.125 13.8223 99.3498 11.7269 96.4153 9.87307C103.775 6.71489 111.87 5.04825 120.236 5.04825C151.078 5.04825 176.177 27.9224 176.177 56.044V109.564V109.57Z" fill="white"/>
</svg>
