<svg width="406" height="482" viewBox="0 0 406 482" fill="none" xmlns="http://www.w3.org/2000/svg">
<path d="M114.22 127L0 241.22L114.22 355.44L228.44 241.22L114.22 127ZM114.22 138.2L217.25 241.23L118.16 340.32V319.89L144.76 293.29L139.16 287.69L118.16 308.69V288.17L154.03 252.26L148.43 246.67L118.16 276.97V255.51L163.53 210.09L157.93 204.49L118.16 244.3V182.59H110.24V244.26L70.52 204.54L64.92 210.14L110.24 255.46V276.93L79.97 246.66L74.37 252.26L110.24 288.13V308.66L89.24 287.69L83.65 293.29L110.25 319.84V340.26L11.2 241.22L114.23 138.19L114.22 138.2Z" fill="white"/>
<path d="M291.54 0L177.32 114.22L291.54 228.44L405.76 114.22L291.54 0ZM291.54 11.2L394.57 114.23L295.48 213.32V192.89L322.08 166.29L316.48 160.69L295.48 181.69V161.17L331.35 125.26L325.75 119.67L295.48 149.97V128.51L340.85 83.09L335.25 77.49L295.48 117.3V55.59H287.56V117.26L247.84 77.54L242.24 83.14L287.56 128.46V149.93L257.29 119.66L251.69 125.26L287.56 161.13V181.66L266.56 160.69L260.97 166.29L287.57 192.84V213.26L188.53 114.22L291.56 11.19L291.54 11.2Z" fill="white"/>
<path d="M291.54 253L177.32 367.22L291.54 481.44L405.76 367.22L291.54 253ZM291.54 264.2L394.57 367.23L295.48 466.32V445.89L322.08 419.29L316.48 413.69L295.48 434.69V414.17L331.35 378.26L325.75 372.67L295.48 402.97V381.51L340.85 336.09L335.25 330.49L295.48 370.3V308.59H287.56V370.26L247.84 330.54L242.24 336.14L287.56 381.46V402.93L257.29 372.66L251.69 378.26L287.56 414.13V434.66L266.56 413.69L260.97 419.29L287.57 445.84V466.26L188.53 367.22L291.56 264.19L291.54 264.2Z" fill="white"/>
</svg>
