<svg width="183" height="48" viewBox="0 0 183 48" fill="none" xmlns="http://www.w3.org/2000/svg">
<g clip-path="url(#clip0_557_182)">
<path d="M183 4.57567C183 2.41118 181.313 0.684082 179.178 0.684082C177.044 0.684082 175.401 2.41118 175.401 4.57567C175.401 6.74016 177.089 8.46726 179.178 8.46726C181.268 8.46726 183 6.76259 183 4.57567ZM175.893 4.57567C175.893 2.63548 177.323 1.13268 179.178 1.13268C181.033 1.13268 182.508 2.63548 182.508 4.57567C182.508 6.51586 181.067 8.01866 179.178 8.01866C177.29 8.01866 175.893 6.52707 175.893 4.57567Z" fill="#465D71"/>
<path d="M180.24 6.72897H180.765L179.916 5.08037C179.815 4.90093 179.782 4.84485 179.782 4.84485V4.82242C180.218 4.71028 180.609 4.30654 180.609 3.66728C180.609 2.91588 180.095 2.42242 179.368 2.42242H177.949V6.71775H178.419V4.92336H179.346L180.251 6.71775L180.24 6.72897ZM178.407 4.51962V2.84859H179.312C179.804 2.84859 180.128 3.1514 180.128 3.66728C180.128 4.18317 179.804 4.51962 179.312 4.51962H178.407Z" fill="#465D71"/>
<path d="M96.0201 0.650452H86.6226V47.3495H96.0201V0.650452Z" fill="#465D71"/>
<path d="M98.8135 24L119.195 47.3495H130.738L110.625 24L130.727 0.650452H119.195L98.8135 24Z" fill="#8EC640"/>
<path d="M46.8535 0.650452V47.3495H80.2309V38.7589H56.251V0.650452H46.8535Z" fill="#465D71"/>
<path d="M152.617 0C139.018 0 128.771 10.3514 128.771 24.0673C128.771 37.7832 139.018 48 152.617 48C166.216 48 176.597 37.7047 176.597 24.0673C176.597 10.4299 166.283 0 152.617 0ZM152.64 38.815C144.259 38.815 137.934 32.4673 137.934 24.0561C137.934 15.6449 144.259 9.19626 152.64 9.19626C161.02 9.19626 167.445 15.5888 167.445 24.0561C167.445 32.5234 161.087 38.815 152.64 38.815Z" fill="#465D71"/>
<path d="M32.0139 18.9645H13.8223V27.6112H32.0139V18.9645Z" fill="#465D71"/>
<path d="M38.0817 0.650452H0V47.3495H38.0817V38.7028H9.1405V9.29718H38.0817V0.650452Z" fill="#465D71"/>
</g>
<defs>
<clipPath id="clip0_557_182">
<rect width="183" height="48" fill="white"/>
</clipPath>
</defs>
</svg>
