<svg width="429" height="113" viewBox="0 0 429 113" fill="none" xmlns="http://www.w3.org/2000/svg">
<path d="M429 10.772C429 5.67641 425.044 1.61052 420.041 1.61052C415.038 1.61052 411.187 5.67641 411.187 10.772C411.187 15.8675 415.143 19.9334 420.041 19.9334C424.94 19.9334 429 15.9203 429 10.772ZM412.34 10.772C412.34 6.20444 415.693 2.66659 420.041 2.66659C424.389 2.66659 427.847 6.20444 427.847 10.772C427.847 15.3395 424.468 18.8773 420.041 18.8773C415.614 18.8773 412.34 15.3659 412.34 10.772Z" fill="white"/>
<path d="M422.53 15.8411H423.761L421.77 11.96C421.534 11.5376 421.456 11.4056 421.456 11.4056V11.3528C422.477 11.0888 423.394 10.1383 423.394 8.63341C423.394 6.86449 422.189 5.7028 420.486 5.7028H417.16V15.8147H418.26V11.5904H420.434L422.556 15.8147L422.53 15.8411ZM418.234 10.64V6.70608H420.355C421.508 6.70608 422.268 7.41893 422.268 8.63341C422.268 9.8479 421.508 10.64 420.355 10.64H418.234Z" fill="white"/>
<path d="M225.096 1.53131H203.066V111.469H225.096V1.53131Z" fill="white"/>
<path d="M231.645 56.5L279.425 111.469H306.485L259.333 56.5L306.459 1.53131H279.425L231.645 56.5Z" fill="white"/>
<path d="M109.837 1.53131V111.469H188.082V91.2449H131.867V1.53131H109.837Z" fill="white"/>
<path d="M357.775 0C325.896 0 301.875 24.3689 301.875 56.6584C301.875 88.9479 325.896 113 357.775 113C389.655 113 413.99 88.7631 413.99 56.6584C413.99 24.5537 389.812 0 357.775 0ZM357.828 91.3769C338.181 91.3769 323.355 76.4334 323.355 56.632C323.355 36.8306 338.181 21.6495 357.828 21.6495C377.474 21.6495 392.536 36.6986 392.536 56.632C392.536 76.5654 377.631 91.3769 357.828 91.3769Z" fill="white"/>
<path d="M75.0492 44.6456H32.4033V65.0014H75.0492V44.6456Z" fill="white"/>
<path d="M89.2735 1.53131H0V111.469H89.2735V91.1128H21.4277V21.8872H89.2735V1.53131Z" fill="white"/>
</svg>
