<svg width="149" height="214" viewBox="0 0 149 214" fill="none" xmlns="http://www.w3.org/2000/svg">
<g clip-path="url(#clip0_557_37)">
<path d="M55.0336 68.3951C55.0336 67.7458 54.5238 67.2318 53.8893 67.2318C53.2548 67.2318 52.7559 67.7458 52.7559 68.3951C52.7559 69.0445 53.2602 69.5585 53.8893 69.5585C54.5184 69.5585 55.0336 69.0499 55.0336 68.3951ZM52.8969 68.3951C52.8969 67.8162 53.3253 67.3671 53.8839 67.3671C54.4424 67.3671 54.8871 67.8162 54.8871 68.3951C54.8871 68.9741 54.4533 69.4232 53.8839 69.4232C53.3144 69.4232 52.8969 68.9795 52.8969 68.3951Z" fill="white"/>
<path d="M54.2088 69.0391H54.3661L54.1112 68.5467C54.0841 68.4926 54.0678 68.4763 54.0678 68.4763C54.198 68.4385 54.3173 68.314 54.3173 68.1246C54.3173 67.9028 54.1654 67.7513 53.9431 67.7513H53.5146V69.0337H53.6557V68.498H53.9322L54.2034 69.0337L54.2088 69.0391ZM53.6557 68.3789V67.8811H53.9268C54.0732 67.8811 54.1708 67.9731 54.1708 68.1246C54.1708 68.2761 54.0732 68.3789 53.9268 68.3789H53.6557Z" fill="white"/>
<path d="M28.905 67.2264H26.085V81.1705H28.905V67.2264Z" fill="white"/>
<path d="M29.7451 74.2012L35.8732 81.1705H39.3386L33.2973 74.2012L39.3332 67.2264H35.8732L29.7451 74.2012Z" fill="white"/>
<path d="M14.1377 67.2264V81.1705H24.165V78.6057H16.9631V67.2264H14.1377Z" fill="white"/>
<path d="M45.912 67.0316C41.8284 67.0316 38.748 70.1213 38.748 74.2174C38.748 78.3135 41.8284 81.3653 45.912 81.3653C49.9956 81.3653 53.1139 78.2919 53.1139 74.2174C53.1139 70.1429 50.0173 67.0316 45.912 67.0316ZM45.9174 78.622C43.4011 78.622 41.4976 76.7281 41.4976 74.212C41.4976 71.6959 43.3957 69.775 45.9174 69.775C48.4391 69.775 50.3644 71.6851 50.3644 74.212C50.3644 76.7389 48.4554 78.622 45.9174 78.622Z" fill="white"/>
<path d="M9.68525 72.6969H4.21875V75.278H9.68525V72.6969Z" fill="white"/>
<path d="M11.5018 67.2264H0.0644531V81.1705H11.5018V78.5895H2.80855V69.8074H11.5018V67.2264Z" fill="white"/>
<path d="M98.473 0C89.9479 0 81.7318 2.10488 74.4378 6.07115C67.1437 2.10488 58.9331 0 50.4079 0C37.0834 0 24.5234 5.14587 15.0438 14.4799C5.56966 23.8139 0.25501 36.2592 0.0706246 49.527L0.0380859 51.8212H52.6477L52.6802 49.5865C52.8429 37.5145 57.6803 26.1947 66.2977 17.7048C68.7923 15.2482 71.5255 13.1055 74.4378 11.309C77.35 13.1055 80.0832 15.2482 82.5779 17.7048C90.9674 25.9728 95.7777 36.9247 96.1736 48.6396L70.5548 74.2012L96.1736 99.7628C95.7777 111.478 90.9674 122.429 82.5779 130.698C80.0832 133.154 77.35 135.297 74.4378 137.093C71.5255 135.297 68.7923 133.154 66.2977 130.698C57.6803 122.208 52.8429 110.888 52.6802 98.8158L52.6477 96.5811H0.043509L0.0760477 98.8754C0.25501 112.143 5.57508 124.594 15.0438 133.922C24.5234 143.262 37.0834 148.402 50.4079 148.402C58.9331 148.402 67.1491 146.297 74.4432 142.331C81.7373 146.297 89.9479 148.402 98.4784 148.402C126.234 148.402 148.816 125.871 148.816 98.1774V50.2196C148.81 22.5314 126.228 0 98.473 0ZM63.1089 14.4799C54.1716 23.2836 48.9329 34.8631 48.217 47.2922H4.70196C5.41239 36.086 10.163 25.6536 18.2326 17.7048C26.8554 9.20954 38.2819 4.52901 50.4079 4.52901C57.2573 4.52901 63.8844 6.02245 69.9095 8.85241C67.507 10.5082 65.2347 12.3912 63.1143 14.4799H63.1089ZM50.4079 143.879C38.2873 143.879 26.8608 139.198 18.2326 130.703C10.163 122.754 5.40697 112.322 4.70196 101.116H48.2224C48.9383 113.545 54.1716 125.124 63.1143 133.928C65.2347 136.017 67.507 137.894 69.9095 139.555C63.8844 142.385 57.2573 143.879 50.4079 143.879ZM144.271 98.1828C144.271 123.376 123.728 143.879 98.473 143.879C91.6236 143.879 84.9966 142.385 78.9715 139.555C81.3739 137.9 83.6462 136.017 85.7666 133.928C95.2408 124.599 100.555 112.149 100.734 98.8808L100.745 97.923L76.9703 74.2012L100.745 50.4793L100.734 49.5216C100.555 36.2538 95.2354 23.803 85.7666 14.4744C83.6462 12.3858 81.3739 10.5082 78.9715 8.847C84.9966 6.01704 91.6236 4.5236 98.473 4.5236C123.723 4.5236 144.271 25.0205 144.271 50.2196V98.1774V98.1828Z" fill="white"/>
<path d="M9.31129 179.137H6.89258V167.395H12.3374C13.5901 167.395 14.5771 167.72 15.2984 168.369C16.0251 169.007 16.3939 169.841 16.3939 170.869C16.3939 171.653 16.1769 172.33 15.7485 172.909C15.3147 173.482 14.7181 173.888 13.9589 174.126L17.5924 179.142H14.7832L11.3558 174.397H9.32213V179.142L9.31129 179.137ZM9.31129 169.511V172.362H12.2018C12.7495 172.362 13.178 172.238 13.4871 171.994C13.7962 171.751 13.948 171.394 13.948 170.939C13.948 170.485 13.7962 170.144 13.4871 169.889C13.178 169.635 12.7495 169.511 12.2018 169.511H9.31129Z" fill="white"/>
<path d="M27.9939 179.137H19.165V167.395H27.8041V169.559H21.5837V171.827H26.5947V173.959H21.5837V176.978H27.9884V179.142L27.9939 179.137Z" fill="white"/>
<path d="M38.3144 179.137H29.9248V167.395H32.3435V176.972H38.3144V179.137Z" fill="white"/>
<path d="M41.5732 179.137H39.0352L44.0786 167.33H46.3997L51.4432 179.137H48.8727L47.7121 176.421H42.7337L41.5732 179.137ZM45.2229 170.349L43.493 174.424H46.9421L45.2283 170.349H45.2229Z" fill="white"/>
<path d="M50.5381 169.559V167.395H60.4081V169.559H56.677V179.137H54.2583V169.559H50.5435H50.5381Z" fill="white"/>
<path d="M64.6925 179.137H62.29V167.395H64.6925V179.137Z" fill="white"/>
<path d="M66.959 173.266C66.959 171.545 67.5338 170.1 68.689 168.937C69.8441 167.752 71.3029 167.157 73.06 167.157C74.8171 167.157 76.2596 167.752 77.4147 168.937C78.5807 170.122 79.161 171.567 79.161 173.266C79.161 174.965 78.5753 176.399 77.4147 177.595C76.2596 178.78 74.8117 179.375 73.06 179.375C71.3083 179.375 69.8441 178.785 68.689 177.595C67.5338 176.41 66.959 174.965 66.959 173.266ZM70.4569 176.015C71.151 176.74 72.0187 177.102 73.0654 177.102C74.1121 177.102 74.9581 176.74 75.6522 176.015C76.3464 175.29 76.6935 174.37 76.6935 173.266C76.6935 172.162 76.3464 171.242 75.6522 170.517C74.9581 169.792 74.0958 169.424 73.0654 169.424C72.035 169.424 71.1565 169.787 70.4569 170.517C69.7736 171.231 69.4319 172.151 69.4319 173.266C69.4319 174.381 69.7736 175.3 70.4569 176.015Z" fill="white"/>
<path d="M83.7215 179.137H81.3516V167.395H83.4178L89.3507 174.911V167.395H91.7043V179.137H89.7032L83.716 171.589V179.137H83.7215Z" fill="white"/>
<path d="M98.2123 179.37C96.439 179.37 94.9531 178.953 93.7383 178.114V175.598C94.2318 176.026 94.8826 176.393 95.6906 176.707C96.5095 177.01 97.3175 177.162 98.1093 177.162C98.7709 177.162 99.3132 177.043 99.7417 176.799C100.17 176.561 100.382 176.226 100.382 175.804C100.382 175.344 100.181 175.019 99.7742 174.83C99.6061 174.727 99.3837 174.63 99.1017 174.527L98.7004 174.391L97.7568 174.105L96.8837 173.818C96.7589 173.785 96.4986 173.688 96.0919 173.531C95.7448 173.396 95.4899 173.277 95.3381 173.179C94.7524 172.779 94.3836 172.438 94.2264 172.157C93.9552 171.621 93.825 171.074 93.825 170.512C93.825 169.473 94.2209 168.656 95.0181 168.061C95.8153 167.455 96.8945 167.157 98.2612 167.157C99.6278 167.157 100.924 167.482 102.112 168.131V170.479C100.913 169.743 99.6386 169.37 98.2937 169.37C96.9488 169.37 96.2926 169.754 96.2926 170.528C96.2926 170.863 96.4986 171.134 96.9162 171.334C97.1603 171.469 97.4802 171.583 97.8761 171.686C98.4022 171.832 98.8306 171.956 99.156 172.054C100.132 172.357 100.984 172.763 101.71 173.277C102.497 173.823 102.887 174.64 102.887 175.728C102.887 176.816 102.442 177.746 101.558 178.396C100.674 179.045 99.5573 179.37 98.2123 179.37Z" fill="white"/>
<path d="M107.306 179.137H104.888V167.395H107.306V171.789H112.621V167.395H115.023V179.137H112.621V173.986H107.306V179.137Z" fill="white"/>
<path d="M120.121 179.137H117.719V167.395H120.121V179.137Z" fill="white"/>
<path d="M125.214 179.137H122.795V167.395H127.941C129.205 167.395 130.203 167.725 130.935 168.385C131.673 169.035 132.047 169.884 132.047 170.934C132.047 171.984 131.678 172.849 130.935 173.499C130.208 174.159 129.21 174.489 127.941 174.489H125.219V179.137H125.214ZM125.214 169.511V172.427H127.768C128.348 172.427 128.804 172.303 129.129 172.048C129.455 171.8 129.617 171.437 129.617 170.966C129.617 170.495 129.455 170.133 129.129 169.884C128.804 169.635 128.348 169.505 127.768 169.505H125.214V169.511Z" fill="white"/>
<path d="M137.774 179.37C136.001 179.37 134.515 178.953 133.3 178.114V175.598C133.793 176.026 134.444 176.393 135.252 176.707C136.071 177.01 136.879 177.162 137.671 177.162C138.332 177.162 138.875 177.043 139.303 176.799C139.732 176.561 139.943 176.226 139.943 175.804C139.943 175.344 139.742 175.019 139.336 174.83C139.168 174.727 138.945 174.63 138.663 174.527L138.262 174.391L137.318 174.105L136.445 173.818C136.32 173.785 136.06 173.688 135.653 173.531C135.306 173.396 135.051 173.277 134.9 173.179C134.314 172.779 133.945 172.438 133.788 172.157C133.517 171.621 133.387 171.074 133.387 170.512C133.387 169.473 133.782 168.656 134.58 168.061C135.377 167.455 136.456 167.157 137.823 167.157C139.189 167.157 140.485 167.482 141.673 168.131V170.479C140.475 169.743 139.2 169.37 137.855 169.37C136.51 169.37 135.854 169.754 135.854 170.528C135.854 170.863 136.06 171.134 136.478 171.334C136.722 171.469 137.042 171.583 137.438 171.686C137.964 171.832 138.392 171.956 138.717 172.054C139.694 172.357 140.545 172.763 141.272 173.277C142.058 173.823 142.449 174.64 142.449 175.728C142.449 176.816 142.004 177.746 141.12 178.396C140.236 179.045 139.119 179.37 137.774 179.37Z" fill="white"/>
<path d="M37.7333 196.452H35.1953L40.2388 184.645H42.5599L47.6034 196.452H45.0328L43.8723 193.736H38.8939L37.7333 196.452ZM41.3831 187.665L39.6531 191.739H43.1022L41.3885 187.665H41.3831Z" fill="white"/>
<path d="M51.5847 196.452H49.166V184.71H54.6108C55.8636 184.71 56.8506 185.035 57.5718 185.684C58.2985 186.323 58.6673 187.156 58.6673 188.184C58.6673 188.969 58.4504 189.645 58.022 190.224C57.5881 190.798 56.9916 191.203 56.2323 191.442L59.8658 196.458H57.0566L53.6292 191.712H51.5956V196.458L51.5847 196.452ZM51.5847 186.826V189.678H54.4752C55.023 189.678 55.4514 189.553 55.7605 189.31C56.0696 189.066 56.2215 188.709 56.2215 188.254C56.2215 187.8 56.0696 187.459 55.7605 187.205C55.4514 186.95 55.023 186.826 54.4752 186.826H51.5847Z" fill="white"/>
<path d="M70.2673 196.452H61.4385V184.71H70.0775V186.875H63.8572V189.142H68.8681V191.274H63.8572V194.293H70.2619V196.458L70.2673 196.452Z" fill="white"/>
<path d="M76.0967 190.581C76.0967 188.86 76.6715 187.416 77.8266 186.252C78.9818 185.067 80.4406 184.472 82.1977 184.472C83.9548 184.472 85.3973 185.067 86.5524 186.252C87.7184 187.437 88.2987 188.882 88.2987 190.581C88.2987 192.28 87.713 193.714 86.5524 194.91C85.3973 196.095 83.9493 196.69 82.1977 196.69C80.446 196.69 78.9818 196.1 77.8266 194.91C76.6715 193.725 76.0967 192.28 76.0967 190.581ZM79.5946 193.33C80.2887 194.055 81.1564 194.418 82.2031 194.418C83.2498 194.418 84.0958 194.055 84.7899 193.33C85.4841 192.605 85.8312 191.685 85.8312 190.581C85.8312 189.477 85.4841 188.557 84.7899 187.832C84.0958 187.107 83.2335 186.739 82.2031 186.739C81.1727 186.739 80.2942 187.102 79.5946 187.832C78.9113 188.547 78.5696 189.466 78.5696 190.581C78.5696 191.696 78.9113 192.616 79.5946 193.33Z" fill="white"/>
<path d="M95.3651 196.685C93.8955 196.685 92.6915 196.23 91.7479 195.327C90.8043 194.423 90.3379 193.151 90.3379 191.517V184.705H92.7403V191.598C92.7403 192.502 92.9789 193.2 93.4562 193.687C93.9334 194.174 94.5679 194.418 95.3651 194.418C96.1623 194.418 96.8131 194.174 97.2903 193.687C97.7675 193.2 98.0062 192.502 98.0062 191.598V184.705H100.425V191.517C100.425 193.151 99.9476 194.418 98.9986 195.327C98.055 196.23 96.8456 196.685 95.3651 196.685Z" fill="white"/>
<path d="M105.267 196.452H102.849V184.71H108.293C109.546 184.71 110.533 185.035 111.254 185.684C111.981 186.323 112.35 187.156 112.35 188.184C112.35 188.969 112.133 189.645 111.705 190.224C111.271 190.798 110.674 191.203 109.915 191.442L113.548 196.458H110.739L107.312 191.712H105.278V196.458L105.267 196.452ZM105.267 186.826V189.678H108.158C108.706 189.678 109.134 189.553 109.443 189.31C109.752 189.066 109.904 188.709 109.904 188.254C109.904 187.8 109.752 187.459 109.443 187.205C109.134 186.95 108.706 186.826 108.158 186.826H105.267Z" fill="white"/>
<path d="M6.26868 214C4.47363 214 2.98228 213.432 1.79461 212.29C0.596106 211.127 -0.00585938 209.66 -0.00585938 207.896C-0.00585938 206.132 0.596106 204.644 1.79461 203.503C2.98228 202.361 4.50075 201.793 6.35003 201.793C7.70581 201.793 8.88262 202.09 9.88047 202.68V205.061C8.79585 204.39 7.67327 204.055 6.51814 204.055C5.36302 204.055 4.34348 204.412 3.59509 205.126C2.8467 205.829 2.46708 206.771 2.46708 207.945C2.46708 209.119 2.83043 210.034 3.55713 210.732C4.28382 211.424 5.18948 211.771 6.26326 211.771C7.33703 211.771 8.08542 211.516 8.63316 210.997V206.955H11.0519V212.139C10.5475 212.674 9.87505 213.118 9.03447 213.464C8.16135 213.821 7.23399 214 6.25783 214H6.26868Z" fill="white"/>
<path d="M15.7214 213.767H13.3027V202.025H18.7475C20.0003 202.025 20.9873 202.35 21.7086 202.999C22.4353 203.638 22.804 204.471 22.804 205.499C22.804 206.284 22.5871 206.96 22.1587 207.539C21.7248 208.113 21.1283 208.519 20.369 208.757L24.0025 213.773H21.1934L17.766 209.027H15.7323V213.773L15.7214 213.767ZM15.7214 204.141V206.993H18.612C19.1597 206.993 19.5881 206.868 19.8972 206.625C20.2064 206.381 20.3582 206.024 20.3582 205.57C20.3582 205.115 20.2064 204.774 19.8972 204.52C19.5881 204.266 19.1597 204.141 18.612 204.141H15.7214Z" fill="white"/>
<path d="M34.3982 213.767H25.5693V202.025H34.2084V204.19H27.988V206.457H32.999V208.589H27.988V211.608H34.3927V213.773L34.3982 213.767Z" fill="white"/>
<path d="M37.8417 213.767H35.3037L40.3472 201.961H42.6683L47.7118 213.767H45.1412L43.9807 211.051H39.0023L37.8417 213.767ZM41.4915 204.98L39.7615 209.054H43.2106L41.4969 204.98H41.4915Z" fill="white"/>
<path d="M46.8008 204.19V202.025H56.6708V204.19H52.9397V213.767H50.521V204.19H46.8062H46.8008Z" fill="white"/>
<path d="M67.2946 213.767H58.4658V202.025H67.1048V204.19H60.8845V206.457H65.8955V208.589H60.8845V211.608H67.2892V213.773L67.2946 213.767Z" fill="white"/>
<path d="M73.1303 214C71.357 214 69.871 213.583 68.6562 212.745V210.229C69.1498 210.656 69.8005 211.024 70.6086 211.338C71.4275 211.641 72.2355 211.792 73.0273 211.792C73.6889 211.792 74.2312 211.673 74.6596 211.43C75.0881 211.192 75.2996 210.856 75.2996 210.434C75.2996 209.974 75.0989 209.65 74.6922 209.46C74.5241 209.357 74.3017 209.26 74.0197 209.157L73.6184 209.022L72.6748 208.735L71.8017 208.448C71.6769 208.416 71.4166 208.318 71.0099 208.162C70.6628 208.026 70.4079 207.907 70.2561 207.81C69.6704 207.409 69.3016 207.068 69.1443 206.787C68.8732 206.251 68.743 205.705 68.743 205.142C68.743 204.103 69.1389 203.286 69.9361 202.691C70.7333 202.085 71.8125 201.787 73.1791 201.787C74.5458 201.787 75.8419 202.112 77.0295 202.761V205.11C75.831 204.374 74.5566 204 73.2117 204C71.8667 204 71.2105 204.385 71.2105 205.158C71.2105 205.494 71.4166 205.764 71.8342 205.965C72.0782 206.1 72.3982 206.214 72.7941 206.316C73.3201 206.462 73.7486 206.587 74.0739 206.684C75.0501 206.987 75.9015 207.393 76.6282 207.907C77.4146 208.454 77.805 209.271 77.805 210.358C77.805 211.446 77.3603 212.377 76.4764 213.026C75.5924 213.675 74.4753 214 73.1303 214Z" fill="white"/>
<path d="M78.6777 204.19V202.025H88.5478V204.19H84.8167V213.767H82.398V204.19H78.6832H78.6777Z" fill="white"/>
<path d="M100.045 213.832H97.7569L92.8164 202.025H95.49L98.9174 210.477L102.367 202.025H104.991L100.051 213.832H100.045Z" fill="white"/>
<path d="M106.249 213.767H103.711L108.754 201.961H111.076L116.119 213.767H113.548L112.388 211.051H107.409L106.249 213.767ZM109.899 204.98L108.169 209.054H111.618L109.904 204.98H109.899Z" fill="white"/>
<path d="M126.071 213.767H117.682V202.025H120.1V211.603H126.071V213.767Z" fill="white"/>
<path d="M132.692 214C131.223 214 130.019 213.545 129.075 212.642C128.131 211.738 127.665 210.467 127.665 208.832V202.02H130.067V208.914C130.067 209.817 130.306 210.515 130.783 211.002C131.261 211.489 131.895 211.733 132.692 211.733C133.489 211.733 134.14 211.489 134.617 211.002C135.095 210.515 135.333 209.817 135.333 208.914V202.02H137.752V208.832C137.752 210.467 137.275 211.733 136.326 212.642C135.382 213.545 134.173 214 132.692 214Z" fill="white"/>
<path d="M149 213.767H140.171V202.025H148.81V204.19H142.59V206.457H147.601V208.589H142.59V211.608H148.994V213.773L149 213.767Z" fill="white"/>
</g>
<defs>
<clipPath id="clip0_557_37">
<rect width="149" height="214" fill="white"/>
</clipPath>
</defs>
</svg>
