<svg width="229" height="229" viewBox="0 0 229 229" fill="none" xmlns="http://www.w3.org/2000/svg">
<path d="M114.22 0.0700073L0 114.29L114.22 228.51L228.44 114.29L114.22 0.0700073ZM114.22 11.27L217.25 114.3L118.16 213.39V192.96L144.76 166.36L139.16 160.76L118.16 181.76V161.24L154.03 125.33L148.43 119.74L118.16 150.04V128.58L163.53 83.16L157.93 77.56L118.16 117.37V55.66H110.24V117.33L70.52 77.61L64.92 83.21L110.24 128.53V150L79.97 119.73L74.37 125.33L110.24 161.2V181.73L89.24 160.76L83.65 166.36L110.25 192.91V213.33L11.2 114.29L114.23 11.26L114.22 11.27Z" fill="white"/>
</svg>
