<svg width="174" height="22" viewBox="0 0 174 22" fill="none" xmlns="http://www.w3.org/2000/svg">
<g clip-path="url(#clip0_557_276)">
<path d="M67.9351 2.0612V1.36892L67.633 1.1684H55.5932L55.3926 1.36654V2.0612L55.5932 2.25933H60.7092L60.9098 2.45747V16.9284L61.1104 17.1265H62.0142L62.2148 16.9284V2.55773L62.4154 2.3572H67.6354L67.9351 2.0612ZM70.6466 5.53212C67.4348 5.53212 65.5232 7.80946 65.5232 11.0799V11.5788C65.5232 14.7513 67.1303 17.5228 70.8447 17.5228C74.0565 17.5228 75.26 15.4412 75.4606 14.0543L75.2624 13.8585H74.3562L74.158 14.0543C73.6553 15.4412 72.7491 16.334 70.9438 16.334C67.9327 16.334 67.0288 13.5577 67.0288 12.1708L67.2342 11.975H75.5597L75.7627 11.7745V11.0799C75.7627 7.80946 73.9574 5.53212 70.6466 5.53212ZM70.6466 6.72092C72.0507 6.72092 72.9762 7.29145 73.5538 8.05773C74.1314 8.82639 74.3562 9.79319 74.3562 10.5857L74.158 10.7862H67.1352L66.9322 10.5857C66.9322 9.79319 67.1569 8.82639 67.7345 8.05773C68.3097 7.29145 69.2401 6.72092 70.6466 6.72092ZM78.0706 11.4785C78.0706 8.3036 79.6752 6.62066 81.9856 6.62066C84.2911 6.62066 85.1949 8.0076 85.4946 9.39692L85.6952 9.59505H86.7005L86.9011 9.39692C86.7005 7.11719 84.7937 5.52973 81.9832 5.52973C78.972 5.52973 76.6665 7.41558 76.6665 11.4785C76.6665 15.6417 78.972 17.4249 81.9832 17.4249C84.7937 17.4249 86.599 15.8398 86.9011 13.5577L86.7005 13.362H85.7967L85.5961 13.5601C85.3955 14.9447 84.3926 16.334 82.0847 16.334C79.7767 16.334 78.0706 14.7489 78.0706 11.4785ZM98.1386 17.0286V10.0892C98.1386 7.11719 96.5339 5.52973 93.9239 5.52973C92.3192 5.52973 90.9152 6.222 90.2119 7.41558H90.0113V1.46441L89.7092 1.16602H88.8078L88.6072 1.36415V17.0239L88.8078 17.2244H89.7092L89.9098 17.0263V10.7815C89.9098 8.20334 91.1157 6.61827 93.6242 6.61827C95.531 6.61827 96.633 7.80707 96.633 10.0868V17.0263L96.8336 17.2244H97.7374L98.1386 17.0286ZM109.98 17.0286V10.0892C109.98 7.11719 108.376 5.52973 105.766 5.52973C104.161 5.52973 102.754 6.222 102.054 7.41558H101.853L101.652 6.02626L101.452 5.82812H100.749L100.548 6.02626V17.0286L100.749 17.2268H101.652L101.853 17.0286V10.7815C101.853 8.20334 103.056 6.61827 105.565 6.61827C107.472 6.61827 108.576 7.80707 108.576 10.0868V17.0263L108.777 17.2244H109.78L109.98 17.0286ZM116.703 5.62999C113.695 5.62999 111.387 7.71398 111.387 11.5788C111.387 15.446 113.695 17.5228 116.703 17.5228C119.712 17.5228 122.025 15.446 122.025 11.5788C122.025 7.71159 119.715 5.62999 116.703 5.62999ZM116.703 6.72092C117.859 6.72092 118.837 7.19358 119.526 8.03385C120.217 8.87891 120.616 10.0916 120.616 11.5788C120.616 13.066 120.217 14.2786 119.528 15.1213C118.837 15.964 117.859 16.4342 116.703 16.4342C116.163 16.4438 115.627 16.3304 115.137 16.1027C114.648 15.875 114.218 15.5393 113.881 15.1213C113.192 14.281 112.793 13.066 112.793 11.5788C112.793 10.0414 113.192 8.82878 113.881 7.99805C114.572 7.16732 115.548 6.72092 116.703 6.72092ZM125.133 17.0286V1.36892L124.831 1.1684H123.929L123.726 1.36654V17.0286L123.929 17.2268H124.831L125.133 17.0286ZM132.059 5.62999C129.048 5.62999 126.74 7.71398 126.74 11.5788C126.74 15.446 129.048 17.5228 132.056 17.5228C135.065 17.5228 137.373 15.446 137.373 11.5788C137.373 7.71159 135.07 5.62999 132.059 5.62999ZM132.059 6.72092C133.212 6.72092 134.186 7.19358 134.877 8.03385C135.565 8.87891 135.971 10.0916 135.971 11.5788C135.971 13.066 135.565 14.2786 134.877 15.1213C134.541 15.5393 134.112 15.8752 133.623 16.1029C133.134 16.3306 132.599 16.444 132.059 16.4342C131.518 16.4438 130.982 16.3304 130.493 16.1027C130.003 15.875 129.573 15.5393 129.236 15.1213C128.543 14.2786 128.137 13.066 128.137 11.5788C128.137 10.0414 128.54 8.82878 129.231 7.99805C129.92 7.16732 130.899 6.72092 132.054 6.72092H132.059ZM143.495 5.53212C140.283 5.53212 138.577 8.10547 138.577 11.4761C138.577 14.9447 140.184 17.4249 143.495 17.4249C145.602 17.4249 146.709 16.5321 147.209 15.5414V15.6393C147.209 18.6137 146.508 20.8934 143.698 20.8934C141.59 20.8934 140.887 20.0054 140.686 18.8166L140.483 18.6137H139.582L139.379 18.8142C139.58 20.7001 140.988 21.9844 143.797 21.9844C146.808 21.9844 148.715 20.1009 148.715 15.5414V6.02626L148.512 5.83051H147.811L147.61 6.02626L147.407 7.41558H147.209C146.709 6.52279 145.602 5.52973 143.495 5.52973V5.53212ZM143.495 6.62305C144.65 6.62305 145.578 7.01454 146.218 7.8214C146.859 8.62587 147.209 9.84093 147.209 11.4761C147.209 13.1113 146.859 14.3264 146.218 15.1309C145.578 15.9377 144.647 16.334 143.495 16.334C142.342 16.334 141.411 15.9377 140.771 15.1309C140.131 14.3264 139.785 13.1113 139.785 11.4761C139.785 9.89106 140.131 8.676 140.771 7.8572C141.411 7.0408 142.342 6.62305 143.495 6.62305ZM152.325 3.74653V2.35959L152.124 2.16146H151.223L150.921 2.35959V3.74653L151.122 3.94466H152.025L152.325 3.74653ZM152.325 17.0286V6.02626L152.124 5.82812H151.223L150.921 6.02626V17.0286L151.122 17.2268H152.025L152.325 17.0286ZM159.048 5.53212C155.837 5.53212 153.932 7.80946 153.932 11.0799V11.5812C153.932 14.7513 155.537 17.5252 159.249 17.5252C162.463 17.5252 163.666 15.4412 163.867 14.0543L163.664 13.8585H162.763L162.56 14.0543C162.057 15.4412 161.158 16.334 159.35 16.334C156.339 16.334 155.435 13.5577 155.435 12.1708L155.641 11.975H163.966L164.169 11.7745V11.0822C164.169 7.90734 162.26 5.53212 159.048 5.53212ZM159.048 6.72092C160.452 6.72092 161.383 7.29145 161.96 8.05773C162.538 8.82639 162.763 9.79319 162.763 10.5881L162.56 10.7862H155.537L155.339 10.5857C155.339 9.79319 155.563 8.82639 156.141 8.05773C156.719 7.29145 157.644 6.72092 159.048 6.72092ZM174 14.2524C174 12.1708 172.797 11.2804 170.489 10.7839C168.181 10.2873 166.777 10.0916 166.777 8.50412C166.777 7.31532 167.678 6.62066 169.387 6.62066C171.492 6.62066 172.195 7.51345 172.195 8.70226L172.395 8.90039H173.299L173.5 8.70226C173.5 6.42253 171.591 5.52973 169.285 5.52973C166.675 5.52973 165.37 6.91905 165.37 8.50412C165.37 10.3876 166.777 11.2804 169.085 11.6767C171.393 12.1708 172.596 12.3689 172.596 14.2548C172.596 15.4436 171.895 16.334 169.585 16.334C167.478 16.334 166.576 15.1452 166.576 13.7559L166.373 13.5601H165.472L165.271 13.7582C165.271 15.8398 166.876 17.4249 169.686 17.4249C172.596 17.5252 174 16.1359 174 14.2524Z" fill="#808080"/>
<path d="M55.2909 13.8468V17.1267H44.8509V0.953776H48.6451V13.8444L55.2909 13.8468ZM23.7268 0.015625L14.4758 7.05056C13.5261 3.53429 10.44 0.953776 6.64583 0.953776H0V17.1267H6.64583C10.44 17.1267 13.7629 14.5486 14.4758 11.0323L23.7268 18.0649L32.9827 11.0323V17.1267H43.4227V13.8444H36.5472V0.953776H32.7458V7.04579L23.9661 14.0831L22.069 12.4408L26.3417 9.15842L30.8512 5.64214L28.2412 3.53667L19.4614 10.3281L17.5643 8.68815L26.3417 2.12348L23.7317 0.015625L23.7268 0.015625ZM3.55733 4.23611H6.40417C6.99625 4.23611 7.57867 4.3674 8.11275 4.60851C8.64683 4.84961 9.13742 5.20529 9.55308 5.64214C9.96875 6.08377 10.3071 6.60655 10.5439 7.20095C10.7807 7.79297 10.9112 8.4566 10.9112 9.15842C10.9112 9.80295 10.7952 10.4308 10.5777 11.0132C10.3578 11.5957 10.0388 12.1304 9.63525 12.5864C9.2365 13.0399 8.758 13.4123 8.21183 13.6725C7.66808 13.9327 7.05667 14.0783 6.40417 14.0783H3.55733V4.23611Z" fill="#007DB8"/>
</g>
<defs>
<clipPath id="clip0_557_276">
<rect width="174" height="22" fill="white"/>
</clipPath>
</defs>
</svg>
