<svg width="160" height="18" viewBox="0 0 160 18" fill="none" xmlns="http://www.w3.org/2000/svg">
<path d="M19.1308 2.83911H0V0H19.1308V2.83911ZM19.1043 9.92362H0V7.08451H19.1043V9.92362ZM19.1043 14.169V17.0081H0V14.169H19.1043ZM39.721 2.86565L32.9018 2.89218C28.338 2.89218 26.1888 4.74954 26.1888 8.51733C26.1888 12.2851 28.338 14.169 32.8753 14.169H42.4275V16.9816L32.8753 17.0081C26.5072 17.0081 23.3232 14.1956 23.3232 8.5704C23.3232 2.91872 26.4807 0.10614 32.7957 0.0796061H42.454V2.91871C42.454 2.86564 39.721 2.86565 39.721 2.86565ZM56.1719 0.0530707C62.5931 0.0530707 65.7771 2.86565 65.7771 8.51733C65.7771 14.169 62.5931 16.9816 56.225 16.9816C49.8569 16.9816 46.6729 14.169 46.6729 8.54387C46.6994 2.89218 49.8569 0.0796045 56.1719 0.0530707ZM62.9115 8.51733C62.9115 4.74954 60.7888 2.89218 56.225 2.89218C51.6612 2.89218 49.565 4.74954 49.565 8.51733C49.565 12.2851 51.6612 14.169 56.225 14.169C60.7888 14.169 62.9115 12.2851 62.9115 8.51733ZM156.469 0.0530707V14.1425H151.004V0.0265354H148.271V14.1425H142.805V0H140.072V16.9816H156.469C158.513 16.9816 159.202 15.8937 159.202 14.169V0.0265354L156.469 0.0530707ZM112.503 14.169H98.1483C97.0339 14.169 96.1052 13.2669 96.1052 12.1259V0.0265354H93.3988V12.8689C93.3988 15.1508 95.2296 16.9816 97.5115 16.9816H112.503V14.169ZM126.194 0.0530707C132.616 0.0530707 135.8 2.86565 135.8 8.51733C135.8 14.169 132.616 16.9816 126.248 16.9816C119.879 16.9816 116.695 14.169 116.695 8.54387C116.722 2.89218 119.879 0.0796045 126.194 0.0530707ZM132.961 8.51733C132.961 4.74954 130.838 2.89218 126.274 2.89218C121.71 2.89218 119.614 4.74954 119.614 8.51733C119.614 12.2851 121.71 14.169 126.274 14.169C130.811 14.169 132.961 12.2851 132.961 8.51733ZM70.6594 0H89.4453V2.67991H70.6594V0ZM89.4453 9.97669H73.3393V16.9816H70.6594V7.13758H89.4453V9.97669Z" fill="#212121"/>
</svg>
