<svg width="157" height="21" viewBox="0 0 157 21" fill="none" xmlns="http://www.w3.org/2000/svg">
<path d="M150.654 1.04039H149.493V0.567383H152.331V1.04039H151.17V4.30839H150.654V1.04039Z" fill="#005DAA"/>
<path d="M152.891 0.567383H153.751L154.955 3.66339L156.116 0.567383H156.976V4.30839H156.46V1.08339H156.417L155.213 4.30839H154.654L153.45 1.08339H153.407V4.30839H152.891V0.567383Z" fill="#005DAA"/>
<path d="M28.5771 0.481445H23.2451V20.3474H28.5771V0.481445Z" fill="#005DAA"/>
<path d="M60.0104 0.524414H66.5464L74.2434 20.5194H68.3954L66.8904 16.2624H59.4084L57.8174 20.5194H52.3994L60.0104 0.524414ZM63.2784 4.65241H63.2354L60.6554 12.4784H65.6434L63.2784 4.65241Z" fill="#005DAA"/>
<path d="M76.8232 0.524414H86.0252C89.7232 0.524414 92.5182 2.15842 92.5182 5.59842C92.5182 8.13542 91.2282 9.51141 88.9922 10.2854V10.3284C91.6582 10.8874 93.0342 12.3064 93.0342 14.7574C93.0342 19.5304 88.8202 20.5194 85.2512 20.5194H76.8232V0.524414ZM82.1552 16.7354H83.7462C85.6812 16.7354 87.7022 16.4344 87.7022 14.4134C87.7022 12.2204 85.5952 12.0484 83.7892 12.0484H82.1552V16.7354ZM82.1552 8.43641H83.6602C85.4232 8.43641 87.2292 8.00641 87.2292 6.32941C87.2292 4.48041 85.5092 4.30842 83.7462 4.30842H82.1982V8.43641" fill="#005DAA"/>
<path d="M100.215 12.9514L92.8623 0.524414H98.9683L102.881 8.52241L106.751 0.524414H112.9L105.547 12.9514V20.5194H100.215V12.9514Z" fill="#005DAA"/>
<path d="M119.996 4.48041H115.094V0.524414H130.23V4.48041H125.328V20.5194H119.996V4.48041Z" fill="#005DAA"/>
<path d="M132.767 0.524414H146.871V4.30842H138.099V8.43641H146.355V12.1774H138.099V16.7354H147.172V20.5194H132.767V0.524414Z" fill="#005DAA"/>
<path d="M11.1624 4.9107C7.63636 5.21169 5.70136 7.5337 5.70136 10.5437C5.70136 13.4677 8.41036 15.9187 11.0334 15.9187H11.5924H12.5814C12.5814 15.9187 13.2264 15.9187 13.2264 15.2737V8.9957H18.6874C18.6874 12.5217 18.6874 20.5197 18.6874 20.5197C18.6874 20.5197 13.3124 20.5197 10.1734 20.5197C4.28236 20.5197 0.0683594 15.6607 0.0683594 10.5437C0.0683594 5.0397 4.62636 0.395694 10.3454 0.610694L18.5154 0.653697V4.9107H11.1624Z" fill="#005DAA"/>
<path d="M42.8108 4.9107C39.2848 5.21169 37.3498 7.5337 37.3498 10.5437C37.3498 13.4677 40.0588 15.9187 42.6818 15.9187H43.2408H44.2298C44.2298 15.9187 44.8748 15.9187 44.8748 15.2737V8.9957H50.3358C50.3358 12.5217 50.3358 20.5197 50.3358 20.5197C50.3358 20.5197 44.9608 20.5197 41.8218 20.5197C35.9308 20.5197 31.7168 15.6607 31.7168 10.5437C31.7168 5.0397 36.2748 0.395694 41.9938 0.610694L50.1638 0.653697V4.9107H42.8108Z" fill="#005DAA"/>
</svg>
