<svg width="172" height="41" viewBox="0 0 172 41" fill="none" xmlns="http://www.w3.org/2000/svg">
<g clip-path="url(#clip0_557_426)">
<path d="M18.5086 0C19.5616 0 20.4211 0.784043 20.4211 1.74811V22.4767C20.4211 23.4597 19.564 24.2437 18.5086 24.2437C18.0411 24.2437 17.5972 24.0874 17.2218 23.7937L8.90593 16.2825C8.55412 15.9509 8.36523 15.5198 8.36523 15.0603C8.36523 14.0962 9.22232 13.3122 10.2777 13.3122C10.8019 13.3122 11.293 13.5064 11.659 13.857L16.5961 18.303V1.74811C16.5961 0.784043 17.4532 0 18.5086 0Z" fill="url(#paint0_linear_557_426)"/>
<path d="M168.994 17.2586C168.65 16.6925 168.078 16.2187 167.283 15.8397C166.487 15.4608 165.387 15.1268 163.984 14.8307C162.664 14.5583 161.774 14.2859 161.314 14.0111C160.853 13.7387 160.622 13.3384 160.622 12.8149C160.622 12.2914 160.846 11.8366 161.297 11.5216C161.746 11.2065 162.36 11.0502 163.134 11.0502C163.783 11.0502 164.329 11.1284 164.768 11.2871C165.207 11.4458 165.731 11.6803 166.338 11.9977C166.673 12.1872 166.952 12.3293 167.169 12.4241C167.389 12.5188 167.615 12.5662 167.845 12.5662C168.18 12.5662 168.463 12.4241 168.692 12.1398C168.921 11.8556 169.039 11.505 169.039 11.0834C169.039 10.3893 168.704 9.8327 168.033 9.41343C167.384 8.99417 166.652 8.67203 165.835 8.45174C165.018 8.23145 164.171 8.12012 163.29 8.12012C162.076 8.12012 160.99 8.32383 160.039 8.73361C159.085 9.1434 158.336 9.72137 157.793 10.4675C157.248 11.2137 156.976 12.0498 156.976 12.9736C156.976 14.1911 157.38 15.1481 158.185 15.8421C158.99 16.5361 160.327 17.0715 162.19 17.4505C163.238 17.6826 164.017 17.8863 164.53 18.0663C165.042 18.244 165.398 18.4382 165.597 18.649C165.795 18.8598 165.897 19.1441 165.897 19.4994C165.897 20.0253 165.651 20.435 165.158 20.7288C164.666 21.0225 163.979 21.1693 163.099 21.1693C162.218 21.1693 161.533 21.0864 160.978 20.9159C160.424 20.7477 159.81 20.5061 159.141 20.1911C158.837 20.0276 158.346 19.7836 158.346 19.7836L156.825 22.2921C156.825 22.2921 157.21 22.6474 157.477 22.8061C158.879 23.711 160.723 24.161 163.007 24.161C164.976 24.161 166.551 23.7323 167.736 22.8701C168.919 22.0079 169.511 20.8638 169.511 19.4354C169.511 18.5519 169.339 17.8271 168.992 17.261L168.994 17.2586Z" fill="black"/>
<path d="M169.119 2.99625H168.321V1.83558H169.119C169.358 1.83558 169.533 1.88059 169.646 1.96823C169.759 2.05587 169.816 2.2051 169.816 2.41592C169.816 2.62673 169.759 2.76885 169.641 2.85887C169.525 2.95125 169.351 2.99625 169.119 2.99625ZM170.002 3.81582C169.925 3.70686 169.847 3.62159 169.773 3.56C169.7 3.49842 169.615 3.45578 169.518 3.43209C169.806 3.38709 170.033 3.27339 170.194 3.09574C170.354 2.91808 170.437 2.68358 170.437 2.4017C170.437 2.06061 170.328 1.79768 170.109 1.61292C169.889 1.42816 169.587 1.33579 169.195 1.33579H167.996C167.899 1.33579 167.823 1.36421 167.771 1.42106C167.717 1.47791 167.691 1.55608 167.691 1.65082V4.66145C167.691 4.76331 167.719 4.84148 167.776 4.89596C167.833 4.95044 167.911 4.97649 168.005 4.97649C168.099 4.97649 168.177 4.94807 168.234 4.89596C168.291 4.84148 168.319 4.76331 168.319 4.66145V3.49368H168.735C168.864 3.49368 168.968 3.515 169.044 3.55764C169.119 3.60027 169.193 3.67607 169.261 3.78266L169.932 4.81542C170.005 4.92912 170.104 4.98597 170.229 4.98597C170.307 4.98597 170.38 4.96228 170.442 4.91254C170.503 4.86279 170.536 4.80358 170.536 4.73015C170.536 4.67804 170.512 4.62119 170.468 4.5596L170 3.81819L170.002 3.81582ZM168.966 5.80317C168.468 5.80317 168.017 5.68711 167.615 5.4526C167.214 5.22047 166.898 4.89833 166.669 4.48854C166.44 4.07875 166.324 3.62633 166.324 3.13364C166.324 2.64094 166.44 2.18852 166.669 1.7811C166.898 1.37368 167.214 1.05391 167.615 0.821775C168.017 0.589642 168.468 0.471206 168.966 0.471206C169.464 0.471206 169.908 0.587273 170.309 0.821775C170.711 1.05391 171.027 1.37368 171.256 1.7811C171.485 2.18852 171.601 2.63858 171.601 3.13364C171.601 3.6287 171.485 4.08112 171.256 4.48854C171.027 4.89596 170.711 5.22047 170.309 5.4526C169.908 5.68474 169.459 5.80317 168.966 5.80317ZM168.966 0.0898438C168.399 0.0898438 167.885 0.22486 167.419 0.490156C166.954 0.75782 166.588 1.1226 166.324 1.58687C166.057 2.04877 165.925 2.56515 165.925 3.13364C165.925 3.70213 166.059 4.21851 166.324 4.6804C166.591 5.1423 166.954 5.50945 167.419 5.77949C167.885 6.04952 168.399 6.18454 168.966 6.18454C169.533 6.18454 170.04 6.04952 170.505 5.77949C170.971 5.50945 171.336 5.1423 171.601 4.6804C171.865 4.21851 172 3.70213 172 3.13364C172 2.56515 171.865 2.04877 171.601 1.58687C171.336 1.12497 170.971 0.75782 170.508 0.490156C170.047 0.222492 169.533 0.0898438 168.966 0.0898438Z" fill="black"/>
<path d="M1.9125 24.2437C0.859445 24.2437 0 23.4597 0 22.4956V1.76706C0 0.784043 0.857084 0 1.9125 0C2.38 0 2.82389 0.156335 3.19931 0.450055L11.5151 7.96123C11.867 8.29285 12.0558 8.72396 12.0558 9.18349C12.0558 10.1476 11.1988 10.9316 10.1433 10.9316C9.61917 10.9316 9.12806 10.7374 8.76209 10.3868L3.825 5.94072V22.4933C3.825 23.4573 2.96792 24.2414 1.9125 24.2414V24.2437Z" fill="black"/>
<path d="M84.0936 14.4535C84.0936 12.2269 83.6497 10.6138 82.7596 9.61421C81.8695 8.61699 80.585 8.11719 78.911 8.11719C77.78 8.11719 76.7647 8.38011 75.8628 8.90597C74.9608 9.43182 74.2808 10.1353 73.8204 11.0165C73.046 9.08362 71.5065 8.11719 69.2021 8.11719C68.1538 8.11719 67.2282 8.33748 66.4207 8.77806C65.6132 9.21864 64.971 9.86056 64.4893 10.6991V9.94346C64.4893 9.37734 64.317 8.9415 63.9699 8.63593C63.6251 8.33037 63.1789 8.17877 62.6358 8.17877C62.0928 8.17877 61.5993 8.33511 61.2215 8.65015C60.8461 8.96519 60.6572 9.41761 60.6572 10.005V22.2015C60.6572 22.8103 60.6572 23.8928 60.6572 23.8928H64.5908C64.5908 23.8928 64.5861 22.8103 64.5861 22.2015V15.1736C64.5861 13.9561 64.8836 12.9944 65.481 12.2885C66.0783 11.585 66.8882 11.232 67.9153 11.232C68.7535 11.232 69.3768 11.4784 69.7853 11.9711C70.1938 12.4661 70.3992 13.2905 70.3992 14.4464V22.1992C70.3992 22.8079 70.4015 23.8904 70.4015 23.8904H74.3352C74.3352 23.8904 74.3257 22.8079 74.3257 22.1992V15.1712C74.3257 13.9537 74.6303 12.992 75.2371 12.2861C75.8439 11.5826 76.6609 11.2297 77.6879 11.2297C78.5261 11.2297 79.1495 11.476 79.5579 11.9687C79.9664 12.4638 80.1695 13.2881 80.1695 14.444V22.1968C80.1695 22.8056 80.1695 23.8881 80.1695 23.8881H84.0984C84.0984 23.8881 84.096 22.8056 84.096 22.1968V14.444L84.0936 14.4535Z" fill="black"/>
<path d="M53.1036 9.09603C51.9207 8.44463 50.5441 8.12012 48.9716 8.12012C47.3991 8.12012 46.025 8.447 44.8397 9.09603C43.6568 9.74742 42.7383 10.6783 42.0914 11.8864C41.442 13.0944 41.1162 14.5085 41.1162 16.1264C41.1162 17.7442 41.442 19.163 42.0914 20.3806C42.7407 21.5981 43.6568 22.5337 44.8397 23.1851C46.0226 23.8365 47.3991 24.161 48.9716 24.161C50.5441 24.161 51.9183 23.8365 53.1036 23.1851C54.2865 22.5337 55.1979 21.5981 55.8378 20.3806C56.4753 19.163 56.7964 17.7442 56.7964 16.1264C56.7964 14.5085 56.4776 13.0968 55.8378 11.8864C55.1979 10.6783 54.2865 9.74742 53.1036 9.09603ZM51.8616 19.8429C51.1911 20.6838 50.2183 21.103 48.9409 21.103C47.6636 21.103 46.7215 20.6838 46.0509 19.8429C45.3804 19.002 45.0451 17.7631 45.0451 16.124C45.0451 14.4848 45.3851 13.2721 46.0651 12.4217C46.7451 11.5713 47.7155 11.145 48.9716 11.145C50.2277 11.145 51.1911 11.5713 51.8616 12.4217C52.5322 13.2721 52.8675 14.5062 52.8675 16.124C52.8675 17.7418 52.5322 19.002 51.8616 19.8429Z" fill="black"/>
<path d="M99.8492 9.09603C98.6663 8.44463 97.2897 8.12012 95.7172 8.12012C94.1447 8.12012 92.7706 8.447 91.5853 9.09603C90.4024 9.74742 89.4839 10.6783 88.837 11.8864C88.1877 13.0944 87.8618 14.5085 87.8618 16.1264C87.8618 17.7442 88.1877 19.163 88.837 20.3806C89.4863 21.5981 90.4024 22.5337 91.5853 23.1851C92.7682 23.8365 94.1447 24.161 95.7172 24.161C97.2897 24.161 98.6639 23.8365 99.8492 23.1851C101.032 22.5337 101.943 21.5981 102.583 20.3806C103.221 19.163 103.542 17.7442 103.542 16.1264C103.542 14.5085 103.223 13.0968 102.583 11.8864C101.943 10.6783 101.032 9.74742 99.8492 9.09603ZM98.6072 19.8429C97.9367 20.6838 96.9639 21.103 95.6865 21.103C94.4092 21.103 93.4671 20.6838 92.7965 19.8429C92.126 19.002 91.7907 17.7631 91.7907 16.124C91.7907 14.4848 92.1307 13.2721 92.8107 12.4217C93.4907 11.5713 94.4611 11.145 95.7172 11.145C96.9734 11.145 97.9367 11.5713 98.6072 12.4217C99.2778 13.2721 99.6131 14.5062 99.6131 16.124C99.6131 17.7418 99.2778 19.002 98.6072 19.8429Z" fill="black"/>
<path d="M153.208 21.1672L152.36 21.1033C150.937 20.9991 150.223 20.1677 150.223 18.6138V11.4603H154.008V8.49702H152.894H150.223V5.59772C150.223 5.0316 150.044 4.57917 149.69 4.24282C149.333 3.90646 148.861 3.73828 148.276 3.73828C147.69 3.73828 147.187 3.90646 146.831 4.24282C146.474 4.57917 146.297 5.0316 146.297 5.59772V8.49702H144.727C144.162 8.49702 143.726 8.62256 143.423 8.87601C143.119 9.1271 142.968 9.49662 142.968 9.97746C142.968 10.4583 143.119 10.8278 143.423 11.0813C143.728 11.3347 144.162 11.4579 144.727 11.4579H146.297V18.3295C146.297 21.8589 148.056 23.7515 151.574 24.0026L152.422 24.0642C153.175 24.1068 153.758 23.9955 154.164 23.7326C154.573 23.4696 154.778 23.0859 154.778 22.5814C154.778 21.6978 154.254 21.2265 153.208 21.1625V21.1672Z" fill="black"/>
<path d="M135.146 8.11719C134.036 8.11719 133.042 8.34932 132.161 8.81122C131.28 9.27312 130.579 9.93399 130.057 10.7962V9.94583C130.057 9.42235 129.885 8.99598 129.538 8.6691C129.193 8.34458 128.747 8.18114 128.202 8.18114C127.595 8.18114 127.113 8.34932 126.757 8.68568C126.4 9.02203 126.223 9.46261 126.223 10.0098V22.2063C126.223 22.7937 126.216 23.9046 126.216 23.9046H130.14C130.14 23.9046 130.149 22.7961 130.149 22.2063V15.1783C130.149 13.9797 130.489 13.0252 131.169 12.3098C131.849 11.5968 132.756 11.2391 133.887 11.2391C134.85 11.2391 135.556 11.5115 136.007 12.0587C136.456 12.6059 136.683 13.4776 136.683 14.6738V22.2063C136.683 22.7937 136.683 23.9046 136.683 23.9046H140.604C140.604 23.9046 140.609 22.7961 140.609 22.2063V14.4535C140.609 12.3311 140.158 10.7441 139.259 9.69475C138.359 8.64304 136.985 8.11956 135.143 8.11956L135.146 8.11719Z" fill="black"/>
<path d="M119.531 8.18164C118.943 8.18164 118.473 8.34982 118.117 8.68618C117.76 9.02253 117.583 9.47496 117.583 10.0411V17.069C117.583 18.2676 117.253 19.2293 116.594 19.9541C115.935 20.679 115.059 21.0414 113.971 21.0414C113.029 21.0414 112.337 20.7784 111.898 20.2526C111.459 19.7291 111.239 18.919 111.239 17.8247V10.0411C111.239 9.47496 111.062 9.02253 110.705 8.68618C110.349 8.34982 109.867 8.18164 109.26 8.18164C108.654 8.18164 108.203 8.34982 107.846 8.68618C107.49 9.02253 107.312 9.47496 107.312 10.0411V17.7939C107.312 22.0386 109.197 24.161 112.967 24.161C113.994 24.161 114.915 23.9359 115.732 23.4835C116.549 23.0311 117.198 22.3844 117.68 21.5459V22.3347C117.68 22.8819 117.68 23.9004 117.68 23.9004H121.51C121.51 23.9004 121.51 22.8179 121.51 22.2707V10.0411C121.51 9.47496 121.33 9.02253 120.976 8.68618C120.62 8.34982 120.138 8.18164 119.531 8.18164Z" fill="black"/>
<path d="M36.3139 19.8093L35.4309 20.2215C34.7816 20.5176 34.2007 20.7473 33.686 20.9155C33.1737 21.0837 32.581 21.169 31.9105 21.169C30.5906 21.169 29.5848 20.8279 28.8953 20.1457C28.2035 19.4635 27.795 18.3976 27.6699 16.9479H36.9373C37.733 16.9479 38.1296 16.4955 38.1296 15.593C38.1296 14.0794 37.8463 12.7672 37.282 11.6539C36.7177 10.5406 35.9196 9.67835 34.8949 9.0696C33.8678 8.46084 32.6637 8.15527 31.2824 8.15527C29.9012 8.15527 28.5435 8.49163 27.4031 9.16434C26.2627 9.83706 25.3773 10.7822 24.7492 12.0021C24.1212 13.2196 23.8071 14.6171 23.8071 16.1923C23.8071 18.6723 24.5296 20.6265 25.9746 22.0549C27.4196 23.4832 29.377 24.1985 31.8491 24.1985C32.666 24.1985 33.5255 24.0777 34.4251 23.8361C35.3246 23.5945 36.1321 23.2747 36.8452 22.8744L37.8227 22.2633L36.3139 19.8141V19.8093ZM28.8198 11.9334C29.4573 11.2607 30.312 10.9243 31.3792 10.9243C32.4464 10.9243 33.2421 11.2559 33.8301 11.9168C34.4156 12.58 34.7296 13.5512 34.7721 14.8327H27.6723C27.7974 13.5725 28.1799 12.6061 28.8198 11.9334Z" fill="black"/>
<path d="M165.979 33.4865C166.602 33.4865 167.063 33.605 167.356 33.8371C167.648 34.0716 167.795 34.4411 167.795 34.9504C167.795 35.4597 167.646 35.8316 167.349 36.0755C167.053 36.3172 166.595 36.438 165.979 36.438H163.762V33.4865H165.979ZM166.121 32.4988H162.563V40.8888H163.772V37.4257H165.148C165.505 37.4257 165.79 37.4826 166.007 37.5986C166.225 37.7147 166.411 37.9137 166.572 38.2003L167.996 40.8888H169.348L167.913 38.224C167.644 37.7313 167.304 37.4233 166.893 37.2954C167.556 37.1841 168.069 36.9235 168.428 36.5114C168.787 36.0992 168.968 35.571 168.968 34.9291C168.968 34.1356 168.725 33.5339 168.239 33.1218C167.752 32.7096 167.046 32.5035 166.121 32.5035M154.523 37.845L156.23 33.8703L157.925 37.845H154.521H154.523ZM155.708 32.5035L151.985 40.8935H153.217L154.107 38.8233H158.341L159.231 40.8935H160.452L156.728 32.5035H155.708ZM151.713 32.5035H144.821V33.5268H147.645V40.8935H148.878V33.5268H151.713V32.5035ZM93.5237 32.5035H92.1235L95.4574 36.978V40.8935H96.6805V36.978L100.014 32.5035H98.626L96.076 35.9666L93.526 32.5035H93.5237ZM87.8216 33.4913C88.4142 33.4913 88.8558 33.5979 89.1438 33.8134C89.4319 34.0266 89.5759 34.3559 89.5759 34.8012C89.5759 35.6894 88.9903 36.1348 87.8192 36.1348H85.7084V33.4937H87.8192L87.8216 33.4913ZM85.7108 37.1202H88.0128C88.6149 37.1202 89.0588 37.2362 89.3469 37.4707C89.6349 37.7052 89.779 38.0605 89.779 38.5366C89.779 39.0127 89.6373 39.3491 89.3516 39.5718C89.0659 39.7944 88.6196 39.9058 88.0105 39.9058H85.7084V37.1202H85.7108ZM88.0128 32.5035H84.5137V40.8935H88.1427C89.0281 40.8935 89.7176 40.6945 90.2134 40.2919C90.7069 39.8915 90.9548 39.3302 90.9548 38.6077C90.9548 38.0842 90.8226 37.6484 90.5581 37.3002C90.2937 36.952 89.9183 36.708 89.4366 36.5753C89.8545 36.4166 90.1827 36.175 90.4165 35.8482C90.6502 35.5236 90.7659 35.1375 90.7659 34.6946C90.7659 34.0053 90.5227 33.4676 90.0363 33.0815C89.5499 32.6978 88.877 32.5035 88.0128 32.5035ZM106.571 32.5035H105.646V40.8935H106.795V34.5643L111.577 40.8935H112.514V32.5035H111.364V38.8469L106.571 32.5035ZM115.475 40.8935H120.908V39.9058H116.674V37.132H120.672V36.1324H116.674V33.4913H120.908V32.5035H115.475V40.8935ZM126.242 39.1572L123.999 32.5059H122.766L125.696 40.8959H126.704L128.981 34.3985L131.235 40.8959H132.244L135.186 32.5059H133.998L131.722 39.1928L129.455 32.5177L128.553 32.5059L126.239 39.1572H126.242ZM143.152 33.4629C142.819 33.1289 142.394 32.8731 141.877 32.6954C141.36 32.5177 140.807 32.4277 140.222 32.4277C139.596 32.4277 139.048 32.532 138.574 32.7428C138.099 32.9536 137.733 33.2449 137.476 33.6168C137.218 33.9887 137.091 34.4222 137.091 34.9125C137.091 35.4028 137.211 35.796 137.452 36.1087C137.693 36.4214 138.028 36.6701 138.456 36.8525C138.883 37.0349 139.428 37.1983 140.092 37.3404C140.788 37.4991 141.294 37.6673 141.61 37.8473C141.927 38.025 142.085 38.2974 142.085 38.6622C142.085 39.0909 141.915 39.4225 141.575 39.657C141.235 39.8915 140.753 40.0076 140.127 40.0076C139.582 40.0076 139.091 39.9342 138.652 39.7873C138.212 39.6405 137.787 39.4012 137.377 39.0672L136.937 39.9721C137.325 40.3132 137.79 40.5714 138.331 40.7466C138.871 40.9219 139.466 41.0072 140.116 41.0072C140.765 41.0072 141.339 40.9077 141.818 40.7087C142.297 40.5098 142.663 40.2303 142.921 39.8631C143.178 39.4983 143.305 39.0743 143.305 38.5888C143.305 38.1032 143.176 37.7265 142.921 37.4281C142.663 37.1296 142.321 36.8975 141.889 36.7269C141.457 36.5564 140.895 36.393 140.198 36.2343C139.535 36.0755 139.051 35.8979 138.751 35.7037C138.451 35.5094 138.3 35.2228 138.3 34.8415C138.3 34.3961 138.472 34.0503 138.817 33.8016C139.162 33.5529 139.634 33.4273 140.234 33.4273C140.692 33.4273 141.126 33.5055 141.532 33.6595C141.938 33.8134 142.337 34.0503 142.725 34.3677L143.152 33.4629Z" fill="black"/>
</g>
<defs>
<linearGradient id="paint0_linear_557_426" x1="8.36523" y1="12.1207" x2="20.4211" y2="12.1207" gradientUnits="userSpaceOnUse">
<stop stop-color="#2E3192"/>
<stop offset="0.2" stop-color="#1F57AE"/>
<stop offset="0.44" stop-color="#127CCA"/>
<stop offset="0.66" stop-color="#0897DE"/>
<stop offset="0.85" stop-color="#02A8EA"/>
<stop offset="1" stop-color="#00AEEF"/>
</linearGradient>
<clipPath id="clip0_557_426">
<rect width="172" height="41" fill="white"/>
</clipPath>
</defs>
</svg>
