<svg width="156" height="33" viewBox="0 0 156 33" fill="none" xmlns="http://www.w3.org/2000/svg">
<g clip-path="url(#clip0_557_259)">
<path d="M55.0629 19.0148L54.1282 21.6085H54.0767C53.9104 21.0003 53.6291 20.141 53.1895 19.0423L48.187 6.60352H43.2954V26.376H46.5235V14.2198C46.5235 13.4703 46.5076 12.5639 46.4759 11.5241C46.4601 10.9983 46.4007 10.5784 46.3848 10.2567H46.4561C46.6185 11.0022 46.7888 11.5672 46.9156 11.9479L52.9162 26.3721H55.1738L61.1309 11.8184C61.2656 11.4848 61.4081 10.8374 61.5428 10.2567H61.6141C61.5349 11.6967 61.4715 13.0152 61.4596 13.8078V26.3721H64.9016V6.60352H60.2041L55.0748 19.0109L55.0629 19.0148Z" fill="#77787B"/>
<path d="M71.5005 12.207H68.1338V26.3762H71.5005V12.207Z" fill="#77787B"/>
<path d="M69.8527 6.18848C69.2982 6.18848 68.815 6.37682 68.4189 6.74567C68.0189 7.11844 67.8169 7.58538 67.8169 8.13473C67.8169 8.68408 68.0149 9.13533 68.411 9.49632C68.8031 9.85732 69.2864 10.0378 69.8527 10.0378C70.4191 10.0378 70.9024 9.8534 71.2984 9.49632C71.6985 9.13533 71.9005 8.67623 71.9005 8.13473C71.9005 7.59323 71.7024 7.13806 71.3143 6.76137C70.9261 6.38075 70.435 6.18848 69.8527 6.18848Z" fill="#77787B"/>
<path d="M83.4105 12.0663C82.7649 11.9329 82.1312 11.8662 81.5291 11.8662C79.9844 11.8662 78.61 12.1919 77.4376 12.8393C76.2652 13.4868 75.3582 14.4128 74.7403 15.59C74.1264 16.7632 73.8135 18.1327 73.8135 19.663C73.8135 21.0011 74.1185 22.2292 74.7126 23.3122C75.3107 24.3991 76.1583 25.2467 77.2316 25.8353C78.3011 26.4239 79.5408 26.7221 80.9112 26.7221C82.5114 26.7221 83.8779 26.4043 84.971 25.7804L85.0146 25.7529V22.7001L84.872 22.8021C84.3769 23.1592 83.8224 23.4456 83.2243 23.6497C82.6302 23.8537 82.0876 23.9597 81.6123 23.9597C80.2933 23.9597 79.2319 23.5516 78.4635 22.7433C77.6911 21.9349 77.3029 20.8009 77.3029 19.3726C77.3029 17.9443 77.7109 16.7711 78.5149 15.9118C79.315 15.0563 80.3765 14.6208 81.6717 14.6208C82.7768 14.6208 83.8541 14.9936 84.876 15.7234L85.0186 15.8254V12.6078L84.975 12.5843C84.5908 12.3724 84.068 12.1958 83.4184 12.0624L83.4105 12.0663Z" fill="#77787B"/>
<path d="M94.4965 11.96C93.6529 11.96 92.8963 12.2307 92.2468 12.7604C91.6764 13.2274 91.2685 13.8631 90.9516 14.6596H90.9159V12.2072H87.5532V26.3764H90.9159V19.1289C90.9159 17.8968 91.1972 16.8845 91.7556 16.1193C92.3062 15.362 93.0389 14.9814 93.9301 14.9814C94.2351 14.9814 94.5718 15.0324 94.9401 15.1265C95.3045 15.2246 95.5699 15.3306 95.7243 15.4405L95.8669 15.5425V12.1836L95.8115 12.1601C95.4986 12.0267 95.055 11.96 94.4925 11.96H94.4965Z" fill="#77787B"/>
<path d="M103.634 11.8662C101.274 11.8662 99.4001 12.5529 98.0653 13.9027C96.7305 15.2526 96.0532 17.1203 96.0532 19.459C96.0532 21.7976 96.7147 23.4614 98.0178 24.7602C99.3209 26.059 101.095 26.7182 103.29 26.7182C105.484 26.7182 107.413 26.0237 108.748 24.6542C110.082 23.2848 110.76 21.4366 110.76 19.1529C110.76 16.8692 110.126 15.0995 108.874 13.8086C107.623 12.5176 105.86 11.8623 103.638 11.8623L103.634 11.8662ZM106.308 22.7786C105.674 23.5634 104.723 23.9636 103.48 23.9636C102.236 23.9636 101.27 23.5595 100.58 22.759C99.8912 21.9546 99.5387 20.8088 99.5387 19.353C99.5387 17.8973 99.8873 16.673 100.58 15.8568C101.27 15.0446 102.232 14.6326 103.452 14.6326C104.672 14.6326 105.575 15.025 106.248 15.8058C106.926 16.5867 107.27 17.7521 107.27 19.2746C107.27 20.797 106.945 21.9938 106.312 22.7864L106.308 22.7786Z" fill="#77787B"/>
<path d="M118.222 18.062C117.16 17.6383 116.483 17.289 116.202 17.0222C115.933 16.7632 115.794 16.3944 115.794 15.9314C115.794 15.5194 115.964 15.1898 116.313 14.9229C116.661 14.6522 117.149 14.5188 117.763 14.5188C118.329 14.5188 118.911 14.609 119.489 14.7817C120.068 14.9543 120.575 15.1898 120.995 15.4723L121.133 15.5664V12.4862L121.078 12.4626C120.69 12.2978 120.175 12.1566 119.549 12.0389C118.927 11.9251 118.361 11.8662 117.869 11.8662C116.265 11.8662 114.938 12.2743 113.924 13.0748C112.907 13.8792 112.388 14.9386 112.388 16.2178C112.388 16.8849 112.499 17.4735 112.72 17.9757C112.942 18.478 113.283 18.9214 113.738 19.2942C114.19 19.663 114.887 20.0475 115.81 20.4399C116.586 20.7578 117.164 21.0246 117.533 21.2365C117.893 21.4445 118.147 21.6524 118.289 21.8525C118.428 22.0487 118.499 22.3195 118.499 22.6569C118.499 23.6104 117.778 24.0735 116.297 24.0735C115.746 24.0735 115.121 23.9597 114.435 23.736C113.75 23.5123 113.109 23.1906 112.53 22.7786L112.388 22.6766V25.9255L112.439 25.9491C112.922 26.1688 113.528 26.3572 114.245 26.5024C114.962 26.6475 115.612 26.7221 116.174 26.7221C117.917 26.7221 119.319 26.314 120.341 25.5057C121.371 24.6934 121.894 23.6104 121.894 22.2881C121.894 21.3346 121.612 20.5145 121.058 19.8553C120.507 19.2 119.553 18.5996 118.222 18.066V18.062Z" fill="#77787B"/>
<path d="M130.936 11.8662C128.575 11.8662 126.706 12.5529 125.367 13.9027C124.032 15.2526 123.355 17.1203 123.355 19.459C123.355 21.7976 124.016 23.4614 125.32 24.7602C126.623 26.059 128.397 26.7182 130.591 26.7182C132.786 26.7182 134.715 26.0237 136.049 24.6542C137.384 23.2848 138.061 21.4366 138.061 19.1529C138.061 16.8692 137.428 15.0995 136.172 13.8086C134.921 12.5176 133.158 11.8623 130.936 11.8623V11.8662ZM133.609 22.7786C132.976 23.5634 132.025 23.9636 130.781 23.9636C129.538 23.9636 128.571 23.5595 127.882 22.759C127.193 21.9546 126.84 20.8088 126.84 19.353C126.84 17.8973 127.189 16.673 127.882 15.8568C128.567 15.0446 129.534 14.6326 130.754 14.6326C131.974 14.6326 132.877 15.025 133.55 15.8058C134.227 16.5867 134.572 17.7521 134.572 19.2746C134.572 20.797 134.247 21.9938 133.613 22.7864L133.609 22.7786Z" fill="#77787B"/>
<path d="M156 14.9268V12.2075H152.594V7.98148L152.479 8.01679L149.278 8.98599L149.215 9.00561V12.2075H144.165V10.4221C144.165 9.59027 144.351 8.9546 144.724 8.53082C145.092 8.11096 145.615 7.89907 146.284 7.89907C146.763 7.89907 147.262 8.01287 147.765 8.23261L147.892 8.28754V5.42309L147.833 5.40347C147.365 5.23867 146.728 5.15234 145.939 5.15234C144.945 5.15234 144.042 5.36816 143.254 5.79194C142.466 6.21572 141.844 6.82393 141.412 7.59693C140.981 8.36602 140.759 9.25674 140.759 10.2416V12.2036H138.386V14.9229H140.759V26.3728H144.165V14.9229H149.215V22.2017C149.215 25.1996 150.641 26.7181 153.457 26.7181C153.92 26.7181 154.408 26.6632 154.903 26.5572C155.41 26.4473 155.754 26.3414 155.956 26.2276L156 26.2041V23.4573L155.861 23.5476C155.675 23.6692 155.445 23.7712 155.176 23.8419C154.907 23.9164 154.677 23.9557 154.503 23.9557C153.845 23.9557 153.354 23.7791 153.053 23.4338C152.748 23.0846 152.594 22.4724 152.594 21.6131V14.9229H156V14.9268Z" fill="#77787B"/>
<path d="M15.8273 0H0V15.6799H15.8273V0Z" fill="#F26522"/>
<path d="M33.3024 0H17.4751V15.6799H33.3024V0Z" fill="#8DC63F"/>
<path d="M15.8273 17.3203H0V33.0002H15.8273V17.3203Z" fill="#00AEEF"/>
<path d="M33.3024 17.3203H17.4751V33.0002H33.3024V17.3203Z" fill="#FFC20E"/>
</g>
<defs>
<clipPath id="clip0_557_259">
<rect width="156" height="33" fill="white"/>
</clipPath>
</defs>
</svg>
