<svg width="179" height="25" viewBox="0 0 179 25" fill="none" xmlns="http://www.w3.org/2000/svg">
<g clip-path="url(#clip0_557_383)">
<path d="M173.418 1.4542H172.234V1.06348H175.065V1.4542H173.882V4.53517H173.411V1.4542H173.418Z" fill="#0A2240"/>
<path d="M175.47 1.06348H176.117L177.235 3.9779L178.359 1.06348H179.006V4.53517H178.562V1.64636H178.549L177.444 4.53517H177.045L175.94 1.64636H175.934V4.53517H175.489V1.06348H175.47Z" fill="#0A2240"/>
<path d="M12.727 2.21638H11.4458L11.7726 0.960938H10.6483L10.3214 2.21638H9.04017L8.76562 3.3181H10.0469L9.72001 4.57354H10.8444L11.1712 3.3181H12.4459L12.727 2.21638Z" fill="#0A2240"/>
<path d="M15.878 10.185H13.8973L14.3941 8.24414H12.6619L12.165 10.185H10.1909L9.75293 11.876H11.7336L11.2303 13.8232H12.9691L13.4659 11.876H15.44L15.878 10.185Z" fill="#0A2240"/>
<path d="M19.7875 15.3856H17.8199L18.3101 13.4512H16.5844L16.0811 15.3856H14.1069L13.6689 17.0894H15.6496L15.1528 19.0238H16.8851L17.3819 17.0894H19.3561L19.7875 15.3856Z" fill="#0A2240"/>
<path d="M7.09937 5.05346H6.13191L6.37377 4.10547H5.53051L5.28211 5.05346H4.31465L4.10547 5.88615H5.06639L4.83106 6.83414H5.67433L5.92273 5.88615H6.89019L7.09937 5.05346Z" fill="#0A2240"/>
<path d="M3.00044 2.2224H2.03298L2.27484 1.27441H1.42504L1.17664 2.2224H0.215718L0 3.0551H0.967462L0.725596 4.00308H1.58193L1.81726 3.0551H2.79126L3.00044 2.2224Z" fill="#0A2240"/>
<path d="M5.56977 11.1579H4.59578L4.84418 10.21H3.99438L3.74598 11.1579H2.78505L2.56934 11.9906H3.5368L3.29493 12.9386H4.14473L4.38006 11.9906H5.35406L5.56977 11.1579Z" fill="#0A2240"/>
<path d="M17.7413 0H16.4404L16.0352 1.43479H17.3752L17.7413 0Z" fill="#0A2240"/>
<path d="M38.2864 7.88788e-05H19.4732L19.1071 1.42847H21.0813L20.6499 3.12588H18.6692L18.1724 5.06669H16.4401L16.9304 3.12588H15.5511L14.5967 6.5143H18.277L17.6756 8.85224H20.506L19.7935 11.6258H22.2775L22.9835 8.85224H25.8075L26.4089 6.5143H33.8348H33.8282H37.8419L40.0383 3.40771L40.3194 6.5143H44.333L40.4959 8.42949L40.777 11.5297L38.123 9.61448L34.2858 11.5297L36.345 8.62165C36.0573 8.76898 35.7239 8.85865 35.4036 8.85865H27.7032L27.4613 9.80023H24.8858L20.9113 24.8143H28.6968L31.1547 16.3465H39.7964C43.529 16.3465 47.6603 13.5986 48.4121 8.16687C49.5953 -0.448294 38.2864 7.88788e-05 38.2864 7.88788e-05ZM24.0817 4.59911H25.9644L25.4937 6.43103H23.6111L24.0752 4.59911H24.0817Z" fill="#0A2240"/>
<path d="M80.8813 8.6084H74.3574V24.8203H80.8813V8.6084Z" fill="#0A2240"/>
<path d="M120.854 8.73047H114.33V24.8207H120.854V8.73047Z" fill="#0A2240"/>
<path d="M120.854 0.65332H114.33V6.41171H120.854V0.65332Z" fill="#0A2240"/>
<path d="M162.782 20.6572H156.258V24.8143H162.782V20.6572Z" fill="#0A2240"/>
<path d="M149.996 0.813192V8.05121L156.258 8.0384V18.4343H162.782V8.0384L169.378 8.05121V0.736328L149.996 0.813192Z" fill="#0A2240"/>
<path d="M104.963 15.7127V15.4565C109.604 14.406 109.604 12.0681 109.604 8.07755C109.604 2.09497 106.833 0.909987 101.191 0.820312H57.5704L40.8359 24.8211H47.6801L51.5107 18.6976H60.1133V24.8211H66.6371V8.60919H60.1133V14.5661H54.0993L60.1394 6.36733L100.165 6.38654C102.322 6.38654 102.878 6.98865 102.878 9.12803C102.878 11.8503 102.969 12.8687 100.165 12.8687H95.1118V9.17286H88.588V24.8147H95.1118V18.4286H100.165C102.126 18.4286 102.904 19.6392 102.838 21.4327V24.8083H109.362V19.9594C109.362 17.2436 107.63 15.8024 104.956 15.7127H104.963Z" fill="#0A2240"/>
<path d="M125.012 12.7146C125.012 14.4569 125.293 18.4154 125.293 18.4154C125.672 22.329 128.189 24.2058 131.732 24.7246C131.732 24.7246 134.967 25.0001 136.582 25.0001C138.197 25.0001 141.432 24.7246 141.432 24.7246C144.668 24.3339 146.544 22.8607 147.388 20.606C141.164 19.8053 133.32 8.61523 125.195 8.61523C125.116 9.98598 125.012 11.8563 125.012 12.7146Z" fill="#0A2240"/>
<path d="M147.878 7.01437C147.8 6.14965 147.577 5.33617 147.231 4.59315C146.231 2.45377 144.178 0.96133 141.439 0.705117C141.439 0.705117 138.177 0.429688 136.589 0.429688C134.915 0.429688 131.738 0.705117 131.738 0.705117C128.228 1.03179 125.881 3.23522 125.378 6.38664C125.43 6.38664 125.483 6.38664 125.535 6.38664C137.131 6.84142 141.518 17.9675 147.884 18.4094C147.898 18.2557 148.166 14.2524 148.166 12.7151C148.166 11.0049 147.884 7.01437 147.884 7.01437H147.878Z" fill="#0A2240"/>
</g>
<defs>
<clipPath id="clip0_557_383">
<rect width="179" height="25" fill="white"/>
</clipPath>
</defs>
</svg>
