<svg width="147" height="48" viewBox="0 0 147 48" fill="none" xmlns="http://www.w3.org/2000/svg">
<g clip-path="url(#clip0_557_560)">
<path d="M85.4397 36.2416L91.218 20.1848C93.1441 14.8409 86.0818 16.7796 84.4767 18.0224C83.242 18.9918 80.9702 21.1791 80.1306 23.4906L75.5377 36.2416H65.5615L71.3398 20.1848C73.2659 14.8409 66.2036 16.7796 64.5985 18.0224C63.3638 18.9918 61.092 21.1791 60.2524 23.4906L55.6595 36.2416H45.708L54.894 10.7646C58.0794 10.7646 59.7833 11.5102 61.2402 12.927C61.7587 13.449 62.1044 14.1201 62.2773 14.8409C63.7589 13.9212 65.3146 13.101 66.9197 12.405C69.389 11.3611 72.0559 10.7894 74.7475 10.7397C77.9329 10.7397 79.6368 11.4854 81.0937 12.9021C81.6123 13.4241 81.9827 14.0952 82.1308 14.816C83.6124 13.8964 85.1681 13.0761 86.7732 12.3802C89.2425 11.3362 91.9094 10.7646 94.601 10.7148C97.7865 10.7148 99.4903 11.4605 100.947 12.8773C102.379 14.2941 102.355 16.9039 101.836 18.3455L95.4159 36.1918M100.478 31.6681C103.639 32.2398 106.874 32.5381 110.084 32.5381C113.442 32.5381 115.887 31.7924 116.158 29.4808C116.282 28.3872 115.269 27.5918 113.368 26.5479C111.22 25.3548 109.392 24.7583 107.516 23.4906C105.639 22.223 104.824 20.2345 105.466 18.1467C106.207 15.686 107.911 14.2692 110.528 12.927C113.59 11.3611 116.01 10.7646 121.937 10.7646C125.591 10.7646 129.221 11.1125 132.826 11.8085L131.567 15.338C128.406 14.7663 125.171 14.468 121.961 14.468C118.603 14.468 116.158 15.2137 115.887 17.5253C115.763 18.6189 116.776 19.4143 118.677 20.4582C120.825 21.6513 122.653 22.2478 124.529 23.5155C126.406 24.7831 127.221 26.7716 126.579 28.8594C125.838 31.3201 124.134 32.7369 121.517 34.0791C118.455 35.645 116.035 36.2416 110.133 36.2416C106.479 36.2416 102.849 35.8936 99.2681 35.1976L100.478 31.6681ZM136.629 11.7836L135.296 15.4871C138.703 14.8409 142.185 14.4929 145.667 14.4432L147 10.7397C143.519 10.7894 140.062 11.1374 136.629 11.7836ZM137.815 36.2416L144.753 17.0033C141.272 17.053 137.814 17.401 134.382 18.0472L127.838 36.2416H137.815Z" fill="#020203"/>
<path d="M39.3613 8.15424C34.9165 5.07214 26.7923 1.26923 20.0264 0.0264542C19.8782 0.0015986 19.73 0.0015986 19.5819 0.0264542C13.0134 1.24438 5.01274 4.97272 0.271606 8.15424C0.123445 8.27852 0.0246717 8.45251 0.0246717 8.6265C-2.17631e-05 18.4196 1.75321 26.1248 4.14847 31.8914C5.70416 35.5948 8.22289 39.87 11.5565 42.8775C13.9024 45.0648 16.6434 46.7799 19.6066 47.9481C19.7547 47.9978 19.9029 47.9978 20.051 47.9481C23.0389 46.7799 25.7552 45.0648 28.1011 42.8775C31.4594 39.87 33.9781 35.396 35.5091 31.8914C38.2254 25.2549 39.6823 17.4751 39.6329 8.6265C39.6329 8.45251 39.5342 8.27852 39.3613 8.15424Z" fill="#A7A9AB"/>
<path d="M34.4723 31.3948C33.3611 33.9798 30.9411 38.7769 27.3606 41.9833C25.2123 43.9966 22.7182 45.6122 20.0019 46.7307C19.9526 46.7556 19.9032 46.7556 19.8538 46.7556C19.8044 46.7556 19.7303 46.7556 19.6809 46.7307C16.9646 45.5873 14.4706 43.9966 12.3223 42.0081C9.50723 39.448 6.9885 35.67 5.18588 31.3948C2.51899 25.0566 1.23493 17.6745 1.18555 9.19873C1.18555 9.04959 1.25963 8.92531 1.3584 8.85075C6.79096 5.29639 14.1249 2.18944 19.7303 1.14551H19.8785C22.496 1.66748 25.0641 2.41314 27.5334 3.38251C31.3115 4.79928 34.9415 6.61374 38.3245 8.80104C38.4479 8.8756 38.4973 8.99988 38.4973 9.12416C38.4726 17.5005 37.1392 24.8826 34.4723 31.3948Z" fill="#E52629"/>
<path d="M26.6691 10.5902C26.8419 10.6151 27.0148 10.6399 27.1877 10.6897C27.3852 10.8139 27.3852 11.0873 27.5087 11.311C26.7432 11.4353 26.4962 10.8885 26.1258 10.466C26.2493 10.466 26.4468 10.5405 26.6691 10.5902ZM11.4579 29.2319C9.359 26.3735 8.93921 22.5955 10.3467 19.3394C13.384 11.8827 21.5822 13.9209 22.3724 14.2192C22.3477 13.5232 22.8416 12.9267 23.533 12.8024C23.7306 12.7527 23.9528 12.7527 24.1504 12.7775C24.1997 12.7775 24.2491 12.8272 24.1997 12.8272C23.4096 13.0261 22.8169 13.4486 22.8416 14.1943C22.8663 14.8903 23.5824 15.3874 24.1751 15.5116C24.4467 15.5614 24.743 15.5365 24.9899 15.3874H25.0146C25.1134 15.3128 25.2122 15.2631 25.311 15.2382C25.5579 15.1637 25.8048 15.1388 26.0518 15.2134C26.1258 15.2382 26.2493 15.3377 26.3728 15.3377C26.4468 15.3377 26.5703 15.2134 26.6691 15.2134C27.1383 15.1885 28.1754 15.5614 28.2001 15.8099C28.2248 15.9839 27.9531 16.1827 27.805 16.307C27.6568 16.4313 27.484 16.5307 27.2864 16.6053C27.237 16.6301 27.2617 16.6301 27.2864 16.6301C28.1013 16.5307 29.5829 15.9839 29.3607 17.003L29.2866 17.2267C29.2866 17.2267 29.2866 17.2515 29.3113 17.2515C30.1262 16.9781 30.3731 16.2573 30.2496 15.2879C30.2496 15.2631 30.2249 15.2631 30.2249 15.2879C30.1509 15.4122 30.0521 15.5116 29.9533 15.5862C29.9533 15.3128 29.978 14.9151 29.8052 14.7163H29.7805C29.8545 15.114 29.6076 15.5116 29.2372 15.6359C28.9656 15.1388 28.6199 14.6666 28.2495 14.244H28.2248C28.2248 14.3931 28.2248 14.5671 28.1754 14.7163C28.1754 14.7163 28.1507 14.7411 28.1507 14.7163C28.0519 14.4429 27.805 14.2689 27.5334 14.244C27.3358 14.2192 27.1383 14.2689 26.916 14.244C26.6197 14.1943 26.2987 13.9955 26.274 13.7718C26.2493 13.4238 26.8913 13.2498 27.2123 13.1752C27.3111 13.3741 27.3852 13.5729 27.4346 13.7966C27.4346 13.8215 27.4593 13.8215 27.4593 13.8215C27.8297 13.4735 28.3236 13.2746 28.8174 13.2249C28.9656 13.2249 29.2866 13.2746 29.336 13.3741C29.4594 13.6226 29.1631 13.896 29.0644 13.9955C28.8915 14.1694 28.9656 14.1446 28.9903 14.1446C29.4348 13.9706 29.8298 13.6972 30.1509 13.3741C30.3484 13.722 30.4472 14.1446 30.3978 14.5423C30.3978 14.5423 30.3978 14.5671 30.4225 14.5671H30.4472C30.8423 14.1197 30.867 13.4486 30.8176 12.6781C31.2127 12.8024 31.5337 13.0509 31.8053 13.3741C31.83 13.3989 31.8547 13.3989 31.83 13.3741C31.6078 12.9764 31.2868 12.6533 30.9164 12.4047C30.7682 12.3301 30.62 12.2556 30.4966 12.1561C30.3978 12.0567 30.2743 11.7336 30.1509 11.7087C29.978 11.6839 29.7805 11.8579 29.5829 11.8827C29.2372 11.9076 29.0644 11.659 28.9903 11.3359C28.1507 11.5845 27.8297 11.0625 27.6568 10.4411L27.5827 10.0683C27.5087 9.91913 27.1877 9.77 27.0148 9.69543C26.7679 9.59601 26.4962 9.57116 26.2246 9.59601C26.0024 9.67058 25.7554 9.72029 25.5332 9.77C24.8418 9.74514 24.1751 9.5463 23.6071 9.19832C22.002 8.32837 20.5698 7.13531 19.4092 5.71854C19.3598 5.66882 19.3598 5.71854 19.3598 5.74339C20.1253 7.533 21.4341 9.04919 23.1132 10.0434C21.2859 9.57116 19.6068 8.72606 18.1252 7.533C18.1005 7.50814 18.0511 7.48328 18.1005 7.55785C18.7672 8.4278 19.5327 9.19832 20.397 9.86942L20.4217 9.89428C19.187 10.3914 17.3597 10.5902 15.8781 10.9382C15.804 10.9631 15.804 10.9879 15.8534 10.9879C16.7176 11.0376 17.5819 11.1619 18.4215 11.3359H18.3968C15.0385 11.4602 12.1247 12.4544 10.0998 14.3434C10.0751 14.3683 10.0998 14.3931 10.1245 14.3683C10.6184 14.1446 11.1122 13.9706 11.6061 13.8215C11.1122 14.2937 10.5937 14.766 10.1492 15.2631C9.48246 16.0088 9.18614 15.959 8.86513 15.4371C8.61819 15.1637 8.61819 14.2937 8.9639 14.1197C9.38369 14.244 9.65532 13.896 9.60593 13.4983C9.53185 12.9515 8.91451 12.5787 8.54411 12.3301C8.49473 12.3053 8.47003 12.3053 8.49473 12.3301C8.69227 12.529 8.9639 12.7278 9.01329 13.0261C9.03798 13.1504 9.03798 13.3741 8.91451 13.4238C8.71697 13.4735 8.61819 13.2746 8.42065 13.2995C8.24779 13.3244 8.17371 13.6226 8.14902 13.8215C8.09963 14.07 8.09963 14.3186 8.09963 14.592C8.09963 14.7163 8.14902 14.9151 8.05024 15.0145C7.92678 14.9648 7.90208 14.8157 7.8527 14.6914C7.58107 14.2689 7.4576 13.7469 7.4823 13.2249C7.55638 13.2001 7.70454 13.2249 7.77862 13.1752C7.75392 12.8521 7.60576 12.529 7.35883 12.3301C7.01312 12.007 6.54395 11.8827 6.09946 11.9822C6.07477 11.9822 6.07477 12.007 6.09946 12.007C6.42048 12.0567 7.01312 12.1313 7.03781 12.4296C7.03781 12.5538 6.88965 12.7278 6.84027 12.8272C6.66741 13.4238 6.79088 14.0452 7.16128 14.5423C7.33413 14.766 7.55638 14.9648 7.40821 15.3625C7.21067 15.3128 7.03781 15.2382 6.88965 15.1388C6.64272 15.0394 6.44517 14.8654 6.27232 14.6666C6.14885 14.4429 6.14885 14.1943 5.976 14.0203C5.50682 13.4983 4.76602 13.3244 4.12399 13.5978C4.0993 13.5978 4.0993 13.6226 4.12399 13.6226C4.64255 13.5978 5.11173 13.6475 5.30927 13.9955C5.40805 14.1943 5.45743 14.418 5.48213 14.6417C5.48213 14.7411 5.45743 14.8654 5.50682 14.94C5.5809 15.0891 5.85253 15.0642 6.00069 15.1388C6.19824 15.2631 6.3217 15.5614 6.54394 15.7602C6.59333 15.8099 6.66741 15.8596 6.74149 15.9093C7.0872 16.1082 7.80331 16.2822 8.07494 16.5556C8.49473 16.9781 8.27249 17.6989 8.12432 18.1712C7.92678 18.6683 7.828 19.1903 7.80331 19.7122C7.80331 19.7371 7.828 19.762 7.828 19.7371C8.2231 19.2897 8.66758 18.892 9.18614 18.5689C8.69227 19.6128 8.27249 20.7065 7.97616 21.825C7.70454 22.8441 7.28475 24.5342 7.92678 25.5036C7.92678 25.5285 7.95147 25.5285 7.95147 25.5036C8.00086 25.1805 8.00086 24.8076 8.2231 24.6585C8.86513 26.4481 9.92695 28.0637 11.3345 29.3314C11.4579 29.3065 11.4826 29.2817 11.4579 29.2319Z" fill="white"/>
<path d="M15.8783 20.5578C20.6935 21.9745 24.8667 18.9919 25.731 17.8982C25.8791 17.7242 25.8297 17.6994 25.6816 17.7988C24.9655 18.3953 24.1753 18.8676 23.3357 19.2653C19.8292 21.0052 16.1252 20.0855 16.0264 19.8618C15.9277 19.6878 16.2734 19.7127 16.2734 19.7127C23.7802 19.4641 25.2618 16.1583 25.2371 16.034C25.2371 15.9098 25.1136 16.0589 25.1136 16.0589C23.1628 18.619 18.1007 18.8924 18.1007 18.8924C16.7672 19.0167 15.6807 18.793 15.014 18.1716C14.8412 17.9976 14.7177 17.7988 14.6189 17.5751H14.5942C14.4955 17.7739 14.3473 17.9479 14.1991 18.1219C14.0263 18.3456 13.7547 18.445 13.5818 18.3208C13.0385 17.9479 14.4955 15.86 15.656 14.9404C15.7054 14.8907 15.8783 14.7415 15.7795 14.7913C13.2361 15.86 11.3347 18.0722 10.6433 20.7815C10.421 21.5768 10.3223 22.4219 10.3223 23.2422C10.3223 24.0873 10.421 24.9323 10.6186 25.7526C10.9149 27.0699 11.4088 28.3376 12.0508 29.5058C12.1002 29.5803 12.1002 29.5306 12.1249 29.5306C12.2977 29.2075 12.4459 28.8595 12.5447 28.4867C12.6434 28.0642 12.7916 27.6416 12.9645 27.2439C13.4336 26.4734 15.9277 26.6722 15.2363 26.1503C15.0387 26.0011 14.8412 25.8271 14.6683 25.6283C14.3226 25.2555 14.0016 24.8578 13.7053 24.4352C13.0632 23.5653 12.6681 22.5213 12.5941 21.4277C12.5941 21.378 12.6188 21.378 12.6434 21.4277C13.1867 22.9936 14.3473 24.2612 15.8289 24.9572C16.6438 25.3052 17.4834 25.5289 18.3476 25.6283C18.4217 25.6283 18.4217 25.6034 18.3476 25.6034C16.4956 25.1809 14.6436 23.9133 13.8781 22.3971C13.8781 22.3971 13.5571 21.9 13.7547 21.8005C13.9522 21.7011 14.2732 22.1237 14.5942 22.4219C15.261 23.0185 16.0758 23.4907 16.9401 23.7393C18.2489 24.1121 19.6317 24.137 20.9651 23.8387C21.0145 23.8387 21.0145 23.8138 20.9651 23.8138C19.8045 23.9381 18.6193 23.8387 17.5081 23.4907C15.261 22.6208 14.5942 21.5023 14.7671 21.3034C14.9893 21.0549 17.6068 23.5653 21.8788 21.6763C22.7678 21.2786 23.5826 20.7566 24.3234 20.1352C24.3728 20.0855 24.3481 20.0358 24.3234 20.0606C22.8912 20.8312 21.5084 21.6265 19.4094 21.7508C18.1254 21.8254 16.8413 21.5023 15.7301 20.856C15.5573 20.7317 15.4832 20.6572 15.5573 20.5826C15.656 20.4583 15.8783 20.5578 15.8783 20.5578Z" fill="white"/>
<path d="M32.8421 27.8649C32.6199 28.014 32.3729 28.0637 32.1013 28.0389C31.9038 28.014 31.7062 28.014 31.5087 28.0389C31.4593 28.0389 31.4346 28.0637 31.4099 28.0886C31.0642 28.4117 30.8666 28.2626 30.8913 28.0389C30.916 27.8649 30.9407 27.6909 31.0148 27.5169C31.1877 27.2435 31.3111 26.9452 31.4346 26.6221C31.484 26.3487 31.4099 26.0753 31.2864 25.8267C31.237 25.7024 31.0642 25.2302 31.6568 25.255C31.7309 25.255 31.805 25.2302 31.8544 25.1805C32.2742 24.8573 32.4964 24.3602 32.4717 23.8383C32.4717 23.8134 32.447 23.7885 32.447 23.8134C32.3235 24.0371 32.1013 24.2111 31.8791 24.3105C31.6815 24.3851 31.5087 24.4845 31.3358 24.5839C31.2864 24.6336 31.2617 24.6833 31.237 24.7331C31.0642 25.1556 30.8666 24.9816 30.8419 24.9319C30.7185 24.7082 30.5209 24.5094 30.2987 24.3602C29.632 23.9874 28.8665 23.8383 28.101 23.9128C27.7306 23.9377 27.3602 23.9874 27.0145 24.0371C26.8416 24.062 26.6688 24.0868 26.5206 24.0868C25.8292 24.1117 26.2984 23.3163 26.8663 23.1672C27.2861 23.0429 27.7553 23.1423 28.0763 23.4406C28.101 23.4654 28.1257 23.4654 28.1257 23.4406C27.9034 22.8937 26.9651 20.955 23.6562 21.2284C23.6068 21.2284 23.6068 21.2533 23.6315 21.2781C24.3229 21.4024 24.9649 21.6012 25.6069 21.9244C25.8045 22.0238 26.1996 22.3221 26.1008 22.7446C25.9279 23.1423 25.6316 23.4903 25.2612 23.7388C24.9649 23.8383 24.6439 23.8134 24.3723 23.6643C23.7302 23.3163 23.3104 22.6452 23.2364 21.9244C23.2364 21.9244 23.2117 21.8747 23.2117 21.9244C22.9647 23.018 23.6315 24.1117 24.718 24.3602C24.7674 24.3851 24.8414 24.3851 24.8908 24.3851C25.2118 24.4596 25.1871 25.0313 25.1131 25.3047C25.039 25.6279 24.5451 25.6527 24.1747 25.603C23.829 25.5533 23.508 25.4042 23.2364 25.2053C22.7919 24.8573 22.4215 24.4348 22.1252 23.9625C22.0758 23.888 22.0511 23.888 22.0758 23.9625C22.3474 24.6336 22.7919 25.2302 23.3845 25.6527C24.1006 26.1995 24.9896 26.4729 25.9033 26.3984C26.4959 26.3487 27.0638 26.2244 27.6318 26.0255C27.6812 26.0007 27.6812 25.9758 27.6318 25.9758C26.8663 25.9758 25.9033 25.9758 25.7057 25.4539C25.6316 25.2799 25.5822 24.5342 25.9773 24.5591C26.5206 24.5839 27.0885 24.5591 27.6318 24.4596C28.1504 24.4596 28.6689 24.5342 29.1628 24.7082C29.5332 24.8325 29.8295 25.0562 30.0518 25.3793C30.4468 25.951 30.3481 26.9452 30.1999 27.7654C30.0518 28.4614 29.8295 29.1325 29.5579 29.8036C29.0393 31.1209 27.9775 33.1343 27.1379 33.8799C26.0514 34.725 24.7674 35.3215 23.4092 35.6198C22.7919 35.7938 22.1499 35.8932 21.5325 35.9181C20.0262 35.9927 18.8162 35.769 18.0261 35.073C17.631 34.7002 17.3593 34.2528 17.1618 33.7556C16.9148 32.5377 17.5816 32.1897 19.2113 32.6869C19.7299 32.836 20.0509 32.3886 20.446 32.3637C20.6436 32.3637 20.7917 32.488 20.9646 32.4383C21.088 32.4134 21.1868 32.1897 21.2856 32.0406C21.3844 31.8915 21.5078 31.7672 21.656 31.6678C22.1252 31.3944 22.619 31.7175 22.94 31.9163C22.9647 31.9412 22.9894 31.9163 22.9894 31.8915C22.5203 31.2701 21.6807 31.0712 20.9646 31.3695C20.8164 31.4441 20.6683 31.6429 20.4954 31.7672C20.1497 31.8915 19.7793 31.9412 19.4336 31.8666C19.3101 31.8666 19.162 31.8915 19.0632 31.8169C19.162 31.3198 19.6311 31.3198 19.9768 31.0961C20.5448 30.8227 20.9152 30.251 20.9893 29.6296C20.9893 29.5302 20.9646 29.4059 21.0387 29.3065C21.1127 29.2071 21.2856 29.2071 21.4584 29.2319C21.6807 29.2816 21.9276 29.3562 22.1252 29.4556C22.1745 29.4805 22.0511 29.3562 22.0017 29.3065C21.3597 28.7845 20.1744 29.0331 19.9028 29.6048C19.8534 29.7042 20.125 29.7042 20.1497 29.8285C20.1744 29.9527 19.9768 30.1516 19.8781 30.251C19.6558 30.4996 19.3842 30.6984 19.1126 30.8724C18.9644 30.9718 18.8409 31.1209 18.6681 31.1209C18.7669 30.8475 18.915 30.5741 19.0879 30.3504C19.1866 30.1516 19.4336 29.6296 19.3101 29.4308C19.2113 29.3065 18.7915 29.3811 18.7422 29.2071C18.6928 29.0828 18.7915 28.9337 18.8656 28.8591C19.1126 28.6602 19.4089 28.5111 19.7299 28.4614C19.7793 28.4614 19.7546 28.4365 19.7052 28.4365C19.1373 28.4614 18.2483 28.6602 18.0261 29.0828C17.8779 29.3313 17.952 29.6793 18.2236 29.8285C18.273 29.8533 18.3224 29.8782 18.3718 29.8782C18.4952 30.3256 18.2483 31.0961 17.6803 31.1707C16.9148 31.2701 16.3469 30.7481 16.6679 29.4059C16.6679 29.4059 16.6679 29.3562 16.6432 29.3811L16.5691 29.4556C16.5198 29.5053 16.4951 29.555 16.4457 29.5799C15.9271 30.0522 14.7912 30.773 13.8282 30.3007C13.6306 30.2013 13.4825 30.0522 13.3837 29.8533C12.9145 28.8342 13.9763 28.1134 14.7665 28.2626C15.1122 28.3123 15.4085 28.5608 15.3592 28.9337C15.2851 29.1822 15.0628 29.3562 14.7912 29.3313C14.6184 29.3313 14.4702 29.2568 14.322 29.1574C14.1739 29.0082 14.1492 28.8591 14.1245 28.9088C13.8529 30.1019 15.5073 30.0273 16.0753 29.4556C16.6679 28.9585 16.7914 28.0886 16.3716 27.4423C16.0753 27.0198 15.5567 26.8209 15.0381 26.8706C14.5196 26.8955 14.001 27.0446 13.5318 27.2932C13.0874 27.6412 12.9886 28.3123 12.8651 28.8839C12.7664 29.4556 12.5194 29.9776 12.149 30.4001C12.149 30.425 12.149 30.425 12.1737 30.425C12.4453 30.4001 12.6923 30.4996 12.8651 30.6735C13.2355 31.0215 12.5935 30.7481 12.1737 30.9967H12.149C11.3094 31.5435 10.7662 32.4632 10.7168 33.4574C10.7168 33.5071 10.7415 33.5568 10.7662 33.5071C11.0625 33.1094 11.4823 32.7863 11.9515 32.6371C12.3219 32.5377 12.6923 32.3886 13.038 32.2146C13.1614 32.14 13.2355 31.9909 13.2602 31.8666C13.3343 31.5435 13.6553 31.4938 13.6306 31.7921C13.6059 32.2395 13.2849 32.5874 13.4825 33.1094C13.68 33.6562 14.248 33.9048 14.7418 34.2279C14.8406 34.3025 15.1122 34.5262 14.3467 34.7747H14.2973C14.2727 34.7747 14.2727 34.7996 14.248 34.7996C14.2233 34.7996 14.2233 34.7996 14.1986 34.8244C13.4825 35.2967 13.038 36.0672 12.9886 36.9123C12.9886 36.962 13.0133 36.9869 13.0133 36.962C13.2602 36.614 13.6059 36.3655 14.0257 36.2163C14.3467 36.1169 14.6431 35.9926 14.9394 35.8435C15.0381 35.7689 15.0875 35.6944 15.1122 35.5701C15.3345 34.9487 15.532 35.2221 15.5567 35.421C15.5814 35.6198 15.6555 35.8187 15.7543 35.9927C16.0012 36.3903 16.5938 36.3406 17.1618 36.4401C17.3593 36.4649 17.5816 36.6389 17.1124 36.8875C17.063 36.9123 17.0136 36.9372 16.9889 36.9869C16.421 37.5834 16.1494 38.4036 16.2975 39.2239C16.2975 39.2736 16.3222 39.2984 16.3469 39.2487C16.5198 38.8759 16.7914 38.5528 17.1371 38.3291C17.4087 38.1799 17.6803 38.006 17.9026 37.7823C17.9767 37.6828 18.0261 37.5834 18.0014 37.4591C17.9767 36.8626 18.2977 36.962 18.3965 37.1112C18.5693 37.3846 18.6928 37.6828 19.0385 37.8071C19.3348 37.8568 19.6558 37.8071 19.9274 37.6828C20.1497 37.6331 20.3472 37.5834 20.5695 37.5586C20.9399 37.5088 20.8164 37.8568 20.6189 38.1054L20.5942 38.1302V38.1551C20.5695 38.1799 20.5695 38.2048 20.5448 38.2297C20.2732 38.8759 20.3225 39.6216 20.6929 40.2181C20.7176 40.2678 20.7423 40.2678 20.7423 40.2181C20.7423 39.8701 20.8658 39.5221 21.088 39.2487C21.2609 39.0499 21.4091 38.8262 21.5325 38.5776C21.5572 38.5031 21.5572 38.4285 21.5325 38.3788C21.5078 38.3291 21.5325 38.3788 21.5325 38.3539V38.3291C21.335 37.7574 21.6313 37.6828 21.8782 37.7574C22.298 37.9065 22.7425 37.9065 23.1623 37.7574C23.508 37.6083 23.8043 37.3846 24.0759 37.136C24.3229 36.8875 24.5945 36.6638 24.9155 36.4898C25.1378 36.4152 25.2612 36.5395 25.2118 36.9372C25.1871 37.0366 25.2118 37.1112 25.2365 37.1857C25.5082 37.7574 26.0514 38.1551 26.6688 38.2794C26.7181 38.2794 26.7181 38.2794 26.6934 38.2545C26.4712 38.0308 26.2984 37.7574 26.249 37.4343C26.1996 37.1857 26.1502 36.962 26.0514 36.7383C26.0267 36.7135 26.002 36.6637 25.9773 36.6389L25.9526 36.614C25.928 36.5892 25.9033 36.5892 25.8786 36.5643C25.4835 36.3406 25.6316 36.0424 26.0267 35.9429C26.8416 35.769 27.7553 35.5701 28.1751 35.0233C28.3973 34.6504 28.5455 34.2528 28.5948 33.8302C28.6689 33.4574 28.7677 33.0845 28.8912 32.7366C28.9405 32.5874 28.9899 32.1649 29.632 32.6869C29.706 32.7614 29.7801 32.7863 29.8789 32.8111C30.4962 32.8857 31.1136 32.6371 31.5581 32.1649C31.5827 32.14 31.5827 32.1152 31.5581 32.1152C31.2617 32.1897 30.9407 32.1897 30.6444 32.0655C30.4222 31.966 30.1752 31.8915 29.953 31.8418H29.8542C29.064 31.9909 29.4591 31.5186 29.5332 31.4192C29.7554 31.0961 30.0518 30.8475 30.274 30.5244C30.5456 30.0273 30.7185 29.4556 30.7679 28.8839C30.7926 28.7597 30.8666 28.4365 31.5087 28.6354C31.5334 28.6602 31.5581 28.6602 31.6074 28.6602H31.7556C32.2742 28.5608 32.6939 28.2377 32.9162 27.7654C32.8668 27.8649 32.8668 27.8649 32.8421 27.8649Z" fill="white"/>
</g>
<defs>
<clipPath id="clip0_557_560">
<rect width="147" height="48" fill="white"/>
</clipPath>
</defs>
</svg>
