<svg width="115" height="37" viewBox="0 0 115 37" fill="none" xmlns="http://www.w3.org/2000/svg">
<g clip-path="url(#clip0_557_474)">
<path fill-rule="evenodd" clip-rule="evenodd" d="M79.0547 22.2536H68.9135C68.619 22.3295 68.7709 22.2916 68.573 23.1221C68.0761 25.2721 66.7647 27.0518 64.6711 27.9393C62.2554 28.955 58.7907 28.9408 56.4486 27.8682C51.2676 25.4904 50.1218 18.6704 51.9393 14.0193C52.8412 11.7032 54.5437 9.9092 56.7891 8.99321C59.1634 8.02028 62.7662 8.1152 64.9886 9.21628C67.0454 10.2414 68.1451 12.0354 68.573 14.266C68.6926 14.8783 68.6466 14.7929 69.2816 14.7881C72.4887 14.7501 75.8016 14.8878 78.9903 14.7739C79.1422 12.529 77.9228 9.34442 77.0026 7.83993C75.866 5.98423 74.3384 4.43703 72.5577 3.27425C68.3291 0.507322 63.9165 -0.304248 57.944 0.0944183C52.4225 0.459862 48.2537 2.51014 45.3825 5.37674C39.0879 11.6747 38.4208 24.8022 45.4055 31.5748L46.5512 32.6521C49.5697 35.2909 53.9685 36.5676 57.9762 36.8951C63.392 37.3365 68.7386 36.3968 72.5025 33.8434C75.5578 31.7694 78.7603 27.8492 79.0547 22.2394V22.2536ZM0 11.575L13.0216 11.5845L13.0354 35.6564L24.6675 35.6659L24.6905 11.6035L37.703 11.5893V1.88842L0.0368103 1.85519L0 11.575ZM85.2941 35.6516L114.926 35.6754C115.032 34.916 115.023 26.7908 114.894 26.3779L96.5488 26.3637V1.86469L85.3079 1.83146C85.1422 2.72372 85.2573 28.4424 85.2573 31.4324C85.2573 32.5287 85.1422 34.6882 85.3033 35.6564L85.2941 35.6516Z" fill="#ED3237"/>
<path fill-rule="evenodd" clip-rule="evenodd" d="M85.3539 35.5565H114.821L114.853 26.5153C113.62 26.5058 97.2299 26.634 96.5489 26.4441C96.4522 26.2116 96.4568 26.3113 96.4568 26.017V1.94043H85.3539L85.3447 35.547L85.3539 35.5565Z" fill="#ED3237"/>
</g>
<defs>
<clipPath id="clip0_557_474">
<rect width="115" height="37" fill="white"/>
</clipPath>
</defs>
</svg>
