<svg width="116" height="28" viewBox="0 0 116 28" fill="none" xmlns="http://www.w3.org/2000/svg">
<path d="M115.419 1.32939C115.01 0.784343 114.602 0.375596 112.558 0.239348C112.013 0.239348 110.378 0.102791 107.516 0.102791C100.022 0.102791 94.8445 2.41913 92.2556 6.91559C92.9368 2.41913 88.5767 0.102791 79.0388 0.102791C67.8658 0.102791 60.7805 4.59925 57.9191 13.7284C56.8291 17.1347 56.8291 19.8599 57.6466 22.0399H54.9215C52.8776 22.1765 50.1526 22.3125 48.3812 22.3125C44.2936 22.3125 41.7047 21.6312 40.7509 20.2687C39.9333 19.0424 39.9333 16.726 41.0234 13.3196C42.7948 7.73314 47.0187 5.28053 53.8315 5.28053C57.3741 5.28053 60.7805 5.68941 60.7805 5.68941C61.1894 5.68941 61.4618 5.14442 61.4618 4.73567L61.3252 4.32678L61.053 2.41919C60.9164 1.19292 59.963 0.511649 58.3279 0.239096C56.829 0.102539 55.6028 0.102539 53.9677 0.102539H53.8311C44.9745 0.102539 38.7067 3.10018 35.3004 8.82294C36.5267 2.96393 32.439 0.102539 23.0373 0.102539C17.7234 0.102539 13.9082 0.239096 11.7281 0.511425C9.95682 0.783699 8.86675 1.46522 8.45795 2.69149L7.64043 5.14411C7.50387 5.55299 7.77698 5.82538 8.32175 5.82538C8.73064 5.82538 10.3655 5.55283 13.0907 5.41647C16.7696 5.14391 19.3584 5.00758 21.1298 5.00758C26.3075 5.00758 28.6238 6.37018 27.8063 8.95899C27.6698 9.50404 27.2613 9.91279 26.58 10.049C21.6748 10.8666 17.7234 11.4116 14.862 11.8204C6.68668 12.9105 1.91772 15.363 0.691402 19.4507C-1.07992 25.0372 3.28027 27.7623 13.772 27.7623C18.9497 27.7623 23.4461 27.4897 26.9888 26.8085C29.0326 26.3996 30.1227 25.991 30.5314 24.6284L32.439 18.3607C32.3024 24.6284 36.5266 27.7623 45.5195 27.7623C49.3347 27.7623 53.0136 27.6257 54.7849 27.3534C56.5563 27.0808 57.5101 26.6721 57.9188 25.3095L58.3277 23.402C60.2353 26.3996 64.4593 27.8984 70.8633 27.8984C77.676 27.8984 81.6275 27.7618 82.7175 27.3534C83.6712 27.0808 84.2163 26.5358 84.4888 25.8546C84.4888 25.718 84.4888 25.582 84.6254 25.4457L85.4429 22.8568C85.5794 22.4479 85.3063 22.1755 84.7616 22.1755L80.4014 22.4481C77.5401 22.5847 75.2237 22.7207 73.5887 22.7207C70.4548 22.7207 68.4109 22.4481 67.1846 22.0393C65.4133 21.3581 64.5957 20.1318 64.732 18.0879L78.4938 16.3166C84.6253 15.499 88.8492 13.5915 90.8931 10.5938L86.1242 26.5358C85.9876 26.8083 86.1242 27.0808 86.2607 27.2171C86.3973 27.3536 86.6696 27.4896 87.2144 27.4896H92.9372C93.891 27.4896 94.2998 26.9446 94.4361 26.5358L99.4775 8.95882C100.159 6.64248 102.203 5.55246 106.018 5.55246C109.424 5.55246 111.877 5.55246 113.512 5.68902H113.648C113.921 5.68902 114.466 5.55246 114.875 4.87147L115.692 2.41888C115.692 2.00999 115.692 1.60186 115.419 1.32939ZM23.5827 22.3128C21.8114 22.5853 19.2225 22.7217 15.9524 22.7217C10.0934 22.7217 7.64082 21.4953 8.32209 19.179C8.86708 17.5439 10.3659 16.4539 12.8185 16.1814L26.0353 14.4101L23.5827 22.3128ZM84.489 8.14214C83.944 9.91349 81.3551 11.1398 76.7224 11.8211L65.6857 13.3199L65.9583 12.3661C66.9121 9.36849 68.1384 7.46087 69.7735 6.37088C71.4086 5.28081 74.1336 4.73581 77.9488 4.73581C82.9902 4.87237 85.1703 5.96208 84.489 8.14214Z" fill="#83B81A"/>
</svg>
