<svg width="118" height="65" viewBox="0 0 118 65" fill="none" xmlns="http://www.w3.org/2000/svg">
<path d="M18.9815 44.6704C18.9815 44.6784 18.9805 44.6859 18.9805 44.6943C21.1856 45.1487 23.7278 47.6507 24.9382 51.2008V51.1812C25.8634 52.8919 28.2462 52.2988 28.2462 52.2988C26.6579 50.9166 26.1294 49.0736 26.1294 49.0736C26.1294 49.0736 26.9528 50.9166 30.1742 50.9166C29.2058 49.7326 27.9906 48.7006 27.2615 46.399C26.7357 44.7327 26.5904 42.3259 26.6283 41.6748C24.9547 43.71 21.8189 45.277 18.9815 44.6704Z" fill="#EEE800"/>
<path d="M24.9013 41.152C28.0943 40.9557 32.0824 38.4345 35.2037 35.2733C32.1306 34.2193 28.5788 33.837 25.1394 35.4733C22.2262 36.8611 20.3976 39.4534 19.2694 41.8751C19.1253 42.8014 19.0292 43.7346 18.9814 44.6708C21.8187 45.2776 24.9551 43.7102 26.6287 41.675C26.633 41.6091 26.6373 41.5563 26.6452 41.5274C26.6443 41.5293 25.2351 41.6592 23.9116 41.1347C24.1376 41.1385 24.4764 41.156 24.9013 41.152Z" fill="#42A732"/>
<path d="M18.981 44.6943C18.974 44.826 18.9645 44.9566 18.9608 45.0906C18.9458 45.4656 18.9341 45.8464 18.9341 46.2377C18.9341 46.3036 18.9402 46.3676 18.9402 46.434V46.4929C18.9508 47.258 19.0025 48.0046 19.0912 48.7342C19.1747 49.4422 19.2919 50.1458 19.4424 50.8427C19.9728 53.2943 20.824 55.3627 21.5518 56.6733C21.5223 55.8526 22.0071 54.173 22.1615 53.8776C21.888 53.45 21.6123 51.5953 21.542 50.8119C21.5401 50.7749 21.5363 50.7399 21.534 50.7066C21.4904 50.221 21.4659 49.8943 21.5672 50.2593C21.6307 50.4879 21.7038 50.7029 21.7876 50.9114C22.9349 53.7706 25.8639 54.8013 25.8639 54.8013C25.5511 54.2872 25.3452 53.7066 25.2078 53.1639C24.9607 52.1843 24.9396 51.327 24.9387 51.2007C23.7282 47.6507 21.186 45.1491 18.981 44.6943ZM36.6143 62.2718C36.6143 62.2718 36.731 62.054 36.8365 61.9087C36.9537 61.7451 37.1516 61.6437 37.1516 61.6437C37.1516 61.6437 36.852 61.5426 36.5997 61.5567C36.3498 61.5698 36.1251 61.702 36.1251 61.702C36.1251 61.702 35.8827 61.4282 35.6767 61.2917C35.3387 61.0724 34.7651 60.9228 34.7651 60.9228C34.7651 60.9228 35.1272 61.3038 35.2922 61.568C35.4597 61.8343 35.5295 62.1083 35.5295 62.1083C35.5295 62.1083 35.4018 62.3302 35.1192 62.5014C34.8345 62.6723 34.5456 62.7659 34.5456 62.7659C34.5456 62.7659 35.0769 62.9585 35.2997 62.9855C35.4858 63.0103 35.868 62.9445 35.868 62.9445C35.868 62.9445 36.0008 63.3119 36.1251 63.5199C36.3001 63.825 36.6236 64.0336 36.6236 64.0336C36.6236 64.0336 36.6034 63.7255 36.6143 63.5573C36.6236 63.3628 36.6747 63.1684 36.6747 63.1684C36.6747 63.1684 36.9307 63.2829 37.2843 63.2558C37.6632 63.2267 38.0319 62.9272 38.0319 62.9272C38.0319 62.9272 37.509 62.7677 37.3082 62.6841C36.8684 62.5092 36.6143 62.2718 36.6143 62.2718ZM32.7842 61.2571C33.2748 61.4282 33.8178 61.7821 33.8178 61.7821C33.8178 61.7821 33.5382 61.1149 33.1636 60.707C32.7579 60.2658 32.3134 60.1101 32.3134 60.1101C32.3134 60.1101 32.5015 59.9174 32.5562 59.358C32.6018 58.9106 32.5319 58.0459 32.5319 58.0459C32.5319 58.0459 32.2847 58.4601 31.985 58.7691C31.8153 58.9396 31.5564 59.0836 31.5564 59.0836C31.5564 59.0836 31.1995 58.6073 30.8292 58.3409C30.3268 57.9738 29.7378 58.0786 29.7378 58.0786C29.7378 58.0786 30.1444 58.3993 30.3793 58.9733C30.5257 59.3303 30.5698 59.7216 30.5698 59.7216C30.5698 59.7216 30.0305 60.4424 29.8692 60.8546C29.7251 61.2203 29.6576 61.5058 29.6975 61.9339C29.6619 61.5642 30.5908 61.2492 30.8769 61.2595C31.0486 61.7142 31.2845 62.227 31.6395 62.5968C32.47 63.4578 33.4464 63.2717 33.4464 63.2717C33.4464 63.2717 32.6379 62.6122 32.4067 62.1939C31.9809 61.4337 32.0405 61.1206 32.0405 61.1206C32.0405 61.1206 32.4887 61.1543 32.7842 61.2571Z" fill="#EF7A00"/>
<path d="M26.6258 58.4868C26.6258 58.4868 27.0812 57.8566 27.4419 56.4535C26.6826 57.1981 25.2288 57.1471 25.2288 57.1471C25.2288 57.1471 24.7036 56.8325 24.1225 56.2726C23.7333 55.8934 23.2526 55.3083 23.2526 55.3083C23.2526 55.3083 23.1724 56.0977 23.2545 56.6863C23.3366 57.2732 23.5021 57.9034 23.5021 57.9034C23.5021 57.9034 23.3665 58.0356 23.0059 58.1366C22.6261 58.2386 22.1543 58.203 22.1543 58.203C22.1543 58.203 22.5352 58.8466 23.088 59.0757C23.3496 59.187 23.783 59.1751 23.783 59.1751C23.783 59.1751 23.7188 59.8104 24.0348 60.3858C24.4888 61.2202 25.4445 61.3034 25.4549 61.3034C24.9873 61.2646 24.8733 60.1022 25.0206 59.817C24.8889 60.075 26.3534 60.1741 26.4462 60.1778C27.8311 60.2302 28.8151 59.5267 28.8151 59.5267C28.8151 59.5267 27.7091 59.3518 27.3063 59.1088C27.0404 58.9472 26.6258 58.4868 26.6258 58.4868ZM29.0872 57.3803C29.0872 57.3803 30.1968 57.3555 30.723 57.0096C31.3046 56.6286 31.4288 56.2299 31.4288 56.2299C31.4288 56.2299 32.0112 56.4763 32.5646 56.9428C33.0594 57.3592 33.6066 58.2226 33.6066 58.2226C33.6066 58.2226 33.5682 57.1338 33.073 56.1925C32.6865 55.462 32.165 54.9581 32.165 54.9581C32.165 54.9581 32.3105 54.8435 32.6518 54.7603C32.9969 54.6762 33.3802 54.781 33.3802 54.781C33.3802 54.781 32.9694 54.2756 32.3394 54.1199C32.0474 54.0489 31.7322 54.0199 31.4467 54.0199C31.184 53.6872 30.8172 53.4398 30.4731 53.166C30.3464 53.065 28.9751 52.4158 28.9762 52.4004C28.9653 52.5846 29.5041 54.107 29.387 54.1364C28.5371 54.3457 27.9832 54.3069 27.0576 54.2022C27.4037 54.6183 27.754 54.8379 28.4499 55.2076C29.0366 55.5223 29.536 55.5689 29.536 55.5689C29.536 55.5689 29.5975 55.9267 29.4512 56.5445C29.387 56.8053 29.0872 57.3803 29.0872 57.3803Z" fill="#EF7A00"/>
<path d="M24.8001 28.3334C24.1549 28.3236 22.5327 28.3236 20.4027 28.526C21.9886 29.3445 26.2637 31.4553 29.4597 29.8848C28.8013 30.75 27.1192 31.5333 24.2523 30.5168C24.2523 30.5168 24.251 30.5168 24.2491 30.5148C24.166 30.6098 23.4748 31.4712 23.4269 31.5357C24.9582 32.6356 27.053 32.902 28.9692 32.0522C31.8523 30.7733 33.2316 27.4585 32.0615 24.6496C31.971 24.4319 31.8636 24.2276 31.7482 24.0275C31.6339 23.8277 31.5058 23.6361 31.3647 23.4541C31.4747 23.4286 31.5853 23.4052 31.6962 23.3838C33.337 23.0829 34.918 23.3703 36.2906 24.0702C36.6652 22.4296 37.6004 20.9699 38.936 19.9409C39.842 19.2412 40.8611 18.7863 41.9121 18.5667C41.1312 18.4461 40.2815 18.4363 39.3815 18.5508C35.4742 19.0467 32.5118 20.8215 30.5646 22.5267C31.314 21.4287 32.3667 20.5106 32.3667 20.5106C27.0956 13.6078 24.1198 5.29855 23.0692 1.75876C22.7581 0.710309 22.3034 0.695337 22.141 1.75876C21.9297 3.1478 21.7805 4.54552 21.6937 5.94778C22.0872 6.89288 22.7137 8.13292 23.3434 9.17488C22.6419 8.2845 22.0881 7.57908 21.6435 7.01531C21.6004 8.1194 21.5985 9.30101 21.6618 10.5205C22.3338 11.784 23.502 13.571 24.636 15.0289C24.636 15.0289 23.3159 13.7045 21.7912 12.2485C21.968 13.9514 22.2841 15.6897 22.8065 17.3556C23.2332 17.6996 25.1261 18.7883 25.1261 18.7883C14.5444 14.6418 6.0693 9.68247 1.79374 6.75455C0.57872 5.92247 0.224584 6.42782 0.824383 7.4332C1.13252 7.95206 1.51471 8.58023 1.96536 9.29346C5.70014 14.3968 9.16109 15.5163 9.16109 15.5163C9.16109 15.5163 7.44849 14.9834 5.39533 14.3207C10.3697 20.6641 16.716 22.3439 16.716 22.3439C16.716 22.3439 13.6904 21.7278 11.353 21.4493C18.032 27.6355 23.4954 28.2652 24.8001 28.3334Z" fill="#C70027"/>
<path d="M36.2907 24.0698C36.2293 24.3361 36.187 24.6077 36.1528 24.8803C36.5109 24.8654 36.8676 24.8258 37.2202 24.7616C37.2702 24.7524 37.3201 24.7421 37.3697 24.7307C39.2057 24.3592 40.9108 23.3233 42.08 21.6827C42.6729 20.8543 43.0922 19.9152 43.3129 18.9216C43.0098 18.7879 42.2554 18.5954 41.9121 18.5664C40.8612 18.7856 39.8416 19.2404 38.9357 19.9407C37.6 20.9694 36.6649 22.4292 36.2907 24.0698Z" fill="#8F1E22"/>
<path d="M44.7445 23.5878C44.4673 23.8289 43.9407 23.6812 43.5683 23.2549C43.1974 22.8315 43.1177 22.293 43.3948 22.0518C43.6715 21.8107 44.1972 21.9602 44.5714 22.3864C44.9423 22.8099 45.0226 23.3483 44.7445 23.5878ZM53.9699 34.738C53.6144 34.2523 50.8504 30.4752 49.7061 29.0505C48.5614 27.6215 48.1242 26.8807 47.714 24.8241C47.3036 22.7688 46.3263 20.9454 44.6901 19.7072C44.2677 19.3862 43.8046 19.1221 43.3128 18.9219C43.0922 19.9152 42.6731 20.8541 42.0804 21.6824C40.9107 23.3237 39.2061 24.3589 37.3701 24.7305C38.4454 25.5181 39.3336 26.5741 39.9433 27.7846C42.432 26.5638 44.8792 26.3249 47.3927 28.0782C49.905 29.8319 52.9012 34.6375 53.387 35.2811C53.8583 35.9052 54.4422 35.3841 53.9699 34.738Z" fill="#9E4394"/>
<path d="M38.5144 31.1484C38.3049 31.4691 38.198 31.6377 38.1558 31.7041C38.2783 31.5208 38.3979 31.3356 38.5144 31.1484Z" fill="#00A0E9"/>
<path d="M37.3405 29.7287C36.5212 30.2224 36.0683 30.5762 36.0683 30.5762C36.0683 30.5762 36.3767 30.1658 37.2134 29.5147C36.9457 29.0506 36.6587 28.4402 36.4589 27.9226C36.1381 26.9332 36.0405 25.8931 36.1526 24.8802C36.1873 24.6077 36.2295 24.3361 36.2908 24.0698C34.9179 23.3699 33.337 23.082 31.6961 23.3834C31.5851 23.4046 31.4746 23.428 31.3646 23.4537C31.5058 23.6355 31.6342 23.827 31.7486 24.0267C31.8635 24.2268 31.9709 24.4315 32.0614 24.6488C33.2319 27.458 31.8522 30.7725 28.9691 32.0518C27.0528 32.9016 24.9581 32.6352 23.4273 31.5349C22.199 33.1928 20.0808 36.6535 19.2695 41.8751C20.3983 39.4531 22.2263 36.8611 25.1395 35.4734C28.5789 33.8364 32.1308 34.2193 35.204 35.2733C36.3251 34.1398 37.3316 32.9245 38.1538 31.706C38.2395 31.5736 38.5353 31.1146 38.5382 31.1109C38.0612 30.6678 37.6236 30.1742 37.3405 29.7287ZM38.5382 31.1109C38.5312 31.1226 38.5233 31.1342 38.5144 31.1483C38.5233 31.1342 38.5312 31.125 38.5382 31.1109Z" fill="#00A0E9"/>
<path d="M38.1559 31.7041L38.154 31.706C38.1235 31.7473 38.1183 31.7573 38.1559 31.7041Z" fill="#00A0E9"/>
<path d="M38.5384 31.1113C38.5355 31.115 38.2396 31.5741 38.1538 31.7062C38.1538 31.7045 38.1557 31.7045 38.1557 31.7045C38.1978 31.6381 38.3048 31.4689 38.5145 31.1487C38.5234 31.1346 38.5313 31.123 38.5384 31.1113Z" fill="#00A0E9"/>
<path d="M38.5381 31.1106C38.998 30.3679 39.7789 28.8577 39.8798 28.4141C38.8429 28.8708 37.98 29.341 37.3403 29.7284C37.6231 30.1739 38.0611 30.6676 38.5381 31.1106Z" fill="#475AA7"/>
<path d="M37.37 24.7305C37.3204 24.7419 37.2705 24.7522 37.2205 24.7613C36.8677 24.8255 36.5109 24.8652 36.1526 24.8801C36.0405 25.893 36.138 26.933 36.4589 27.9225C36.6587 28.44 36.9457 29.0504 37.2139 29.5145C37.8193 29.0443 38.701 28.4474 39.9432 27.7841C39.3341 26.5735 38.4453 25.518 37.37 24.7305Z" fill="#475AA7"/>
<path d="M103.402 46.9067L106.314 41.3389L107.249 41.3412C107.531 41.3584 107.72 41.4595 107.87 41.7162L110.608 46.9067H103.402ZM111.608 40.6023C111.08 39.6496 110.786 39.4477 109.162 39.4477L105.342 39.4434L99.074 51.0728L101.492 51.0771L102.716 48.8194H111.583L112.855 51.0728H117.461L111.608 40.6023ZM74.5591 46.9067L77.4707 41.3389L78.4039 41.3412C78.6863 41.3584 78.8777 41.4595 79.0269 41.7162L81.7646 46.9067H74.5591ZM80.0923 39.4477L76.2726 39.4434L70.004 51.0728L72.422 51.0771L73.6487 48.8194H82.5131L83.7872 51.0728H88.3934L82.5398 40.6023C82.0122 39.6496 81.7201 39.4477 80.0923 39.4477ZM39.3695 46.9067L42.2817 41.3389L43.214 41.3412C43.4958 41.3584 43.6863 41.4595 43.8373 41.7162L46.5736 46.9067H39.3695ZM44.9037 39.4477L41.0812 39.4434L34.8149 51.0728L37.231 51.0771L38.4569 48.8194H47.3226L48.5954 51.0728H53.2016L47.3493 40.6023C46.8228 39.6496 46.5282 39.4477 44.9037 39.4477ZM101.501 39.5641L85.7775 39.558L85.7803 41.5819H91.8731L91.8816 51.0341H95.5404L95.5451 42.5345C95.5431 42.1653 95.5854 41.9105 95.6688 41.7942C95.7448 41.6848 95.8659 41.6053 96.2377 41.5997C96.2431 41.6012 96.2486 41.6018 96.2542 41.6015H101.515L101.501 39.5641ZM62.0461 49.3795H57.5115L57.5221 40.8569L62.028 40.8724C62.0421 40.8706 62.0529 40.8706 62.0655 40.8706C64.5235 40.8841 66.0207 41.9745 66.0344 45.1297C66.0244 47.8724 64.5156 49.3525 62.0461 49.3795ZM62.0116 39.1074L54.2385 39.1093L54.2427 51.1603H54.3173L62.0288 51.1529H62.0613C64.666 51.1529 66.583 50.8106 67.8591 49.8792C69.1342 48.9457 69.7443 47.4274 69.7414 45.1297C69.7542 40.4937 67.3314 39.1074 62.0116 39.1074Z" fill="#04338E"/>
</svg>
