<svg width="132" height="27" viewBox="0 0 132 27" fill="none" xmlns="http://www.w3.org/2000/svg">
<path d="M102.699 0.232422H95.4112L124.63 26.9864H131.918L102.699 0.232422ZM111.141 19.2724L102.712 26.9864H95.425L103.84 19.2724H111.141ZM123.503 7.94642L131.931 0.232422H124.644L116.215 7.94642H123.503ZM18.26 0.232422L15.2762 4.58642L30.4975 26.9864H36.52L18.26 0.232422ZM10.5325 11.5584H16.5L6.0225 26.9864H0L10.5325 11.5584ZM73.205 0.232422L70.2213 4.58642L85.4425 26.9864H91.465L73.205 0.232422ZM65.4775 11.5584H71.445L60.9675 26.9864H54.945L65.4775 11.5584ZM48.4412 0.232422L48.455 16.6124C48.4413 19.2724 47.2175 22.5904 43.1063 22.8704H41.6075V26.9864C41.6075 26.9864 42.9137 26.9864 43.7663 27.0004C45.7463 27.0284 48.6063 26.0484 50.38 24.1164C52.8687 21.4284 53.1712 17.9984 53.1712 16.3464V0.232422H48.4412Z" fill="black"/>
</svg>
