<svg width="139" height="50" viewBox="0 0 139 50" fill="none" xmlns="http://www.w3.org/2000/svg">
<g clip-path="url(#clip0_557_356)">
<path fill-rule="evenodd" clip-rule="evenodd" d="M58.1735 8.46582H65.0162L65.0979 8.54751V38.2742L65.0162 38.3559H58.1735C58.0918 38.3559 58.0918 38.2742 58.0918 38.2742V8.54751C58.0918 8.54751 58.0918 8.46582 58.1735 8.46582Z" fill="#302D2D"/>
<path fill-rule="evenodd" clip-rule="evenodd" d="M55.8923 8.46582C55.8923 8.46582 55.974 8.54751 55.8923 8.62919L46.8505 23.2883C46.7688 23.37 46.7688 23.5334 46.8505 23.6968L55.974 38.1925C56.0557 38.2742 55.974 38.3559 55.974 38.3559H47.4969C47.4151 38.3559 47.3334 38.2742 47.2517 38.2742L41.791 29.3183C41.7365 29.2639 41.682 29.2639 41.6275 29.3183L36.4937 38.1925C36.4119 38.2742 36.3302 38.3559 36.2485 38.3559H28.3434C28.18 38.3559 28.18 38.2742 28.2617 38.2742L37.5487 22.8799C37.7121 22.7165 37.7121 22.5532 37.5487 22.3898L29.3984 8.62919C29.3167 8.54751 29.3984 8.46582 29.3984 8.46582H37.6304C37.7121 8.46582 37.7938 8.54751 37.7938 8.62919L42.7642 16.939C42.8187 16.9935 42.8732 16.9935 42.9277 16.939L48.0615 8.62919C48.0615 8.54751 48.1432 8.46582 48.225 8.46582H55.8849H55.8923Z" fill="#302D2D"/>
<path fill-rule="evenodd" clip-rule="evenodd" d="M114.394 0L139 38.3559H117.648L109.587 25.8132H108.606L108.034 24.922H98.4199L114.394 0Z" fill="#FCDE00"/>
<path fill-rule="evenodd" clip-rule="evenodd" d="M112.84 23.6963L122.298 38.3554H92.2305L101.681 23.6963H112.84Z" fill="#231F20"/>
<path fill-rule="evenodd" clip-rule="evenodd" d="M110.396 23.6963L119.854 38.3554H89.7861L99.2366 23.6963H110.396Z" fill="#C9493F"/>
<path fill-rule="evenodd" clip-rule="evenodd" d="M25.6618 8.46582H19.3095C19.2278 8.46582 19.146 8.54751 19.146 8.62919L0 38.2742C0 38.2742 0 38.3559 0.0817254 38.3559H7.82335C7.90507 38.3559 7.9868 38.3559 7.9868 38.2742L10.5946 34.2047C10.6763 34.2047 10.6763 34.123 10.758 34.123H18.9083C18.99 34.123 18.99 34.2047 18.99 34.2047V38.1925C18.99 38.2742 18.99 38.3559 19.0717 38.3559H25.7509L25.8326 38.2742V8.62919C25.8326 8.54751 25.7509 8.46582 25.6692 8.46582H25.6618ZM18.9826 28.2564V28.3381H13.9305C13.876 28.3381 13.8487 28.3109 13.8487 28.2564L19.2278 19.709L18.9826 28.2564Z" fill="#302D2D"/>
<path fill-rule="evenodd" clip-rule="evenodd" d="M69.0955 38.356H78.1373C79.2815 38.2743 80.4182 38.1109 81.4806 37.7841C85.6338 36.4846 87.8329 32.326 87.8329 28.8283C87.8329 23.2067 83.4346 21.2536 78.219 19.0555C77.3201 18.6471 76.1833 18.0752 76.1833 16.8574C76.1833 15.6395 77.4018 14.986 78.7094 14.986H85.7972C85.8517 14.986 85.8789 14.9588 85.8789 14.9043V8.47329C85.8789 8.41883 85.8517 8.3916 85.7972 8.3916H78.3825C72.1936 8.3916 68.5234 12.0527 68.5234 17.1841C68.5234 21.6621 71.3764 23.8602 75.5295 25.5756C78.4642 26.7192 80.3365 27.2019 80.3365 29.5634C80.3365 30.7813 79.6009 32.0066 78.0556 32.0066H69.0955V38.2743C69.0955 38.356 69.1772 38.356 69.0955 38.356Z" fill="#302D2D"/>
<path fill-rule="evenodd" clip-rule="evenodd" d="M91.6592 8.30957C90.2773 8.30957 89.2148 9.45319 89.2148 10.8344C89.2148 12.134 90.2773 13.2776 91.6592 13.2776C93.0411 13.2776 94.1852 12.134 94.1852 10.8344C94.1852 9.45319 93.0411 8.30957 91.6592 8.30957ZM91.6592 13.0326C90.4407 13.0326 89.46 12.0523 89.46 10.8344C89.46 9.53488 90.4407 8.55463 91.6592 8.55463C92.9594 8.55463 93.9401 9.53488 93.9401 10.8344C93.9401 12.0523 92.9594 13.0326 91.6592 13.0326Z" fill="#302D2D"/>
<path fill-rule="evenodd" clip-rule="evenodd" d="M92.8846 12.2159L92.3125 10.9163C92.6394 10.8346 92.8029 10.5079 92.8029 10.1811C92.8029 9.93607 92.7212 9.69101 92.476 9.52763C92.3125 9.36426 92.0674 9.36426 91.8222 9.36426H90.7598V12.2159H91.0867V10.998H91.9039L92.476 12.2159H92.8846ZM91.0941 10.6713V9.60932H91.8296C91.9931 9.60932 92.1565 9.60932 92.2383 9.77269C92.4017 9.85438 92.4834 9.93607 92.4834 10.1811C92.4834 10.2628 92.4017 10.4262 92.32 10.5079C92.1565 10.6713 91.9931 10.6713 91.8296 10.6713H91.0941Z" fill="#302D2D"/>
<path fill-rule="evenodd" clip-rule="evenodd" d="M6.03245 49.4361C5.2152 49.8445 4.56883 50.0079 3.66985 50.0079C1.30724 50.0079 0.163086 48.5449 0.163086 47.0746C0.163086 45.5299 1.46326 44.0596 3.75157 44.0596C4.65055 44.0596 5.37865 44.2229 5.95073 44.5497V45.8493C5.29693 45.5225 4.65055 45.2775 3.91502 45.2775C2.61485 45.2775 1.71587 46.0126 1.71587 47.0671C1.71587 48.0474 2.61485 48.7751 3.8333 48.7751C4.65055 48.7751 5.13347 48.6118 6.03245 48.2033V49.4212V49.4361Z" fill="#302D2D"/>
<path fill-rule="evenodd" clip-rule="evenodd" d="M14.5842 50.0001C12.3851 50.0001 11.1592 48.5371 11.1592 47.0668C11.1592 45.5964 12.3776 44.0518 14.5842 44.0518C16.7908 44.0518 18.0093 45.6781 18.0093 47.0668C18.0093 48.5297 16.7908 50.0001 14.5842 50.0001ZM14.5842 45.2771C13.4401 45.2771 12.712 46.0123 12.712 47.0668C12.712 48.1213 13.4475 48.7748 14.5842 48.7748C15.7209 48.7748 16.4565 48.1213 16.4565 47.0668C16.4565 46.0123 15.7209 45.2771 14.5842 45.2771Z" fill="#302D2D"/>
<path fill-rule="evenodd" clip-rule="evenodd" d="M28.3516 44.1406H29.5775V49.9181H28.1064V46.3388L26.4794 48.1284H26.3159L24.6888 46.3388V49.9181H23.2178V44.1406H24.4437L26.3976 46.3388L28.3516 44.1406Z" fill="#302D2D"/>
<path fill-rule="evenodd" clip-rule="evenodd" d="M40.5733 44.1406H41.8809V49.9181H40.4098V46.3388L38.7828 48.1284H38.5376L36.9105 46.3388V49.9181H35.4395V44.1406H36.7471L38.701 46.3388L40.5733 44.1406Z" fill="#302D2D"/>
<path fill-rule="evenodd" clip-rule="evenodd" d="M53.2851 44.1406V47.4824C53.2851 49.3538 51.9032 50.0073 50.2687 50.0073C48.5599 50.0073 47.334 49.2721 47.334 47.4824V44.1406H48.7976V47.4824C48.7976 48.2992 49.4514 48.7819 50.2612 48.7819C51.0711 48.7819 51.8066 48.4552 51.8066 47.4007V44.1406H53.2702H53.2851Z" fill="#302D2D"/>
<path fill-rule="evenodd" clip-rule="evenodd" d="M64.7715 49.9181H63.553L60.2097 46.2571V49.9181H58.7461V44.1406H60.128L63.3079 47.72V44.1406H64.7715V49.9181Z" fill="#302D2D"/>
<path fill-rule="evenodd" clip-rule="evenodd" d="M70.4766 49.9181H71.9402V44.1406H70.4766V49.9181Z" fill="#302D2D"/>
<path fill-rule="evenodd" clip-rule="evenodd" d="M82.6985 49.4361C81.8812 49.8445 81.2348 50.0079 80.3359 50.0079C78.055 50.0079 76.8291 48.5449 76.8291 47.0746C76.8291 45.5299 78.1293 44.0596 80.4176 44.0596C81.3166 44.0596 82.0447 44.2229 82.6167 44.5497V45.8493C81.9629 45.5225 81.3166 45.2775 80.581 45.2775C79.2809 45.2775 78.3819 46.0126 78.3819 47.0671C78.3819 48.0474 79.2809 48.7751 80.4993 48.7751C81.3166 48.7751 81.7995 48.6118 82.6985 48.2033V49.4212V49.4361Z" fill="#302D2D"/>
<path fill-rule="evenodd" clip-rule="evenodd" d="M93.3674 49.9187H91.822L91.3317 48.7751H88.6421L88.1518 49.9187H86.6064L88.9691 44.1338H90.7596L93.3674 49.9187ZM89.8606 45.5225L89.0433 47.8023H90.8339L89.8532 45.5225H89.8606Z" fill="#302D2D"/>
<path fill-rule="evenodd" clip-rule="evenodd" d="M102.089 45.1951H99.972V49.9181H98.4192V45.1951H96.3018V44.1406H102.089V45.1951Z" fill="#302D2D"/>
<path fill-rule="evenodd" clip-rule="evenodd" d="M106.651 49.9181H108.115V44.1406H106.651V49.9181Z" fill="#302D2D"/>
<path fill-rule="evenodd" clip-rule="evenodd" d="M116.102 50.0001C113.903 50.0001 112.677 48.5371 112.677 47.0668C112.677 45.5964 113.821 44.0518 116.102 44.0518C118.383 44.0518 119.527 45.6781 119.527 47.0668C119.527 48.5297 118.227 50.0001 116.102 50.0001ZM116.102 45.2771C114.958 45.2771 114.23 46.0123 114.23 47.0668C114.23 48.1213 114.965 48.7748 116.102 48.7748C117.239 48.7748 117.974 48.1213 117.974 47.0668C117.974 46.0123 117.239 45.2771 116.102 45.2771Z" fill="#302D2D"/>
<path fill-rule="evenodd" clip-rule="evenodd" d="M129.951 49.9181H128.733L125.389 46.2571V49.9181H123.926V44.1406H125.308L128.488 47.72V44.1406H129.951V49.9181Z" fill="#302D2D"/>
<path fill-rule="evenodd" clip-rule="evenodd" d="M138.673 45.6859C137.774 45.2775 137.291 45.1141 136.719 45.1141C136.229 45.1141 135.902 45.3591 135.902 45.6042C135.902 46.5028 138.918 46.2577 138.918 48.2925C138.918 49.3544 137.938 50.0005 136.637 50.0005C135.575 50.0005 135.092 49.7554 134.438 49.4286V48.2108C135.337 48.7826 135.82 48.946 136.474 48.946C137.046 48.946 137.373 48.7826 137.373 48.4558C137.373 47.4756 134.356 47.8023 134.356 45.7676C134.356 44.7056 135.255 44.0596 136.637 44.0596C137.291 44.0596 137.856 44.2229 138.673 44.5497V45.6933V45.6859Z" fill="#302D2D"/>
</g>
<defs>
<clipPath id="clip0_557_356">
<rect width="139" height="50" fill="white"/>
</clipPath>
</defs>
</svg>
