<svg width="101" height="48" viewBox="0 0 101 48" fill="none" xmlns="http://www.w3.org/2000/svg">
<path d="M23.9329 47.8646C37.1501 47.8646 47.8658 37.1495 47.8658 23.9323C47.8658 10.7151 37.1507 0 23.9329 0C10.7151 0 0 10.7151 0 23.9323C0 37.1495 10.7151 47.8646 23.9329 47.8646Z" fill="#A70B52"/>
<path d="M29.7605 32.3548H24.8043V13.623H22.9663V34.2032H24.8043V34.191H29.7605V32.3548Z" fill="white"/>
<path d="M42.1311 24.6983H29.7895V22.8603H43.9388C43.9576 23.2157 43.9667 23.5716 43.9667 23.9318C43.9667 34.9969 34.9967 43.9662 23.9323 43.9662C12.8679 43.9662 3.89795 34.9969 3.89795 23.9318C3.89795 12.8668 12.8679 3.89746 23.9329 3.89746C24.2246 3.89746 24.5157 3.90352 24.8049 3.91626L24.8025 5.74032C24.5128 5.72695 24.2229 5.72028 23.9329 5.72031C13.8751 5.72031 5.7208 13.874 5.7208 23.9318C5.7208 33.9902 13.8745 42.1433 23.9329 42.1433C33.7166 42.1433 41.6981 34.4287 42.1262 24.7499L42.1311 24.6983Z" fill="white"/>
<path d="M16.4598 19.1676C17.2064 19.1676 17.9225 18.871 18.4504 18.343C18.9784 17.815 19.275 17.099 19.275 16.3523C19.275 15.6057 18.9784 14.8896 18.4504 14.3617C17.9225 13.8337 17.2064 13.5371 16.4598 13.5371C15.7131 13.5371 14.997 13.8337 14.4691 14.3617C13.9411 14.8896 13.6445 15.6057 13.6445 16.3523C13.6445 17.099 13.9411 17.815 14.4691 18.343C14.997 18.871 15.7131 19.1676 16.4598 19.1676Z" fill="white"/>
<path d="M59.7495 35.6797H76.8507V30.5149H66.0282V12.0208H59.7495V35.6797ZM97.5127 13.6866C95.5522 12.1676 93.0277 11.3975 90.0151 11.3975C86.4379 11.3975 83.449 12.4963 81.3708 14.5726C79.2017 16.7429 78.0532 19.9399 78.0532 23.8178C78.0532 27.9608 79.2672 31.4567 81.4715 33.6591C83.2022 35.3892 85.5077 36.3018 88.1462 36.3018C93.9379 36.3018 95.2702 32.8302 95.2702 32.8302V35.6785H100.5V22.317H90.0891V26.4981H94.8809C94.8809 26.4981 94.927 31.7623 89.9811 31.7623C88.7247 31.7623 87.6053 31.3063 86.7442 30.4452C85.4022 29.1044 84.6927 26.845 84.6927 23.916C84.6927 19.0648 86.6211 16.1686 89.8495 16.1686C91.8664 16.1686 93.3825 17.4069 93.7712 19.2837H100.432C100.087 16.5567 99.3386 15.1353 97.5127 13.6866Z" fill="#808183"/>
</svg>
