<svg width="143" height="27" viewBox="0 0 143 27" fill="none" xmlns="http://www.w3.org/2000/svg">
<g clip-path="url(#clip0_557_467)">
<path fill-rule="evenodd" clip-rule="evenodd" d="M40.7209 0.0136719C48.2 0.0136719 54.2631 6.05151 54.2631 13.4995C54.2631 20.9476 48.2 26.9854 40.7209 26.9854C33.2418 26.9854 27.1787 20.9476 27.1787 13.4995C27.1787 6.05151 33.2418 0.0136719 40.7209 0.0136719ZM40.7209 4.68601C45.609 4.68601 49.5713 8.63181 49.5713 13.4995C49.5713 18.3673 45.609 22.3131 40.7209 22.3131C35.8328 22.3131 31.8706 18.3673 31.8706 13.4995C31.8706 8.63181 35.8328 4.68601 40.7209 4.68601Z" fill="black"/>
<path d="M20.4998 26.9854H15.3744V15.7478H5.12444V26.9854H0V0.430618H5.12444V10.6445H15.3744V0.427734L20.4998 0.431867V26.9854ZM81.4796 26.9854H77.5322L66.1456 10.2619V26.9854H61.155V0.502992H65.1722L76.6491 16.383L76.4975 0.431771H81.4796V26.9854ZM122.215 0.431867H133.421C136.097 0.431867 138.344 2.15328 139.225 3.1696C139.965 4.02243 141.219 6.15454 141.219 8.53665C141.219 9.89629 141.064 12.0495 140.129 13.5888C139.259 15.0216 137.497 16.6428 135.484 17.1266L143 26.9855H137.002L126.982 15.3976V26.9855H122.215V0.431867H122.215ZM127.345 5.03356V12.8255H131.729C134.773 12.8255 136.188 10.9943 136.234 8.87383C136.276 6.93894 134.253 5.02173 132.217 5.02491L127.345 5.03356Z" fill="black"/>
<path fill-rule="evenodd" clip-rule="evenodd" d="M101.913 0.0136719C109.392 0.0136719 115.456 6.05151 115.456 13.4995C115.456 20.9476 109.392 26.9854 101.913 26.9854C94.4342 26.9854 88.3711 20.9476 88.3711 13.4995C88.3711 6.05151 94.4342 0.0136719 101.913 0.0136719ZM101.913 4.68601C106.801 4.68601 110.764 8.63181 110.764 13.4995C110.764 18.3673 106.801 22.3131 101.913 22.3131C97.0252 22.3131 93.0629 18.3673 93.0629 13.4995C93.0629 8.63181 97.0252 4.68601 101.913 4.68601Z" fill="black"/>
</g>
<defs>
<clipPath id="clip0_557_467">
<rect width="143" height="27" fill="white"/>
</clipPath>
</defs>
</svg>
