<svg width="172" height="27" viewBox="0 0 172 27" fill="none" xmlns="http://www.w3.org/2000/svg">
<path d="M42.9062 7.62583H49.5545L49.8333 9.80944C50.344 8.04239 53.6933 6.83301 55.7358 6.83301C60.4759 6.83301 62.3841 9.76241 62.3841 14.8284V25.8002H55.0404V15.9907C55.0404 14.0389 54.6675 12.5507 52.7157 12.5507C50.9016 12.5507 49.9274 14.5025 49.9274 15.8967V25.7968H42.9533V7.62247H42.9062V7.62583Z" fill="#001EAA"/>
<path d="M0 25.8939V0.09375H12.3189C19.6626 0.09375 23.0119 3.67151 23.0119 8.83155C23.0119 14.3645 19.9448 18.127 12.3189 18.127H8.18014V25.8435H0V25.8939ZM11.4354 11.902C13.3872 11.902 15.5271 11.4821 15.5271 9.20444C15.5271 6.87974 13.2495 6.36911 11.4354 6.36911H8.18014V11.902H11.4354Z" fill="#001EAA"/>
<path d="M123.834 7.62583H130.529L130.761 9.80944C131.366 8.04239 134.712 6.83301 136.711 6.83301C141.36 6.83301 143.359 9.76241 143.359 14.8284V25.8909H136.015V15.9907C136.015 14.0389 135.595 12.5507 133.596 12.5507C131.829 12.5507 130.899 14.5025 130.899 15.8967V25.8909H123.834V7.62583Z" fill="#001EAA"/>
<path d="M90.0859 19.3398C90.0859 20.0822 90.4588 21.1539 90.8753 21.5234C91.386 21.8963 92.0377 22.2658 92.8271 22.2658C94.1272 22.2658 95.1518 21.8929 95.1518 20.6869C95.2459 17.6198 84.0893 20.314 84.0893 13.0644C84.0893 7.95141 88.04 6.78906 92.0847 6.78906C96.1765 6.78906 101.753 7.57852 101.568 13.1114H95.387C95.387 12.6008 95.1552 12.2279 94.8764 11.8114C94.4564 11.3007 93.9458 11.0689 92.9716 11.0219C91.7152 10.9278 90.5528 11.163 90.5528 12.0902C90.6469 14.9255 102.082 13.0207 102.082 19.7127C102.082 24.3621 98.827 26.4987 92.461 26.4987C88.4633 26.4046 83.4443 24.4057 83.4443 19.3868L90.0859 19.3398Z" fill="#001EAA"/>
<path d="M165.44 14.6906C165.44 14.2707 165.44 13.6694 164.835 12.9236C164.557 12.5507 163.905 11.7613 162.884 11.7613C160.095 11.7613 159.397 14.4588 159.397 16.6425C159.397 19.199 160.559 21.2919 162.743 21.2919C164.647 21.2919 165.578 19.5248 165.578 18.0836H171.994C172.135 21.8495 169.532 26.4049 162.464 26.4049C156.699 26.4049 152.654 22.4072 152.654 16.5954C152.654 9.5306 157.908 6.83301 162.417 6.83301C168.554 6.83301 172.038 10.5519 171.947 14.6906H165.44Z" fill="#001EAA"/>
<path d="M35.0958 25.8947L34.3534 24.3594C32.9592 25.5218 31.518 26.1735 29.1933 26.1735C26.9157 26.0794 22.498 25.8006 22.498 20.9194C22.498 12.924 34.4441 16.5488 34.4441 12.5982C34.4441 11.2981 33.0029 11.3418 32.1664 11.3418C30.7252 11.3418 29.7476 11.6206 29.5629 13.8042H23.4286C23.4286 10.0383 24.591 6.83008 32.5863 6.83008C40.3969 6.83008 41.1864 10.9218 41.1864 14.9195V23.2407C41.1864 24.3561 41.2804 24.8197 41.9758 25.6595V25.8006L35.0958 25.8947ZM34.4911 17.5264C32.0287 18.6888 28.8675 18.6417 28.8204 20.4558C28.8204 21.6182 29.4722 22.2228 30.9133 22.2228C33.3287 22.1758 34.6759 19.71 34.4911 17.5264ZM76.1409 25.8947L75.3985 24.3594C74.0044 25.5218 72.4691 26.1735 70.2385 26.1735C67.9138 26.0794 63.4525 25.8006 63.4525 20.9194C63.4525 12.924 75.3985 16.5488 75.4455 12.5982C75.4455 11.2981 73.9103 11.3418 73.1679 11.3418C71.6326 11.3418 70.7491 11.6206 70.5643 13.8042H64.4267C64.4267 10.0383 65.495 6.83008 73.5844 6.83008C81.301 6.83008 82.0904 10.9218 82.0904 14.9195V23.2407C82.0904 24.3561 82.1845 24.8197 82.8799 25.6595V25.8006L76.1409 25.8947ZM75.5833 17.5264C73.1208 18.6888 69.9126 18.6417 69.9126 20.4558C69.9126 21.6182 70.5173 22.2228 72.0055 22.2228C74.3302 22.1758 75.7244 19.71 75.5833 17.5264Z" fill="#001EAA"/>
<path d="M151.448 25.8943V7.62584H144.662V25.8943H151.448ZM144.662 5.2541H151.448V0H144.662V5.2541Z" fill="#001EAA"/>
<path d="M112.956 6.97363C119 6.97363 122.719 11.2031 122.719 16.736C122.719 22.3597 119 26.4985 112.956 26.4985C106.913 26.4985 103.147 22.3597 103.147 16.736C103.103 11.1561 106.916 6.97363 112.956 6.97363ZM109.751 16.689C109.751 18.9667 110.494 21.708 112.96 21.802C115.422 21.802 116.074 18.9667 116.074 16.689C116.074 14.5054 115.422 11.6701 112.96 11.6701C110.447 11.6701 109.798 14.5054 109.751 16.689Z" fill="#001EAA"/>
</svg>
